<svg xmlns="http://www.w3.org/2000/svg" xmlns:xlink="http://www.w3.org/1999/xlink" width="512" zoomAndPan="magnify" viewBox="0 0 384 383.999986" height="512" preserveAspectRatio="xMidYMid meet" version="1.2"><g id="fe4c746778"><path style=" stroke:none;fill-rule:nonzero;fill:#000000;fill-opacity:1;" d="M 348.476562 190.1875 C 347.636719 186.84375 330.160156 118.851562 288.839844 99.773438 C 293.546875 94.488281 296.4375 87.515625 296.4375 79.894531 C 296.4375 63.414062 283.035156 50 266.566406 50 C 250.101562 50 236.695312 63.414062 236.695312 79.894531 L 236.695312 80.378906 C 231.730469 80.976562 226.800781 82.097656 221.664062 83.238281 C 221.574219 83.257812 221.480469 83.277344 221.386719 83.3125 C 219.40625 68.738281 206.898438 57.472656 191.792969 57.472656 C 176.6875 57.472656 164.199219 68.722656 162.21875 83.277344 C 162.183594 83.277344 162.144531 83.257812 162.089844 83.238281 C 156.972656 82.082031 152.007812 80.996094 147.058594 80.378906 L 147.058594 79.894531 C 147.058594 63.414062 133.65625 50 117.1875 50 C 100.703125 50 87.316406 63.414062 87.316406 79.894531 C 87.316406 96.375 100.722656 109.789062 117.1875 109.789062 C 128.167969 109.789062 137.761719 103.847656 142.953125 94.992188 C 147.84375 95.382812 152.996094 96.523438 158.804688 97.832031 C 160.597656 98.242188 162.425781 98.652344 164.292969 99.046875 C 168.847656 109.734375 179.453125 117.261719 191.792969 117.261719 C 204.132812 117.261719 214.71875 109.769531 219.277344 99.082031 C 221.199219 98.671875 223.085938 98.261719 224.933594 97.851562 C 230.738281 96.542969 235.890625 95.402344 240.785156 95.011719 C 245.972656 103.867188 255.570312 109.808594 266.546875 109.808594 L 266.585938 109.808594 C 293.824219 109.808594 312.441406 139.253906 323.078125 163.285156 L 294.273438 134.4375 C 292.871094 133.035156 290.929688 132.25 288.953125 132.25 C 284.824219 132.25 281.484375 135.59375 281.484375 139.722656 L 281.484375 184.566406 C 281.484375 185.089844 281.539062 185.613281 281.632812 186.097656 L 309.601562 319.097656 L 293.542969 319.097656 L 295.597656 314.96875 C 296.382812 313.363281 296.605469 311.53125 296.15625 309.8125 L 273.753906 220.125 C 272.859375 216.574219 269.515625 214.183594 265.855469 214.484375 C 262.199219 214.800781 259.320312 217.734375 259.0625 221.394531 L 252.078125 319.082031 L 239.71875 319.082031 L 241.902344 316.894531 C 243.304688 315.492188 244.105469 313.585938 244.085938 311.585938 L 244.03125 252.207031 L 251.5 185.351562 C 251.535156 185.070312 251.535156 184.792969 251.535156 184.53125 L 251.535156 132.210938 C 251.535156 128.082031 248.195312 124.738281 244.070312 124.738281 L 236.601562 124.738281 C 232.476562 124.738281 229.132812 128.082031 229.132812 132.210938 C 229.132812 136.339844 232.476562 139.683594 236.601562 139.683594 L 236.601562 184.117188 L 229.132812 250.972656 C 229.09375 251.253906 229.09375 251.535156 229.09375 251.8125 L 229.152344 308.503906 L 216.417969 321.246094 C 214.289062 323.378906 213.65625 326.589844 214.8125 329.394531 C 215.96875 332.195312 218.695312 334.007812 221.71875 334.007812 L 259.0625 334.007812 C 262.980469 334.007812 266.230469 330.984375 266.511719 327.058594 L 270.65625 269.171875 L 281.035156 310.707031 L 274.800781 323.1875 C 273.640625 325.507812 273.753906 328.269531 275.136719 330.457031 C 276.5 332.644531 278.90625 334.007812 281.484375 334.007812 L 318.824219 334.007812 C 321.0625 334.007812 323.210938 332.980469 324.609375 331.242188 C 326.03125 329.484375 326.589844 327.207031 326.125 325 L 296.402344 183.765625 L 296.402344 157.71875 L 335.925781 197.292969 C 338.296875 199.667969 341.972656 200.171875 344.886719 198.527344 C 347.800781 196.882812 349.273438 193.480469 348.453125 190.210938 Z M 117.1875 94.839844 C 108.953125 94.839844 102.253906 88.128906 102.253906 79.890625 C 102.253906 71.652344 108.953125 64.941406 117.1875 64.941406 C 125.421875 64.941406 132.125 71.652344 132.125 79.890625 C 132.125 88.128906 125.421875 94.839844 117.1875 94.839844 Z M 191.792969 102.3125 C 183.558594 102.3125 176.855469 95.605469 176.855469 87.363281 C 176.855469 79.125 183.558594 72.417969 191.792969 72.417969 C 200.027344 72.417969 206.726562 79.125 206.726562 87.363281 C 206.726562 95.605469 200.027344 102.3125 191.792969 102.3125 Z M 251.613281 79.890625 C 251.613281 71.652344 258.316406 64.941406 266.550781 64.941406 C 274.78125 64.941406 281.484375 71.652344 281.484375 79.890625 C 281.484375 88.128906 274.78125 94.839844 266.550781 94.839844 C 258.316406 94.839844 251.613281 88.128906 251.613281 79.890625 Z M 251.613281 79.890625 "/><path style=" stroke:none;fill-rule:nonzero;fill:#000000;fill-opacity:1;" d="M 134.476562 273.835938 C 138.398438 272.53125 140.507812 268.308594 139.199219 264.382812 L 124.261719 219.539062 C 123.179688 216.25 119.949219 214.160156 116.496094 214.457031 C 113.042969 214.757812 110.261719 217.410156 109.777344 220.847656 L 95.753906 319.054688 L 82.910156 319.054688 L 85.09375 316.867188 C 86.289062 315.671875 87.035156 314.121094 87.222656 312.457031 L 102.15625 185.402344 C 102.195312 185.105469 102.195312 184.824219 102.195312 184.542969 L 102.195312 132.226562 C 102.195312 129.125 100.273438 126.320312 97.339844 125.238281 C 94.429688 124.152344 91.144531 124.976562 89.089844 127.3125 L 57.777344 163.109375 C 66.253906 143.679688 79.398438 123.199219 85.859375 114.140625 C 88.25 110.777344 87.464844 106.105469 84.121094 103.714844 C 80.761719 101.324219 76.09375 102.089844 73.703125 105.453125 C 72.136719 107.65625 34.984375 160.085938 34.984375 192 C 34.984375 195.101562 36.90625 197.90625 39.835938 198.988281 C 42.75 200.070312 46.035156 199.25 48.089844 196.914062 L 87.277344 152.089844 L 87.277344 184.078125 L 72.695312 308.125 L 59.589844 321.242188 C 57.460938 323.375 56.828125 326.585938 57.984375 329.390625 C 59.140625 332.191406 61.867188 334.003906 64.890625 334.003906 L 102.230469 334.003906 C 105.949219 334.003906 109.101562 331.277344 109.625 327.578125 L 120.082031 254.296875 L 125.007812 269.097656 C 126.316406 273.019531 130.535156 275.132812 134.457031 273.824219 Z M 134.476562 273.835938 "/><path style=" stroke:none;fill-rule:nonzero;fill:#000000;fill-opacity:1;" d="M 161.996094 319.054688 L 150.160156 319.054688 L 152.34375 316.867188 C 153.539062 315.671875 154.285156 314.101562 154.472656 312.421875 L 161.867188 245.769531 L 176.558594 194.054688 C 176.746094 193.382812 176.839844 192.707031 176.839844 192 L 176.839844 132.207031 C 176.839844 128.078125 173.496094 124.734375 169.371094 124.734375 C 165.246094 124.734375 161.902344 128.078125 161.902344 132.207031 L 161.902344 190.953125 L 154.976562 215.355469 L 147.042969 183.609375 L 147.042969 139.679688 C 151.167969 139.679688 154.507812 136.335938 154.507812 132.207031 C 154.507812 128.078125 151.167969 124.734375 147.042969 124.734375 L 139.574219 124.734375 C 135.449219 124.734375 132.105469 128.078125 132.105469 132.207031 L 132.105469 184.527344 C 132.105469 185.125 132.179688 185.757812 132.328125 186.339844 L 146.929688 244.824219 L 139.910156 308.144531 L 126.820312 321.242188 C 124.691406 323.371094 124.058594 326.585938 125.214844 329.390625 C 126.375 332.191406 129.097656 334.003906 132.125 334.003906 L 161.996094 334.003906 C 166.121094 334.003906 169.464844 330.660156 169.464844 326.53125 C 169.464844 322.402344 166.121094 319.054688 161.996094 319.054688 Z M 161.996094 319.054688 "/><path style=" stroke:none;fill-rule:nonzero;fill:#000000;fill-opacity:1;" d="M 221.613281 302.710938 L 212.015625 252.296875 L 225.570312 211.585938 C 228.035156 204.1875 228.875 196.167969 227.996094 188.414062 L 221.613281 131.371094 C 221.164062 127.277344 217.46875 124.308594 213.359375 124.773438 C 209.269531 125.222656 206.300781 128.921875 206.769531 133.035156 L 213.152344 190.078125 C 213.789062 195.683594 213.171875 201.496094 211.398438 206.859375 L 197.230469 249.421875 C 196.816406 250.636719 196.742188 251.925781 196.96875 253.195312 L 205.535156 298.226562 L 193.082031 300.730469 L 196.386719 295.738281 C 197.65625 293.835938 197.976562 291.425781 197.246094 289.238281 L 185.953125 255.34375 C 185.1875 253.046875 185.1875 250.542969 185.953125 248.242188 L 198.910156 209.304688 C 200.214844 205.382812 198.085938 201.160156 194.183594 199.851562 C 190.265625 198.542969 186.046875 200.671875 184.738281 204.578125 L 171.78125 243.515625 C 170.007812 248.859375 170.007812 254.726562 171.78125 260.070312 L 181.917969 290.527344 L 170.679688 307.457031 C 169 309.960938 169.019531 313.246094 170.699219 315.75 C 172.097656 317.84375 174.433594 319.058594 176.898438 319.058594 C 177.382812 319.058594 177.867188 319.019531 178.351562 318.910156 L 215.691406 311.433594 C 219.707031 310.632812 222.339844 306.726562 221.554688 302.710938 Z M 221.613281 302.710938 "/></g></svg>