<svg xmlns="http://www.w3.org/2000/svg" xmlns:xlink="http://www.w3.org/1999/xlink" width="512" zoomAndPan="magnify" viewBox="0 0 384 383.999986" height="512" preserveAspectRatio="xMidYMid meet" version="1.2"><g id="64d41c04a2"><path style=" stroke:none;fill-rule:nonzero;fill:#000000;fill-opacity:1;" d="M 262.238281 202.289062 L 205.347656 226.398438 C 200.929688 228.277344 196.457031 229.21875 192 229.21875 C 187.539062 229.21875 183.054688 228.277344 178.648438 226.398438 L 97.171875 191.847656 L 82.28125 242.207031 C 107.945312 261.695312 137.535156 273.484375 167.917969 277.53125 C 199.621094 281.769531 232.226562 277.585938 262.199219 265.023438 C 262.605469 264.382812 263.042969 263.769531 263.507812 263.183594 L 263.507812 202.835938 L 262.238281 202.277344 Z M 79.417969 90.328125 C 77.375 88.285156 77.375 84.972656 79.417969 82.929688 C 81.464844 80.886719 84.777344 80.886719 86.824219 82.929688 L 102.804688 98.902344 L 122.074219 65.554688 C 123.519531 63.058594 126.710938 62.214844 129.203125 63.660156 C 131.699219 65.101562 132.546875 68.292969 131.101562 70.785156 L 108.613281 109.707031 C 108.367188 110.210938 108.027344 110.703125 107.605469 111.125 C 105.558594 113.171875 102.246094 113.171875 100.199219 111.125 L 79.40625 90.34375 Z M 150 49.226562 C 142.1875 47.714844 134.550781 45.5625 127.1875 42.78125 C 119.414062 39.851562 111.929688 36.238281 104.851562 32 C 97.789062 36.238281 90.300781 39.851562 82.527344 42.78125 C 75.164062 45.546875 67.527344 47.714844 59.714844 49.226562 C 60.300781 68.035156 63.410156 86.039062 70.390625 102.050781 C 77.429688 118.1875 88.445312 132.402344 104.851562 143.484375 C 121.253906 132.402344 132.289062 118.175781 139.308594 102.050781 C 146.292969 86.023438 149.402344 68.023438 149.988281 49.226562 Z M 130.871094 33.007812 C 139.011719 36.074219 147.492188 38.335938 156.125 39.714844 C 158.632812 40.109375 160.542969 42.289062 160.527344 44.90625 C 160.335938 62.894531 158.058594 80.339844 152.671875 96.394531 L 178.664062 85.371094 C 183.082031 83.488281 187.554688 82.550781 192.015625 82.550781 C 196.472656 82.550781 200.960938 83.488281 205.363281 85.371094 L 278.972656 116.578125 C 281.617188 117.695312 282.871094 120.761719 281.753906 123.40625 C 280.636719 126.050781 277.570312 127.304688 274.921875 126.1875 L 201.273438 94.976562 C 198.203125 93.671875 195.09375 93.015625 192.011719 93.015625 C 188.917969 93.015625 185.824219 93.671875 182.753906 94.976562 L 147.136719 110.066406 C 138.859375 127.292969 126.21875 142.378906 107.769531 154.054688 C 106.105469 155.175781 103.882812 155.269531 102.070312 154.136719 C 94.324219 149.246094 87.601562 143.753906 81.792969 137.757812 L 43.5 154 C 43.121094 154.164062 42.792969 154.425781 42.589844 154.738281 C 42.398438 155.023438 42.289062 155.433594 42.289062 155.882812 C 42.289062 156.332031 42.398438 156.742188 42.589844 157.027344 C 42.792969 157.339844 43.121094 157.613281 43.5 157.761719 L 182.742188 216.789062 C 185.8125 218.097656 188.921875 218.75 192 218.75 C 195.097656 218.75 198.191406 218.097656 201.261719 216.789062 L 249.230469 196.453125 L 201.203125 174.960938 C 198.410156 176.3125 195.285156 177.074219 191.988281 177.074219 C 186.136719 177.074219 180.820312 174.703125 176.988281 170.859375 C 173.15625 167.03125 170.769531 161.730469 170.769531 155.867188 C 170.769531 150.023438 173.140625 144.707031 176.988281 140.878906 C 180.820312 137.046875 186.121094 134.664062 191.988281 134.664062 C 197.835938 134.664062 203.15625 137.035156 206.988281 140.878906 L 207.410156 141.3125 L 291.011719 178.726562 L 340.484375 157.75 C 340.867188 157.585938 341.195312 157.328125 341.398438 157.015625 C 341.605469 156.714844 341.710938 156.320312 341.710938 155.871094 C 341.710938 155.421875 341.605469 155.023438 341.398438 154.726562 C 341.195312 154.410156 340.867188 154.140625 340.484375 153.988281 L 313.527344 142.554688 C 310.882812 141.4375 309.625 138.371094 310.746094 135.726562 C 311.863281 133.082031 314.929688 131.828125 317.574219 132.949219 L 344.535156 144.382812 C 346.878906 145.375 348.804688 146.984375 350.113281 148.972656 C 351.449219 150.976562 352.171875 153.347656 352.171875 155.882812 C 352.171875 158.40625 351.433594 160.789062 350.113281 162.792969 C 348.804688 164.785156 346.878906 166.390625 344.535156 167.386719 L 296.765625 187.636719 L 296.765625 188.714844 L 312.652344 242.414062 C 313.386719 244.46875 312.761719 246.855469 310.960938 248.273438 C 308.507812 250.207031 305.929688 252.144531 303.214844 254.066406 C 301.144531 255.550781 298.988281 257.007812 296.792969 258.441406 L 296.792969 263.195312 C 299.65625 266.808594 301.363281 271.375 301.363281 276.335938 C 301.363281 281.117188 299.765625 285.535156 297.09375 289.078125 L 303.980469 346.222656 C 304.320312 349.082031 302.261719 351.6875 299.398438 352.027344 L 261.503906 352.066406 C 258.613281 352.066406 256.269531 349.722656 256.269531 346.835938 L 263.195312 289.074219 C 260.742188 285.832031 259.214844 281.851562 258.96875 277.546875 C 229.335938 288.570312 197.535156 292.03125 166.566406 287.902344 C 133.351562 283.476562 101.042969 270.324219 73.292969 248.449219 C 71.496094 247.207031 70.609375 244.90625 71.261719 242.683594 L 87.503906 187.761719 L 39.449219 167.386719 C 37.101562 166.390625 35.195312 164.785156 33.871094 162.792969 C 32.546875 160.789062 31.8125 158.417969 31.8125 155.882812 C 31.8125 153.363281 32.546875 150.976562 33.871094 148.976562 C 35.195312 146.984375 37.101562 145.375 39.449219 144.382812 L 74.585938 129.484375 C 68.957031 122.277344 64.414062 114.46875 60.816406 106.222656 C 52.703125 87.621094 49.429688 66.742188 49.195312 45.085938 C 49.085938 42.46875 50.957031 40.140625 53.585938 39.714844 C 62.21875 38.339844 70.699219 36.078125 78.84375 33.011719 C 86.886719 29.972656 94.644531 26.113281 101.957031 21.496094 C 103.621094 20.390625 105.855469 20.296875 107.65625 21.441406 C 114.992188 26.089844 122.777344 29.972656 130.863281 33.011719 Z M 296.792969 225.554688 L 296.792969 245.832031 L 297.175781 245.5625 L 301.71875 242.207031 Z M 286.335938 190.171875 L 286.320312 190.144531 C 286.117188 189.421875 286.0625 188.703125 286.160156 187.992188 L 213.214844 155.351562 L 213.230469 155.882812 C 213.230469 160.121094 211.976562 164.074219 209.835938 167.398438 L 270.503906 194.546875 C 272.535156 195.269531 273.992188 197.207031 273.992188 199.480469 L 273.992188 256.039062 C 275.945312 255.441406 278.015625 255.125 280.171875 255.125 C 282.3125 255.125 284.382812 255.453125 286.347656 256.039062 L 286.347656 190.171875 Z M 287.441406 296.242188 C 285.164062 297.074219 282.722656 297.523438 280.171875 297.523438 C 277.621094 297.523438 275.167969 297.074219 272.890625 296.242188 L 267.421875 341.597656 L 292.910156 341.597656 Z M 286.757812 284.792969 C 287.222656 283.691406 288.066406 282.777344 289.144531 282.207031 C 290.25 280.515625 290.902344 278.5 290.902344 276.316406 C 290.902344 273.769531 289.730469 270.417969 287.753906 268.726562 C 285.816406 266.792969 283.132812 265.578125 280.160156 265.578125 C 277.171875 265.578125 274.539062 266.75 272.453125 268.835938 C 270.585938 270.757812 269.425781 273.402344 269.425781 276.304688 C 269.425781 278.472656 270.066406 280.5 271.1875 282.191406 C 272.261719 282.75 273.109375 283.675781 273.570312 284.78125 C 275.386719 286.199219 277.675781 287.042969 280.171875 287.042969 C 282.652344 287.042969 284.945312 286.199219 286.757812 284.78125 Z M 199.609375 148.292969 C 197.671875 146.355469 194.984375 145.144531 192.011719 145.144531 C 189.054688 145.144531 186.355469 146.355469 184.417969 148.292969 C 182.480469 150.226562 181.265625 152.925781 181.265625 155.882812 C 181.265625 158.839844 182.480469 161.539062 184.417969 163.472656 C 186.355469 165.410156 189.039062 166.621094 192.011719 166.621094 C 194.972656 166.621094 197.671875 165.410156 199.609375 163.472656 C 201.542969 161.539062 202.757812 158.855469 202.757812 155.882812 C 202.757812 152.925781 201.542969 150.226562 199.609375 148.292969 Z M 293.835938 134.214844 C 291.1875 133.082031 289.949219 130.015625 291.066406 127.359375 C 292.199219 124.714844 295.265625 123.472656 297.925781 124.59375 L 298.703125 124.917969 C 301.347656 126.050781 302.589844 129.117188 301.46875 131.773438 C 300.339844 134.417969 297.269531 135.660156 294.613281 134.539062 Z M 293.835938 134.214844 "/></g></svg>