<svg xmlns="http://www.w3.org/2000/svg" xmlns:xlink="http://www.w3.org/1999/xlink" width="512" zoomAndPan="magnify" viewBox="0 0 384 383.999986" height="512" preserveAspectRatio="xMidYMid meet" version="1.2"><g id="35f6ee31a2"><path style=" stroke:none;fill-rule:nonzero;fill:#000000;fill-opacity:1;" d="M 100.269531 204.070312 C 101.675781 201.53125 100.746094 198.351562 98.222656 196.945312 C 95.6875 195.554688 92.511719 196.453125 91.105469 198.992188 C 67.664062 241.445312 73.417969 294.402344 105.425781 330.796875 C 106.460938 331.96875 107.90625 332.570312 109.363281 332.570312 C 110.59375 332.570312 111.820312 332.148438 112.816406 331.261719 C 114.984375 329.347656 115.199219 326.035156 113.292969 323.863281 C 84.179688 290.8125 78.957031 242.65625 100.269531 204.066406 Z M 100.269531 204.070312 "/><path style=" stroke:none;fill-rule:nonzero;fill:#000000;fill-opacity:1;" d="M 285.738281 196.917969 C 283.203125 198.324219 282.289062 201.503906 283.691406 204.042969 C 305.019531 242.632812 299.785156 290.800781 270.667969 323.90625 C 268.761719 326.074219 268.964844 329.390625 271.148438 331.300781 C 272.140625 332.175781 273.382812 332.609375 274.597656 332.609375 C 276.042969 332.609375 277.488281 332.011719 278.539062 330.835938 C 310.570312 294.414062 316.324219 241.429688 292.855469 198.976562 C 291.453125 196.425781 288.246094 195.511719 285.738281 196.917969 Z M 285.738281 196.917969 "/><path style=" stroke:none;fill-rule:nonzero;fill:#000000;fill-opacity:1;" d="M 191.972656 165.640625 C 176.316406 165.640625 160.921875 169.777344 147.421875 177.582031 C 144.910156 179.027344 144.066406 182.234375 145.511719 184.746094 C 146.957031 187.257812 150.175781 188.101562 152.671875 186.65625 C 164.5625 179.765625 178.15625 176.121094 191.972656 176.121094 C 235.28125 176.121094 270.515625 211.398438 270.515625 254.75 C 270.515625 298.089844 235.28125 333.351562 191.972656 333.351562 C 148.664062 333.351562 113.425781 298.089844 113.425781 254.75 C 113.425781 235.699219 120.328125 217.320312 132.832031 203.007812 C 134.738281 200.824219 134.507812 197.519531 132.339844 195.609375 C 130.15625 193.699219 126.84375 193.933594 124.949219 196.101562 C 110.765625 212.328125 102.953125 233.164062 102.953125 254.738281 C 102.953125 303.859375 142.882812 343.816406 191.972656 343.816406 C 241.0625 343.816406 280.988281 303.859375 280.988281 254.738281 C 280.988281 205.613281 241.0625 165.644531 191.972656 165.644531 Z M 191.972656 165.640625 "/><path style=" stroke:none;fill-rule:nonzero;fill:#000000;fill-opacity:1;" d="M 343.746094 138.488281 C 330.285156 66.890625 257.222656 29.414062 191.972656 29.414062 C 126.734375 29.414062 53.660156 66.890625 40.210938 138.488281 C 39.828125 140.5625 40.714844 142.664062 42.460938 143.824219 C 44.222656 144.984375 46.496094 144.984375 48.242188 143.824219 C 54.992188 139.335938 79.757812 126.820312 115.484375 154.097656 C 117.3125 155.503906 119.835938 155.53125 121.703125 154.195312 C 121.976562 154.003906 147.914062 135.910156 186.734375 134.367188 L 186.734375 149.9375 C 186.734375 152.828125 189.082031 155.175781 191.972656 155.175781 C 194.863281 155.175781 197.207031 152.828125 197.207031 149.9375 L 197.207031 134.367188 C 236.03125 135.910156 261.96875 154.003906 262.226562 154.195312 C 263.140625 154.847656 264.203125 155.175781 265.28125 155.175781 C 266.398438 155.175781 267.515625 154.820312 268.457031 154.097656 C 304.171875 126.808594 328.949219 139.335938 335.699219 143.824219 C 337.460938 144.996094 339.734375 144.996094 341.480469 143.824219 C 343.242188 142.664062 344.128906 140.5625 343.746094 138.488281 Z M 53.046875 129.851562 C 70.367188 70.75 134.417969 39.910156 191.988281 39.910156 C 246.207031 39.910156 257.28125 113.515625 259.519531 140.371094 C 259.492188 140.359375 259.476562 140.359375 259.449219 140.34375 C 247.273438 133.835938 223.351562 123.75 192.003906 123.75 C 160.683594 123.75 136.777344 133.820312 124.589844 140.332031 C 124.546875 140.34375 124.535156 140.34375 124.480469 140.386719 C 125.761719 124.734375 130.015625 93.171875 144.074219 69.566406 C 145.5625 67.082031 144.742188 63.863281 142.261719 62.375 C 139.78125 60.886719 136.5625 61.707031 135.074219 64.1875 C 119.558594 90.238281 115.179688 123.917969 113.953125 140.210938 C 87.101562 122.90625 65.734375 125.269531 53.054688 129.855469 Z M 270.058594 140.195312 C 268.53125 119.382812 261.996094 70.585938 234.042969 45.273438 C 277.75 56.449219 317.769531 85.007812 330.917969 129.851562 C 318.222656 125.265625 296.867188 122.902344 270.058594 140.195312 Z M 270.058594 140.195312 "/><path style=" stroke:none;fill-rule:nonzero;fill:#000000;fill-opacity:1;" d="M 205.433594 286.175781 L 178.527344 286.175781 C 172.949219 286.175781 168.425781 281.632812 168.425781 276.050781 C 168.425781 273.15625 166.078125 270.8125 163.1875 270.8125 C 160.296875 270.8125 157.953125 273.15625 157.953125 276.050781 C 157.953125 287.417969 167.183594 296.65625 178.527344 296.65625 L 186.75 296.65625 L 186.75 301.894531 C 186.75 304.789062 189.097656 307.136719 191.988281 307.136719 C 194.878906 307.136719 197.222656 304.789062 197.222656 301.894531 L 197.222656 296.65625 L 205.433594 296.65625 C 216.792969 296.65625 226.023438 287.417969 226.023438 275.957031 C 226.023438 267.332031 220.582031 259.554688 212.496094 256.605469 L 175.0625 242.933594 C 171.082031 241.472656 168.421875 237.652344 168.421875 233.421875 C 168.421875 227.839844 172.964844 223.296875 178.527344 223.296875 L 205.433594 223.296875 C 211.007812 223.296875 215.550781 227.839844 215.550781 233.421875 C 215.550781 236.3125 217.894531 238.660156 220.785156 238.660156 C 223.675781 238.660156 226.023438 236.3125 226.023438 233.421875 C 226.023438 222.054688 216.789062 212.816406 205.433594 212.816406 L 197.222656 212.816406 L 197.222656 207.574219 C 197.222656 204.683594 194.878906 202.335938 191.988281 202.335938 C 189.09375 202.335938 186.75 204.683594 186.75 207.574219 L 186.75 212.816406 L 178.527344 212.816406 C 167.183594 212.816406 157.949219 222.054688 157.949219 233.421875 C 157.949219 242.03125 163.378906 249.808594 171.464844 252.769531 L 208.910156 266.457031 C 212.890625 267.902344 215.550781 271.726562 215.550781 276.050781 C 215.539062 281.632812 211.011719 286.175781 205.433594 286.175781 Z M 205.433594 286.175781 "/><path style=" stroke:none;fill-rule:nonzero;fill:#000000;fill-opacity:1;" d="M 279.300781 181.417969 C 279.300781 188.40625 268.828125 188.40625 268.828125 181.417969 C 268.828125 174.429688 279.300781 174.429688 279.300781 181.417969 "/><path style=" stroke:none;fill-rule:nonzero;fill:#000000;fill-opacity:1;" d="M 115.226562 181.417969 C 115.226562 188.40625 104.753906 188.40625 104.753906 181.417969 C 104.753906 174.429688 115.226562 174.429688 115.226562 181.417969 "/></g></svg>