<svg xmlns="http://www.w3.org/2000/svg" xmlns:xlink="http://www.w3.org/1999/xlink" width="512" zoomAndPan="magnify" viewBox="0 0 384 383.999986" height="512" preserveAspectRatio="xMidYMid meet" version="1.2"><g id="59e161f4b5"><path style=" stroke:none;fill-rule:nonzero;fill:#000000;fill-opacity:1;" d="M 150.148438 12.078125 C 157.796875 10.773438 165.308594 13.53125 171.308594 19.082031 C 176.898438 24.269531 181.171875 31.960938 182.75 40.898438 C 184.324219 49.835938 182.957031 58.519531 179.464844 65.296875 L 179.285156 65.613281 C 175.519531 72.71875 169.417969 77.789062 161.847656 79.125 C 154.167969 80.472656 146.597656 77.714844 140.582031 72.136719 C 134.988281 66.945312 130.714844 59.253906 129.140625 50.316406 C 127.566406 41.363281 128.933594 32.683594 132.425781 25.902344 C 136.160156 18.617188 142.335938 13.441406 150.042969 12.078125 L 150.164062 12.0625 Z M 222.304688 339.476562 C 219.125 339.476562 216.546875 336.894531 216.546875 333.71875 C 216.546875 330.539062 219.125 327.957031 222.304688 327.957031 L 222.351562 327.957031 C 225.527344 327.957031 228.109375 330.539062 228.109375 333.71875 C 228.109375 336.894531 225.527344 339.476562 222.351562 339.476562 Z M 161.933594 339.476562 C 158.753906 339.476562 156.175781 336.894531 156.175781 333.71875 C 156.175781 330.539062 158.753906 327.957031 161.933594 327.957031 L 161.980469 327.957031 C 165.160156 327.957031 167.738281 330.539062 167.738281 333.71875 C 167.738281 336.894531 165.160156 339.476562 161.980469 339.476562 Z M 177.632812 150.144531 C 174.453125 150.144531 171.875 147.5625 171.875 144.382812 C 171.875 141.207031 174.453125 138.625 177.632812 138.625 L 186.390625 138.625 L 186.390625 129.882812 C 186.390625 126.703125 188.96875 124.125 192.148438 124.125 C 195.328125 124.125 197.90625 126.703125 197.90625 129.882812 L 197.90625 138.625 L 206.648438 138.625 C 209.828125 138.625 212.40625 141.207031 212.40625 144.382812 C 212.40625 147.5625 209.828125 150.144531 206.648438 150.144531 L 197.90625 150.144531 L 197.90625 158.898438 C 197.90625 162.078125 195.328125 164.660156 192.148438 164.660156 C 188.96875 164.660156 186.390625 162.078125 186.390625 158.898438 L 186.390625 150.144531 Z M 179.914062 350.167969 L 177.410156 318.046875 C 177.378906 317.65625 177.304688 317.3125 177.183594 317.054688 L 107.488281 317.054688 L 107.371094 318.046875 C 106.996094 322.875 104.414062 347.660156 104.878906 350.332031 L 179.914062 350.332031 Z M 188.878906 317.207031 C 189.734375 328.183594 190.769531 339.292969 191.429688 350.273438 C 191.429688 353.269531 190.273438 356.015625 188.460938 358.070312 C 186.570312 360.214844 183.929688 361.609375 181.113281 361.832031 C 160.226562 359.507812 126.394531 362.328125 103.695312 361.832031 C 100.859375 361.609375 98.222656 360.199219 96.347656 358.070312 C 94.53125 356.015625 93.378906 353.269531 93.378906 350.273438 C 94.5625 339.566406 95.074219 328.03125 95.914062 317.207031 C 96.183594 313.816406 97.246094 311.179688 98.882812 309.257812 C 100.84375 306.980469 103.335938 305.792969 106.125 305.601562 L 106.125 301.789062 C 106.125 299.632812 105.644531 297.667969 104.730469 295.988281 C 103.785156 294.292969 102.390625 292.808594 100.605469 291.667969 L 47.28125 257.644531 C 43.984375 255.542969 41.253906 253.011719 39.097656 250.070312 C 36.921875 247.117188 35.332031 243.742188 34.328125 239.980469 L 10.292969 150.199219 C 9.347656 146.332031 10.007812 142.402344 11.878906 139.179688 C 13.785156 135.878906 16.980469 133.285156 20.9375 132.21875 C 21.433594 132.085938 21.925781 132.023438 22.421875 132.023438 C 26.003906 132.011719 29.46875 132.746094 32.4375 134.46875 L 32.8125 134.710938 C 35.511719 136.375 37.671875 138.804688 39.019531 142.175781 C 43.339844 153.078125 48.378906 163.980469 53.957031 174.460938 C 55.816406 177.957031 57.71875 181.390625 59.683594 184.75 L 60.164062 184.328125 C 63.085938 181.855469 67 180.746094 70.929688 181.089844 C 74.648438 181.40625 78.472656 183.039062 81.457031 186.039062 L 82.476562 187.179688 C 99.628906 207.617188 110.710938 210.617188 122.269531 213.722656 C 134.328125 216.960938 146.847656 220.335938 165.261719 238.75 L 165.515625 239.019531 C 172.441406 245.976562 175.847656 257.777344 177.421875 271.230469 C 178.679688 282.070312 178.800781 294.203125 178.664062 305.597656 C 181.558594 305.824219 184.019531 307.234375 185.847656 309.378906 C 187.585938 311.445312 188.710938 314.234375 188.9375 317.207031 Z M 117.625 305.554688 L 167.136719 305.554688 C 167.257812 294.609375 167.136719 282.941406 165.9375 272.519531 C 164.648438 261.421875 162.144531 251.992188 157.390625 247.160156 L 157.0625 246.863281 C 140.808594 230.605469 129.816406 227.636719 119.257812 224.789062 C 105.898438 221.191406 93.09375 217.742188 73.628906 194.511719 L 73.269531 194.136719 C 72.28125 193.148438 71.066406 192.625 69.894531 192.519531 C 68.921875 192.441406 68.035156 192.636719 67.496094 193.089844 L 67.40625 193.164062 C 67.167969 193.402344 67.40625 194.542969 67.8125 195.878906 C 68.589844 198.410156 70.179688 201.171875 71.410156 203.074219 C 75.742188 209.792969 80.363281 215.328125 85.503906 220.246094 C 90.753906 225.253906 96.617188 229.707031 103.363281 234.222656 C 106.003906 235.976562 106.707031 239.542969 104.9375 242.183594 C 103.183594 244.824219 99.613281 245.527344 96.976562 243.757812 C 89.675781 238.882812 83.316406 234.039062 77.589844 228.566406 C 71.769531 223.019531 66.613281 216.839844 61.785156 209.359375 C 55.367188 200.242188 49.292969 190.269531 43.746094 179.832031 C 38.078125 169.171875 32.875 157.878906 28.316406 146.378906 C 27.984375 145.523438 27.460938 144.90625 26.859375 144.503906 L 26.652344 144.382812 C 25.78125 143.871094 24.613281 143.617188 23.261719 143.527344 C 22.632812 143.84375 22.121094 144.335938 21.777344 144.921875 C 21.359375 145.628906 21.207031 146.527344 21.402344 147.398438 L 45.410156 236.996094 C 46.039062 239.363281 47.027344 241.464844 48.347656 243.265625 C 49.683594 245.078125 51.378906 246.652344 53.445312 247.957031 L 106.769531 281.984375 C 110.234375 284.203125 112.945312 287.082031 114.792969 290.453125 C 116.648438 293.875 117.640625 297.710938 117.640625 301.777344 L 117.640625 305.554688 Z M 192.898438 349.355469 L 195.402344 317.191406 C 195.628906 314.222656 196.753906 311.433594 198.492188 309.363281 C 200.320312 307.203125 202.78125 305.792969 205.675781 305.582031 C 205.554688 294.1875 205.660156 282.054688 206.917969 271.214844 C 208.507812 257.539062 212.015625 245.570312 219.167969 238.660156 L 224.523438 233.558594 C 226.875 231.429688 230.519531 231.625 232.648438 233.996094 C 234.777344 236.347656 234.582031 239.992188 232.214844 242.121094 L 229.753906 244.386719 L 227.117188 246.953125 C 222.214844 251.703125 219.648438 261.257812 218.328125 272.535156 C 217.113281 282.957031 217.011719 294.621094 217.128906 305.570312 L 266.640625 305.570312 L 266.640625 301.789062 C 266.640625 297.710938 267.628906 293.886719 269.488281 290.484375 C 271.332031 287.09375 274.046875 284.199219 277.511719 281.996094 L 330.835938 247.972656 C 332.886719 246.667969 334.597656 245.09375 335.933594 243.277344 C 337.25 241.492188 338.226562 239.394531 338.871094 237.007812 L 362.878906 147.410156 C 363.074219 146.539062 362.90625 145.640625 362.503906 144.9375 C 362.171875 144.351562 361.648438 143.855469 361.019531 143.542969 C 359.683594 143.617188 358.5 143.886719 357.628906 144.398438 L 357.417969 144.515625 C 356.804688 144.921875 356.292969 145.535156 355.964844 146.390625 C 351.40625 157.894531 346.203125 169.199219 340.535156 179.847656 C 334.988281 190.28125 328.914062 200.253906 322.496094 209.371094 C 317.667969 216.839844 312.496094 223.03125 306.691406 228.582031 C 300.964844 234.054688 294.605469 238.898438 287.304688 243.773438 C 284.664062 245.527344 281.097656 244.820312 279.34375 242.195312 C 277.589844 239.558594 278.292969 235.988281 280.917969 234.234375 C 287.664062 229.722656 293.527344 225.265625 298.773438 220.257812 C 303.933594 215.339844 308.535156 209.820312 312.871094 203.089844 C 314.101562 201.183594 315.703125 198.425781 316.46875 195.890625 C 316.875 194.554688 317.113281 193.433594 316.875 193.175781 L 316.785156 193.085938 C 316.230469 192.636719 315.34375 192.441406 314.371094 192.53125 C 313.199219 192.636719 311.984375 193.160156 310.996094 194.152344 L 310.636719 194.511719 C 301.730469 205.171875 294.125 211.679688 287.199219 215.96875 C 280.152344 220.332031 273.929688 222.34375 267.75 224.050781 C 264.707031 224.890625 261.527344 223.109375 260.6875 220.046875 C 259.847656 217.003906 261.632812 213.824219 264.691406 212.984375 C 270.015625 211.515625 275.339844 209.808594 281.15625 206.191406 C 287.09375 202.519531 293.753906 196.761719 301.820312 187.132812 L 302.855469 185.996094 C 305.851562 182.996094 309.660156 181.375 313.378906 181.046875 C 317.308594 180.699219 321.207031 181.808594 324.148438 184.269531 L 324.613281 184.703125 C 326.574219 181.34375 328.480469 177.910156 330.339844 174.417969 C 335.917969 163.933594 340.957031 153.019531 345.273438 142.132812 C 346.609375 138.773438 348.769531 136.328125 351.480469 134.664062 L 351.855469 134.425781 C 354.824219 132.699219 358.289062 131.964844 361.875 131.964844 C 362.367188 131.980469 362.863281 132.039062 363.359375 132.175781 C 367.332031 133.238281 370.511719 135.832031 372.414062 139.132812 C 374.289062 142.355469 374.949219 146.285156 374.003906 150.15625 L 349.96875 239.933594 C 348.964844 243.699219 347.359375 247.070312 345.199219 250.027344 C 343.039062 252.964844 340.296875 255.5 337.011719 257.597656 L 283.691406 291.625 C 281.90625 292.761719 280.511719 294.246094 279.566406 295.941406 C 278.652344 297.605469 278.15625 299.570312 278.15625 301.730469 L 278.15625 305.539062 C 280.945312 305.734375 283.433594 306.917969 285.382812 309.199219 C 287.035156 311.132812 288.113281 313.773438 288.382812 317.144531 C 289.207031 327.777344 290.675781 339.699219 290.902344 350.210938 C 290.917969 353.210938 289.761719 355.953125 287.949219 358.007812 C 286.058594 360.136719 283.421875 361.546875 280.601562 361.773438 C 256.773438 362.28125 226.605469 363.0625 203.183594 361.757812 C 200.363281 361.546875 197.710938 360.152344 195.835938 358.007812 C 194.019531 355.953125 192.867188 353.226562 192.867188 350.210938 L 192.910156 349.3125 Z M 206.875 318.046875 C 206.230469 326.324219 203.949219 342.984375 204.382812 350.332031 L 279.417969 350.332031 C 279.851562 342.984375 277.574219 326.324219 276.929688 318.046875 L 276.808594 317.054688 L 207.113281 317.054688 C 206.996094 317.3125 206.921875 317.640625 206.890625 318.046875 Z M 243.59375 220.230469 C 246.429688 218.792969 249.894531 219.917969 251.332031 222.75 C 252.773438 225.585938 251.648438 229.046875 248.8125 230.488281 L 248.050781 230.878906 C 245.214844 232.316406 241.75 231.191406 240.3125 228.359375 C 238.871094 225.523438 239.996094 222.0625 242.832031 220.621094 Z M 159.144531 199.402344 C 150.328125 197.617188 142.605469 192.804688 137.117188 186.117188 C 131.71875 179.535156 128.480469 171.105469 128.480469 161.988281 C 128.480469 154.835938 130.503906 148.074219 134.015625 142.300781 C 137.628906 136.347656 142.816406 131.441406 148.980469 128.203125 C 149.804688 127.769531 150.449219 127.214844 150.898438 126.570312 C 151.347656 125.925781 151.648438 125.113281 151.78125 124.199219 C 153.164062 114.078125 158.066406 105.199219 165.292969 98.886719 C 172.386719 92.695312 181.710938 88.976562 192.148438 88.976562 C 202.507812 88.976562 211.777344 92.722656 218.855469 98.917969 C 226.097656 105.246094 231.03125 114.152344 232.484375 124.214844 C 232.605469 125.113281 232.917969 125.910156 233.382812 126.570312 C 233.847656 127.214844 234.492188 127.769531 235.289062 128.1875 L 235.617188 128.367188 C 241.644531 131.605469 246.730469 136.449219 250.28125 142.285156 C 253.792969 148.070312 255.832031 154.820312 255.832031 161.988281 C 255.832031 171.121094 252.578125 179.53125 247.179688 186.117188 C 241.707031 192.789062 233.96875 197.601562 225.152344 199.386719 C 222.496094 199.910156 219.902344 199.851562 217.460938 199.191406 C 215 198.53125 212.707031 197.289062 210.683594 195.488281 C 208.148438 193.238281 205.222656 191.484375 202.074219 190.285156 C 198.957031 189.101562 195.597656 188.46875 192.164062 188.46875 C 188.714844 188.46875 185.355469 189.101562 182.238281 190.285156 C 179.089844 191.484375 176.164062 193.238281 173.628906 195.488281 C 171.605469 197.289062 169.3125 198.53125 166.851562 199.191406 C 164.421875 199.851562 161.816406 199.910156 159.160156 199.386719 Z M 146.023438 178.828125 C 149.878906 183.539062 155.277344 186.925781 161.394531 188.15625 C 162.25 188.320312 163.105469 188.304688 163.867188 188.097656 C 164.617188 187.886719 165.351562 187.480469 166.011719 186.894531 C 169.613281 183.703125 173.734375 181.210938 178.171875 179.535156 C 182.597656 177.855469 187.320312 176.96875 192.132812 176.96875 C 196.945312 176.96875 201.671875 177.867188 206.09375 179.535156 C 210.53125 181.210938 214.65625 183.703125 218.253906 186.894531 C 218.914062 187.480469 219.648438 187.886719 220.398438 188.097656 C 221.179688 188.304688 222.019531 188.320312 222.871094 188.15625 C 228.976562 186.925781 234.390625 183.539062 238.242188 178.828125 C 242.007812 174.226562 244.269531 168.363281 244.269531 161.988281 C 244.269531 156.933594 242.859375 152.226562 240.445312 148.222656 C 237.972656 144.144531 234.417969 140.753906 230.203125 138.492188 L 229.921875 138.355469 C 227.476562 137.066406 225.464844 135.3125 223.953125 133.183594 C 222.453125 131.050781 221.464844 128.5625 221.074219 125.835938 C 220.023438 118.546875 216.484375 112.097656 211.28125 107.554688 C 206.242188 103.160156 199.601562 100.492188 192.132812 100.492188 C 184.589844 100.492188 177.886719 103.144531 172.835938 107.554688 C 167.648438 112.066406 164.136719 118.457031 163.148438 125.746094 C 162.773438 128.488281 161.800781 130.992188 160.300781 133.136719 C 158.785156 135.296875 156.761719 137.082031 154.316406 138.371094 C 149.984375 140.648438 146.324219 144.097656 143.804688 148.253906 C 141.390625 152.242188 139.980469 156.949219 139.980469 162.003906 C 139.980469 168.375 142.246094 174.253906 146.011719 178.84375 Z M 293.945312 77.804688 C 290.453125 75.796875 286.042969 75.902344 281.742188 77.714844 C 276.929688 79.738281 272.308594 83.832031 269.039062 89.488281 C 265.785156 95.140625 264.558594 101.167969 265.203125 106.339844 C 265.773438 110.808594 267.765625 114.589844 271.066406 116.660156 L 271.679688 117.003906 C 275.113281 118.847656 279.402344 118.699219 283.570312 116.945312 C 288.382812 114.917969 293.003906 110.839844 296.269531 105.1875 L 296.4375 104.917969 C 299.585938 99.355469 300.753906 93.414062 300.109375 88.316406 L 300.09375 88.167969 C 299.496094 83.625 297.394531 79.800781 293.945312 77.804688 Z M 277.289062 67.144531 C 284.832031 63.980469 292.882812 63.980469 299.660156 67.878906 C 306.378906 71.746094 310.394531 78.660156 311.460938 86.683594 L 311.492188 86.890625 C 312.433594 94.332031 310.800781 102.816406 306.40625 110.617188 L 306.210938 110.976562 C 301.667969 118.832031 295.058594 124.589844 288.039062 127.546875 C 280.585938 130.679688 272.625 130.722656 265.90625 126.945312 L 265.652344 126.8125 C 258.890625 122.898438 254.871094 115.910156 253.835938 107.796875 C 252.890625 100.238281 254.554688 91.660156 259.070312 83.804688 L 259.113281 83.730469 C 263.65625 75.871094 270.269531 70.097656 277.289062 67.144531 Z M 84.625 67.878906 C 91.386719 63.980469 99.453125 63.980469 106.996094 67.144531 C 114.011719 70.097656 120.640625 75.871094 125.167969 83.730469 L 125.347656 84.074219 C 129.757812 91.855469 131.375 100.34375 130.433594 107.796875 L 130.402344 108.007812 C 129.335938 116.027344 125.320312 122.925781 118.617188 126.796875 C 111.851562 130.710938 103.785156 130.710938 96.242188 127.546875 C 89.226562 124.589844 82.597656 118.832031 78.070312 110.976562 L 77.875 110.617188 C 73.46875 102.832031 71.847656 94.34375 72.792969 86.890625 L 72.824219 86.683594 C 73.886719 78.660156 77.90625 71.761719 84.621094 67.878906 Z M 102.542969 77.714844 C 98.238281 75.914062 93.828125 75.796875 90.335938 77.804688 C 86.886719 79.785156 84.789062 83.609375 84.1875 88.167969 L 84.171875 88.316406 C 83.527344 93.414062 84.699219 99.355469 87.847656 104.917969 L 88.011719 105.1875 C 91.28125 110.839844 95.898438 114.917969 100.710938 116.945312 C 104.878906 118.699219 109.167969 118.847656 112.601562 117.003906 L 113.308594 116.613281 C 116.515625 114.574219 118.480469 110.871094 119.066406 106.492188 L 119.082031 106.34375 C 119.726562 101.242188 118.554688 95.320312 115.421875 89.757812 L 115.257812 89.488281 C 111.988281 83.832031 107.371094 79.753906 102.558594 77.714844 Z M 232.066406 23.386719 C 228.136719 22.773438 224.117188 24.390625 220.773438 27.480469 C 216.964844 31.019531 214.027344 36.417969 212.886719 42.851562 C 211.746094 49.285156 212.660156 55.386719 215.03125 60.023438 C 217.160156 64.160156 220.472656 67.070312 224.433594 67.773438 C 228.40625 68.480469 232.515625 66.875 235.917969 63.710938 L 236.203125 63.457031 C 239.847656 59.960938 242.652344 54.742188 243.789062 48.582031 L 243.882812 48.085938 C 244.945312 41.742188 244.03125 35.730469 241.675781 31.15625 C 239.59375 27.078125 236.355469 24.199219 232.484375 23.449219 L 232.066406 23.371094 Z M 212.992188 19.070312 C 218.972656 13.535156 226.5 10.761719 234.148438 12.066406 L 234.269531 12.082031 C 241.976562 13.429688 248.152344 18.621094 251.886719 25.90625 C 255.351562 32.640625 256.714844 41.261719 255.203125 50.140625 L 255.171875 50.304688 C 253.628906 59.046875 249.503906 66.605469 244.074219 71.792969 L 243.761719 72.125 C 237.746094 77.703125 230.175781 80.460938 222.484375 79.113281 C 214.789062 77.761719 208.597656 72.558594 204.863281 65.285156 C 201.386719 58.476562 200.007812 49.808594 201.582031 40.886719 C 203.15625 31.949219 207.414062 24.257812 213.023438 19.070312 Z M 163.523438 27.480469 C 160.179688 24.378906 156.144531 22.773438 152.230469 23.386719 L 151.8125 23.460938 C 147.945312 24.226562 144.71875 27.105469 142.621094 31.171875 C 140.265625 35.730469 139.351562 41.726562 140.417969 48.054688 L 140.507812 48.566406 C 141.660156 54.894531 144.585938 60.21875 148.347656 63.710938 C 151.753906 66.875 155.875 68.464844 159.851562 67.773438 C 163.734375 67.085938 166.988281 64.296875 169.101562 60.308594 L 169.238281 60.023438 C 171.621094 55.386719 172.535156 49.300781 171.394531 42.851562 C 170.257812 36.417969 167.316406 31.003906 163.507812 27.480469 Z M 163.523438 27.480469 "/></g></svg>