<svg xmlns="http://www.w3.org/2000/svg" version="1.1" viewBox="-5.0 -10.0 110.0 135.0">
 <path d="m78.949 38.156c-8.1172 0-14.473 3.4688-14.473 7.8945 0 1.4414 0.68359 2.7773 1.875 3.9297-1.2188 1.1758-1.875 2.5469-1.875 3.9648 0 1.4414 0.68359 2.7773 1.875 3.9297-1.2188 1.1758-1.875 2.5469-1.875 3.9648 0 1.4414 0.68359 2.7773 1.875 3.9297-1.2188 1.1758-1.875 2.5469-1.875 3.9648 0 1.4414 0.68359 2.7773 1.875 3.9297-1.2188 1.1758-1.875 2.5469-1.875 3.9648 0 4.4258 6.3594 7.8945 14.473 7.8945 8.1172 0 14.473-3.4688 14.473-7.8945 0-1.418-0.65625-2.7852-1.875-3.9648 1.1914-1.1523 1.875-2.4883 1.875-3.9297 0-1.418-0.65625-2.7852-1.875-3.9648 1.1914-1.1523 1.875-2.4883 1.875-3.9297 0-1.418-0.65625-2.7852-1.875-3.9648 1.1914-1.1523 1.875-2.4883 1.875-3.9297 0-1.418-0.65625-2.7852-1.875-3.9648 1.1914-1.1523 1.875-2.4883 1.875-3.9297 0-4.4258-6.3594-7.8945-14.473-7.8945zm0 44.738c-6.9805 0-11.844-2.7734-11.844-5.2617 0-0.97656 0.72656-1.8086 1.4141-2.3789 2.6133 1.4727 6.2891 2.3789 10.43 2.3789s7.8164-0.90625 10.43-2.3789c0.6875 0.56641 1.4141 1.3984 1.4141 2.3789 0 2.4883-4.8633 5.2617-11.844 5.2617zm9.793-10.309c-0.007813 0.003906-0.011719 0.007812-0.019532 0.011718-2.0586 1.3711-5.5195 2.4023-9.7773 2.4023-4.2539 0-7.7148-1.0312-9.7734-2.4023-0.007813-0.003906-0.011719-0.007812-0.019531-0.011718-1.3047-0.875-2.0469-1.8828-2.0469-2.8477 0-0.97656 0.72656-1.8086 1.4141-2.3789 2.6133 1.4727 6.2891 2.3789 10.43 2.3789s7.8164-0.90625 10.43-2.3789c0.6875 0.56641 1.4141 1.3984 1.4141 2.3789 0 0.96484-0.74219 1.9727-2.0469 2.8477zm0-7.8945c-0.007813 0.003906-0.011719 0.007813-0.019532 0.011719-2.0586 1.3711-5.5195 2.4023-9.7773 2.4023-4.2539 0-7.7148-1.0352-9.7773-2.4023-0.007813-0.003906-0.011719-0.007813-0.019531-0.011719-1.3047-0.875-2.0469-1.8828-2.0469-2.8477 0-0.97656 0.72656-1.8086 1.4141-2.3789 2.6133 1.4727 6.2891 2.3789 10.43 2.3789 4.1406 0 7.8164-0.90625 10.43-2.3789 0.6875 0.56641 1.4141 1.3984 1.4141 2.3789 0 0.96875-0.74219 1.9766-2.0469 2.8477zm0-7.8984c-0.007813 0.003906-0.011719 0.007812-0.019532 0.011719-2.0586 1.3711-5.5195 2.4023-9.7773 2.4023-4.2539 0-7.7148-1.0312-9.7734-2.4023-0.007813-0.003907-0.015625-0.007813-0.023437-0.015626-1.3047-0.875-2.0469-1.8789-2.0469-2.8477 0-0.97656 0.72656-1.8086 1.4141-2.3789 2.6133 1.4727 6.2891 2.3789 10.43 2.3789 4.1406 0 7.8164-0.90625 10.43-2.3789 0.6875 0.56641 1.4141 1.3984 1.4141 2.3789 0 0.96484-0.74219 1.9727-2.0469 2.8477zm0-7.8945c-0.007813 0.003906-0.015626 0.007812-0.019532 0.011718-2.0586 1.3711-5.5195 2.4023-9.7734 2.4023-4.2539 0-7.7148-1.0312-9.7734-2.4023-0.007812-0.003906-0.015625-0.007812-0.023437-0.015625-1.3047-0.875-2.0469-1.8789-2.0469-2.8477 0-2.4883 4.8633-5.2617 11.844-5.2617s11.844 2.7734 11.844 5.2617c0 0.96484-0.74219 1.9727-2.0469 2.8477z"/>
 <path d="m62.379 50.027c0.72656-0.019532 1.3008-0.625 1.2773-1.3516-0.019531-0.72656-0.64062-1.3242-1.3516-1.2773-7.7656 0.22266-13.621 3.6055-13.621 7.8672 0 1.4141 0.64844 2.7773 1.8555 3.9492-1.207 1.1719-1.8555 2.5352-1.8555 3.9453 0 1.4141 0.64844 2.7773 1.8555 3.9492-1.207 1.1719-1.8555 2.5352-1.8555 3.9453 0 4.1758 5.5078 7.4766 13.094 7.8555h0.066406c0.69531 0 1.2773-0.54688 1.3125-1.25 0.035156-0.72656-0.52344-1.3438-1.25-1.3789-6.3359-0.3125-10.594-2.957-10.594-5.2266 0-0.97266 0.71875-1.8008 1.4023-2.3672 2.3672 1.332 5.5352 2.1562 9.0586 2.3281h0.066406c0.69531 0 1.2773-0.54688 1.3125-1.25 0.035156-0.72656-0.52344-1.3438-1.25-1.3789-3.4102-0.16797-6.5156-1.0312-8.5273-2.3711 0 0-0.003906 0-0.003906-0.003906 0 0-0.003906 0-0.003906-0.003907-0.76563-0.50391-2.0508-1.5469-2.0508-2.8477 0-0.97266 0.71875-1.8008 1.4023-2.3672 2.3672 1.332 5.5352 2.1562 9.0586 2.3281h0.066406c0.69531 0 1.2773-0.54688 1.3125-1.25 0.035156-0.72656-0.52344-1.3438-1.25-1.3789-3.4102-0.16797-6.5156-1.0273-8.5312-2.3711 0 0-0.003906 0-0.003906-0.003906 0 0-0.003906-0.003907-0.003906-0.003907-0.76563-0.50391-2.0508-1.5469-2.0508-2.8477 0-2.375 4.4453-5.0469 11.062-5.2383z"/>
 <path d="m10.527 67.105h36.012c0.72656 0 1.3164-0.58984 1.3164-1.3164 0-0.72656-0.58984-1.3164-1.3164-1.3164h-36.012c-0.72656 0-1.3164-0.58984-1.3164-1.3164v-31.578c0-0.72656 0.58984-1.3164 1.3164-1.3164h60.527c0.72656 0 1.3164 0.58984 1.3164 1.3164v4.3945c0 0.72656 0.58984 1.3164 1.3164 1.3164s1.3164-0.58984 1.3164-1.3164v-4.3945c0-2.1758-1.7695-3.9492-3.9492-3.9492l-55.266 0.003906v-2.6328c0-0.72656 0.58984-1.3164 1.3164-1.3164h60.527c0.72656 0 1.3164 0.58984 1.3164 1.3164v10.551c0 0.72656 0.58984 1.3164 1.3164 1.3164s1.3164-0.58984 1.3164-1.3164v-10.551c0-2.1758-1.7695-3.9492-3.9492-3.9492h-55.266v-2.6328c0-0.72656 0.58984-1.3164 1.3164-1.3164h60.527c0.72656 0 1.3164 0.58984 1.3164 1.3164v18.172c0 0.72656 0.58984 1.3164 1.3164 1.3164s1.3164-0.58984 1.3164-1.3164v-18.172c0-2.1758-1.7695-3.9492-3.9492-3.9492l-60.527 0.003906c-2.1758 0-3.9492 1.7695-3.9492 3.9492v2.6328h-2.6328c-2.1758 0-3.9492 1.7695-3.9492 3.9492v2.6328h-2.6328c-2.1758 0-3.9492 1.7695-3.9492 3.9492v31.578c0 2.1758 1.7695 3.9492 3.9492 3.9492z"/>
 <path d="m67.492 39.066c0.6875 0.24609 1.4375-0.11328 1.6797-0.79688 0.24609-0.68359-0.11328-1.4375-0.79688-1.6836-1.5469-0.55078-2.5859-2.0391-2.5859-3.6953 0-0.72656-0.58984-1.3164-1.3164-1.3164l-47.367 0.003906c-0.72656 0-1.3164 0.58984-1.3164 1.3164 0 2.1758-1.7695 3.9492-3.9492 3.9492-0.72656 0-1.3164 0.58984-1.3164 1.3164v18.422c0 0.72656 0.58984 1.3164 1.3164 1.3164 2.1758 0 3.9492 1.7695 3.9492 3.9492 0 0.72656 0.58984 1.3164 1.3164 1.3164h29.066c0.72656 0 1.3164-0.58984 1.3164-1.3164 0-0.72656-0.58984-1.3164-1.3164-1.3164l-27.883-0.003906c-0.52344-2.5742-2.5586-4.6055-5.1289-5.1289v-16.055c2.5742-0.52344 4.6055-2.5586 5.1289-5.1289h45.004c0.45312 2.2148 2.0273 4.082 4.1992 4.8594z"/>
 <path d="m40.789 39.473c-4.3516 0-7.8945 3.543-7.8945 7.8945 0 4.3516 3.543 7.8945 7.8945 7.8945 4.3516 0 7.8945-3.543 7.8945-7.8945 0-4.3516-3.543-7.8945-7.8945-7.8945zm0 13.16c-2.9023 0-5.2617-2.3594-5.2617-5.2617s2.3594-5.2617 5.2617-5.2617c2.9023 0 5.2617 2.3594 5.2617 5.2617s-2.3594 5.2617-5.2617 5.2617z"/>
<text x="0.0" y="117.5" font-size="5.0" font-weight="bold" font-family="Arbeit Regular, Helvetica, Arial-Unicode, Arial, Sans-serif" fill="#000000">Created by I Putu Dicky Adi Pranatha</text><text x="0.0" y="122.5" font-size="5.0" font-weight="bold" font-family="Arbeit Regular, Helvetica, Arial-Unicode, Arial, Sans-serif" fill="#000000">from Noun Project</text></svg>