<svg xmlns="http://www.w3.org/2000/svg" xmlns:xlink="http://www.w3.org/1999/xlink" width="512" zoomAndPan="magnify" viewBox="0 0 384 383.999986" height="512" preserveAspectRatio="xMidYMid meet" version="1.2"><g id="c8efdcdcbc"><path style=" stroke:none;fill-rule:nonzero;fill:#000000;fill-opacity:1;" d="M 331.984375 92.359375 L 331.984375 72.972656 C 331.984375 70.355469 330.359375 68.007812 327.914062 67.074219 L 194.320312 16.226562 C 192.886719 15.675781 191.277344 15.675781 189.84375 16.226562 L 56.246094 67.074219 C 53.800781 68.007812 52.179688 70.355469 52.179688 72.972656 L 52.179688 237.695312 C 52.035156 267.0625 64.160156 295.167969 85.636719 315.230469 C 115.421875 342.71875 152.285156 361.378906 192.078125 369.105469 C 231.875 361.394531 268.738281 342.738281 298.523438 315.230469 C 319.980469 295.183594 332.121094 267.0625 331.980469 237.695312 L 331.980469 117.59375 C 331.980469 114.125 329.15625 111.285156 325.671875 111.285156 C 322.1875 111.285156 319.367188 114.125 319.367188 117.59375 L 319.367188 237.695312 C 319.507812 263.546875 308.851562 288.289062 289.976562 305.9375 C 262.496094 331.269531 228.660156 348.695312 192.078125 356.359375 C 155.5 348.695312 121.664062 331.265625 94.179688 305.9375 C 75.308594 288.273438 64.648438 263.542969 64.792969 237.695312 L 64.792969 77.328125 L 192.078125 28.875 L 319.363281 77.328125 L 319.363281 92.359375 C 319.429688 95.8125 322.21875 98.554688 325.671875 98.554688 C 329.109375 98.554688 331.914062 95.8125 331.980469 92.359375 Z M 331.984375 92.359375 "/><path style=" stroke:none;fill-rule:nonzero;fill:#000000;fill-opacity:1;" d="M 114.871094 298.953125 C 112.742188 301.710938 113.261719 305.671875 116.023438 307.800781 C 138.378906 325.210938 164.378906 337.355469 192.082031 343.304688 C 225.476562 335.96875 256.320312 319.867188 281.4375 296.664062 C 297.722656 281.398438 306.902344 260.011719 306.742188 237.695312 L 306.742188 90.390625 C 306.742188 87.769531 305.117188 85.421875 302.675781 84.492188 L 194.324219 43.230469 C 192.886719 42.679688 191.28125 42.679688 189.84375 43.230469 L 81.492188 84.492188 C 79.046875 85.421875 77.425781 87.769531 77.425781 90.390625 L 77.425781 237.695312 C 77.332031 256.8125 84.03125 275.34375 96.328125 289.980469 C 98.601562 292.628906 102.574219 292.960938 105.222656 290.6875 C 107.886719 288.433594 108.203125 284.457031 105.949219 281.792969 C 95.574219 269.445312 89.945312 253.8125 90.039062 237.695312 L 90.039062 94.742188 L 192.082031 55.878906 L 294.125 94.742188 L 294.125 237.695312 C 294.28125 256.496094 286.589844 274.507812 272.886719 287.378906 C 250.054688 308.402344 222.242188 323.257812 192.078125 330.515625 C 167.230469 324.601562 143.925781 313.449219 123.710938 297.804688 C 122.386719 296.777344 120.714844 296.320312 119.042969 296.542969 C 117.386719 296.761719 115.890625 297.628906 114.867188 298.957031 Z M 114.871094 298.953125 "/><path style=" stroke:none;fill-rule:nonzero;fill:#000000;fill-opacity:1;" d="M 176.253906 158.554688 C 172.800781 158.238281 169.726562 160.792969 169.410156 164.261719 L 160.769531 259.097656 C 160.5 261.953125 161.242188 264.824219 162.867188 267.1875 L 181.550781 295.261719 C 183.867188 298.8125 187.808594 300.957031 192.050781 300.972656 C 196.277344 300.972656 200.234375 298.859375 202.566406 295.328125 L 221.253906 267.238281 C 222.90625 264.855469 223.664062 261.96875 223.394531 259.082031 L 211.144531 124.28125 L 218.429688 109.769531 C 220.367188 105.84375 220.148438 101.207031 217.847656 97.484375 C 215.527344 93.777344 211.460938 91.507812 207.09375 91.523438 L 177.074219 91.523438 C 172.6875 91.507812 168.621094 93.777344 166.304688 97.5 C 164 101.238281 163.796875 105.890625 165.75 109.816406 L 173.019531 124.296875 L 171.664062 138.835938 L 171.664062 138.820312 C 171.347656 142.292969 173.902344 145.367188 177.371094 145.683594 C 179.042969 145.886719 180.730469 145.382812 182.023438 144.308594 C 183.316406 143.238281 184.121094 141.675781 184.230469 139.988281 L 185.207031 129.375 L 198.925781 129.375 L 210.796875 260.183594 L 192.097656 288.320312 L 173.335938 260.214844 L 181.976562 165.398438 C 182.277344 161.925781 179.722656 158.867188 176.253906 158.550781 Z M 207.125 104.15625 L 200.800781 116.757812 L 183.363281 116.757812 L 177.070312 104.140625 Z M 207.125 104.15625 "/></g></svg>