<svg xmlns="http://www.w3.org/2000/svg" xmlns:xlink="http://www.w3.org/1999/xlink" width="512" zoomAndPan="magnify" viewBox="0 0 384 383.999986" height="512" preserveAspectRatio="xMidYMid meet" version="1.2"><g id="6c8183c35d"><path style=" stroke:none;fill-rule:nonzero;fill:#000000;fill-opacity:1;" d="M 346.535156 282.6875 C 344.765625 285.328125 341.179688 286.019531 338.558594 284.25 C 335.917969 282.480469 335.230469 278.894531 337 276.269531 C 342.125 268.683594 346.234375 260.40625 349.023438 251.273438 C 351.828125 242.125 353.371094 231.976562 353.371094 220.609375 L 353.371094 185.953125 C 339.90625 181.859375 327.054688 177.136719 315.089844 171.078125 C 303.335938 165.109375 292.402344 157.851562 282.507812 148.613281 C 272.625 157.867188 261.679688 165.125 249.921875 171.078125 C 237.957031 177.152344 225.109375 181.875 211.640625 185.953125 L 211.640625 220.609375 C 211.640625 246.550781 219.785156 266.390625 232.890625 282.929688 C 245.605469 298.972656 263.132812 312.152344 282.507812 324.808594 C 286.691406 322.082031 290.800781 319.320312 294.742188 316.53125 C 299.722656 313.023438 304.476562 309.484375 308.914062 305.871094 C 311.371094 303.875 314.984375 304.234375 316.996094 306.695312 C 318.988281 309.15625 318.628906 312.769531 316.171875 314.777344 C 311.386719 318.660156 306.4375 322.367188 301.355469 325.933594 C 296.273438 329.519531 291.023438 333.011719 285.6875 336.445312 C 283.84375 337.675781 281.367188 337.765625 279.390625 336.492188 C 257.886719 322.636719 238.257812 308.210938 223.878906 290.078125 C 216.769531 281.128906 210.96875 271.304688 206.875 260.285156 C 202.902344 262.457031 198.835938 264.585938 194.683594 266.703125 C 188.550781 269.820312 182.042969 272.953125 175.191406 276.074219 C 173.617188 276.792969 171.890625 276.734375 170.421875 276.074219 C 141.257812 262.757812 117.101562 248.675781 97.324219 234.328125 C 75.445312 218.445312 58.832031 202.144531 46.6875 186.101562 C 44.785156 183.570312 45.277344 179.953125 47.8125 178.050781 C 50.347656 176.144531 53.960938 176.640625 55.863281 179.175781 C 67.335938 194.351562 83.15625 209.824219 104.074219 225.015625 C 122.773438 238.585938 145.519531 251.917969 172.808594 264.542969 C 178.507812 261.917969 184.085938 259.203125 189.511719 256.445312 C 194.339844 254 198.976562 251.542969 203.429688 249.082031 C 201.269531 240.355469 200.097656 230.90625 200.097656 220.605469 L 200.097656 181.675781 C 200.128906 179.1875 201.75 176.890625 204.269531 176.171875 C 218.558594 171.988281 232.171875 167.175781 244.738281 160.816406 C 257.078125 154.5625 268.414062 146.78125 278.386719 136.570312 L 278.507812 136.449219 C 280.769531 134.246094 284.414062 134.289062 286.632812 136.570312 C 292.570312 142.65625 299.003906 147.875 305.839844 152.433594 C 318.945312 123.269531 316.59375 96.757812 305.183594 77.710938 C 299.769531 68.667969 292.316406 61.292969 283.53125 56.117188 C 274.742188 50.945312 264.605469 47.960938 253.824219 47.707031 C 229.203125 47.105469 201.121094 60.707031 177.578125 94.699219 C 177.1875 95.269531 176.695312 95.78125 176.09375 96.199219 C 173.484375 98 169.914062 97.339844 168.117188 94.730469 C 148.730469 66.71875 126.269531 52.535156 105.183594 48.742188 C 92.78125 46.523438 80.832031 47.886719 70.273438 52.128906 C 59.761719 56.359375 50.617188 63.464844 43.808594 72.71875 C 33.207031 87.144531 28.214844 106.820312 32.367188 129.117188 C 32.9375 132.234375 30.867188 135.234375 27.75 135.789062 C 24.632812 136.359375 21.632812 134.289062 21.078125 131.171875 C 16.308594 105.542969 22.15625 82.75 34.527344 65.925781 C 42.609375 54.933594 53.480469 46.492188 65.984375 41.453125 C 78.460938 36.429688 92.570312 34.824219 107.175781 37.449219 C 129.308594 41.421875 152.5625 55.1875 172.824219 81.699219 C 197.925781 48.828125 227.585938 35.570312 254.09375 36.214844 C 266.871094 36.53125 278.910156 40.070312 289.332031 46.21875 C 299.769531 52.367188 308.613281 61.109375 315.03125 71.800781 C 328.410156 94.128906 331.210938 124.976562 315.738281 158.402344 C 317.238281 159.226562 318.738281 160.019531 320.265625 160.800781 C 332.683594 167.082031 346.117188 171.867188 360.242188 176.019531 C 362.878906 176.546875 364.890625 178.871094 364.890625 181.675781 L 364.890625 220.605469 C 364.890625 233.066406 363.152344 244.34375 360 254.644531 C 356.839844 264.960938 352.25 274.242188 346.535156 282.6875 Z M 28.964844 158.988281 C 25.785156 158.988281 23.207031 156.410156 23.207031 153.230469 C 23.207031 150.050781 25.785156 147.472656 28.964844 147.472656 L 91.578125 147.472656 L 103.214844 128.96875 C 104.894531 126.285156 108.449219 125.476562 111.132812 127.167969 C 111.914062 127.664062 112.542969 128.308594 112.992188 129.058594 L 120.804688 141.460938 L 136.578125 109.203125 C 137.972656 106.355469 141.40625 105.1875 144.257812 106.582031 C 145.546875 107.210938 146.503906 108.273438 147.015625 109.503906 L 177.753906 182.324219 L 198.746094 148.644531 C 199.84375 146.90625 201.714844 145.929688 203.636719 145.929688 L 226.59375 145.914062 C 229.769531 145.914062 232.351562 148.496094 232.351562 151.671875 C 232.351562 154.851562 229.769531 157.433594 226.59375 157.433594 L 206.828125 157.433594 L 181.667969 197.785156 C 181.054688 198.746094 180.152344 199.554688 179.015625 200.035156 C 176.105469 201.265625 172.730469 199.886719 171.503906 196.976562 L 141.363281 125.566406 L 126.742188 155.46875 C 126.308594 156.515625 125.542969 157.445312 124.507812 158.089844 C 121.824219 159.769531 118.269531 158.976562 116.589844 156.292969 L 108.089844 142.8125 L 99.828125 155.945312 C 98.851562 157.761719 96.949219 158.992188 94.746094 158.992188 Z M 267.425781 217.546875 L 267.425781 198.234375 C 267.425781 195.054688 270.003906 192.476562 273.183594 192.476562 L 291.851562 192.476562 C 295.03125 192.476562 297.609375 195.054688 297.609375 198.234375 L 297.609375 217.546875 L 316.921875 217.546875 C 320.101562 217.546875 322.679688 220.125 322.679688 223.304688 L 322.679688 241.960938 C 322.679688 245.140625 320.101562 247.71875 316.921875 247.71875 L 297.609375 247.71875 L 297.609375 267.03125 C 297.609375 270.210938 295.03125 272.792969 291.851562 272.792969 L 273.183594 272.792969 C 270.003906 272.792969 267.425781 270.210938 267.425781 267.03125 L 267.425781 247.71875 L 248.109375 247.71875 C 244.933594 247.71875 242.351562 245.140625 242.351562 241.960938 L 242.351562 223.304688 C 242.351562 220.125 244.933594 217.546875 248.109375 217.546875 Z M 278.941406 203.992188 L 278.941406 223.304688 C 278.941406 226.484375 276.359375 229.0625 273.183594 229.0625 L 253.871094 229.0625 L 253.871094 236.203125 L 273.183594 236.203125 C 276.359375 236.203125 278.941406 238.78125 278.941406 241.960938 L 278.941406 261.273438 L 286.09375 261.273438 L 286.09375 241.960938 C 286.09375 238.78125 288.671875 236.203125 291.851562 236.203125 L 311.164062 236.203125 L 311.164062 229.0625 L 291.851562 229.0625 C 288.671875 229.0625 286.09375 226.484375 286.09375 223.304688 L 286.09375 203.992188 Z M 332.113281 300.308594 C 329.921875 302.589844 326.28125 302.664062 323.984375 300.472656 C 321.707031 298.285156 321.632812 294.640625 323.820312 292.347656 L 324.421875 291.730469 C 326.609375 289.453125 330.253906 289.378906 332.546875 291.566406 C 334.828125 293.753906 334.902344 297.398438 332.710938 299.695312 Z M 332.113281 300.308594 "/></g></svg>