<svg xmlns="http://www.w3.org/2000/svg" xmlns:xlink="http://www.w3.org/1999/xlink" width="512" zoomAndPan="magnify" viewBox="0 0 384 383.999986" height="512" preserveAspectRatio="xMidYMid meet" version="1.2"><g id="fa489960cf"><path style=" stroke:none;fill-rule:nonzero;fill:#000000;fill-opacity:1;" d="M 242.378906 180.8125 C 243.054688 181.101562 243.769531 181.246094 244.484375 181.246094 C 245.199219 181.246094 245.914062 181.101562 246.585938 180.8125 C 257.851562 175.914062 278.753906 164.003906 292.257812 139.125 C 304.605469 116.21875 304.660156 93.46875 302.527344 78.4375 C 302.171875 75.921875 300.078125 74.015625 297.550781 73.882812 C 286.140625 73.328125 275.113281 70.617188 264.789062 65.8125 C 258.765625 63.007812 253.035156 59.484375 247.753906 55.332031 C 245.835938 53.824219 243.132812 53.824219 241.214844 55.332031 C 235.945312 59.472656 230.203125 63.007812 224.164062 65.824219 C 213.839844 70.617188 202.828125 73.328125 191.417969 73.882812 C 188.875 74.003906 186.785156 75.921875 186.441406 78.4375 C 184.308594 93.484375 184.347656 116.21875 196.699219 139.097656 C 210.214844 164.003906 231.128906 175.914062 242.390625 180.808594 Z M 196.421875 84.140625 C 207.605469 83.097656 218.421875 80.171875 228.640625 75.421875 C 234.1875 72.828125 239.507812 69.703125 244.484375 66.117188 C 249.476562 69.71875 254.796875 72.839844 260.328125 75.40625 C 270.546875 80.160156 281.375 83.082031 292.5625 84.128906 C 293.859375 97.429688 292.839844 115.742188 282.964844 134.070312 C 271.78125 154.6875 254.847656 165.273438 244.496094 170.132812 C 234.144531 165.277344 217.203125 154.675781 206.003906 134.058594 C 196.128906 115.746094 195.125 97.433594 196.421875 84.144531 Z M 196.421875 84.140625 "/><path style=" stroke:none;fill-rule:nonzero;fill:#000000;fill-opacity:1;" d="M 74.375 310.511719 L 85.191406 310.511719 L 85.191406 332.292969 C 85.191406 338.882812 90.550781 344.242188 97.144531 344.242188 L 132.605469 344.242188 C 139.199219 344.242188 144.558594 338.882812 144.558594 332.292969 L 144.558594 310.511719 L 219.136719 310.511719 L 219.136719 332.292969 C 219.136719 338.882812 224.496094 344.242188 231.089844 344.242188 L 266.550781 344.242188 C 273.140625 344.242188 278.503906 338.882812 278.503906 332.292969 L 278.503906 310.511719 L 289.316406 310.511719 C 293.621094 310.511719 297.761719 308.683594 300.648438 305.496094 C 303.546875 302.304688 304.964844 298.03125 304.566406 293.746094 L 298.214844 227.257812 C 297.457031 219.359375 290.90625 213.40625 282.964844 213.40625 L 274.851562 213.40625 L 272.320312 190.65625 C 284.101562 182.769531 299.40625 169.484375 310.75 148.628906 C 310.75 148.628906 310.75 148.613281 310.761719 148.613281 C 331.730469 109.710938 324.753906 72.019531 320.78125 57.636719 C 320.105469 55.175781 317.738281 53.519531 315.222656 53.773438 C 300.792969 55.042969 286.339844 52.542969 273.421875 46.535156 C 264.074219 42.179688 255.65625 36.054688 248.363281 28.324219 C 247.359375 27.265625 245.96875 26.65625 244.511719 26.65625 C 243.054688 26.65625 241.664062 27.253906 240.660156 28.3125 C 234.464844 34.863281 227.476562 40.273438 219.917969 44.363281 C 218.515625 45.117188 217.113281 45.820312 215.601562 46.519531 C 202.671875 52.527344 188.203125 55.03125 173.800781 53.773438 C 171.207031 53.5625 168.902344 55.175781 168.226562 57.636719 C 164.851562 69.890625 158.910156 100.738281 171.867188 134.640625 L 114.074219 134.640625 C 104.648438 134.640625 96.761719 141.695312 95.714844 151.0625 L 94.789062 159.53125 C 94.789062 159.53125 94.773438 159.558594 94.773438 159.585938 L 94.773438 159.597656 L 88.832031 213.433594 L 80.730469 213.433594 C 72.789062 213.433594 66.238281 219.386719 65.480469 227.289062 L 59.128906 293.773438 C 58.71875 298.0625 60.148438 302.347656 63.046875 305.523438 C 65.945312 308.714844 70.074219 310.539062 74.378906 310.539062 Z M 133.941406 332.292969 C 133.941406 333.046875 133.332031 333.65625 132.578125 333.65625 L 97.117188 333.65625 C 96.363281 333.65625 95.753906 333.046875 95.753906 332.292969 L 95.753906 310.511719 L 133.929688 310.511719 L 133.929688 332.292969 Z M 267.886719 332.292969 C 267.886719 333.046875 267.277344 333.65625 266.519531 333.65625 L 231.058594 333.65625 C 230.304688 333.65625 229.695312 333.046875 229.695312 332.292969 L 229.695312 310.511719 L 267.871094 310.511719 L 267.871094 332.292969 Z M 177.371094 64.582031 C 192.144531 65.179688 206.785156 62.265625 220.046875 56.101562 C 221.742188 55.320312 223.316406 54.527344 224.917969 53.664062 C 231.949219 49.855469 238.5 45.078125 244.484375 39.414062 C 251.777344 46.320312 259.96875 51.917969 268.917969 56.085938 C 282.179688 62.253906 296.820312 65.140625 311.59375 64.570312 C 315.128906 79.921875 318.796875 111.296875 301.414062 143.546875 C 290.257812 164.058594 274.835938 176.601562 263.808594 183.550781 C 257.667969 187.496094 251.179688 190.804688 244.480469 193.371094 C 237.863281 190.828125 231.390625 187.546875 225.195312 183.578125 C 214.183594 176.667969 198.710938 164.125 187.550781 143.5625 C 186.480469 141.578125 185.511719 139.578125 184.585938 137.632812 C 170.609375 107.394531 174.101562 78.757812 177.359375 64.574219 Z M 100.480469 204.339844 L 130.871094 204.339844 C 133.796875 204.339844 136.167969 201.972656 136.167969 199.046875 C 136.167969 196.125 133.796875 193.753906 130.871094 193.753906 L 101.644531 193.753906 L 102.652344 184.597656 L 125.257812 184.597656 C 128.183594 184.597656 130.554688 182.230469 130.554688 179.304688 C 130.554688 176.378906 128.183594 174.011719 125.257812 174.011719 L 103.828125 174.011719 L 104.835938 164.851562 L 119.699219 164.851562 C 122.625 164.851562 124.996094 162.484375 124.996094 159.558594 C 124.996094 156.636719 122.625 154.265625 119.699219 154.265625 L 106 154.265625 L 106.222656 152.214844 C 106.675781 148.21875 110.035156 145.214844 114.0625 145.214844 L 176.484375 145.214844 C 177.042969 146.339844 177.625 147.476562 178.246094 148.617188 C 190.503906 171.21875 207.5 184.992188 219.546875 192.539062 C 226.90625 197.261719 234.691406 201.125 242.699219 204.023438 C 243.28125 204.234375 243.890625 204.34375 244.5 204.34375 C 245.109375 204.34375 245.714844 204.234375 246.296875 204.023438 C 248.761719 203.125 251.195312 202.117188 253.605469 201.058594 C 254.292969 200.753906 254.96875 200.4375 255.644531 200.121094 C 257.484375 199.261719 259.296875 198.359375 261.085938 197.40625 C 261.496094 197.195312 261.917969 197.011719 262.328125 196.785156 L 264.183594 213.40625 L 99.476562 213.394531 Z M 76.015625 228.265625 C 76.253906 225.832031 78.269531 223.992188 80.730469 223.992188 L 282.949219 223.992188 C 285.398438 223.992188 287.425781 225.832031 287.664062 228.265625 L 294.015625 294.753906 C 294.148438 296.089844 293.710938 297.386719 292.8125 298.378906 C 291.910156 299.371094 290.667969 299.925781 289.316406 299.925781 L 74.375 299.914062 C 73.027344 299.914062 71.78125 299.355469 70.882812 298.363281 C 69.980469 297.371094 69.542969 296.074219 69.675781 294.738281 L 76.03125 228.253906 Z M 76.015625 228.265625 "/><path style=" stroke:none;fill-rule:nonzero;fill:#000000;fill-opacity:1;" d="M 114.855469 288.53125 C 129.519531 288.53125 141.433594 276.609375 141.433594 261.957031 C 141.433594 247.296875 129.507812 235.386719 114.855469 235.386719 C 100.1875 235.386719 88.261719 247.308594 88.261719 261.957031 C 88.261719 276.621094 100.1875 288.53125 114.855469 288.53125 Z M 114.855469 245.960938 C 123.667969 245.960938 130.84375 253.132812 130.84375 261.945312 C 130.84375 270.761719 123.667969 277.933594 114.855469 277.933594 C 106.039062 277.933594 98.851562 270.761719 98.851562 261.945312 C 98.851562 253.132812 106.023438 245.960938 114.855469 245.960938 Z M 114.855469 245.960938 "/><path style=" stroke:none;fill-rule:nonzero;fill:#000000;fill-opacity:1;" d="M 248.796875 288.53125 C 263.464844 288.53125 275.390625 276.609375 275.390625 261.957031 C 275.390625 247.296875 263.464844 235.386719 248.796875 235.386719 C 234.128906 235.386719 222.214844 247.308594 222.214844 261.957031 C 222.214844 276.621094 234.144531 288.53125 248.796875 288.53125 Z M 248.796875 245.960938 C 257.625 245.960938 264.800781 253.132812 264.800781 261.945312 C 264.800781 270.761719 257.625 277.933594 248.796875 277.933594 C 239.96875 277.933594 232.804688 270.761719 232.804688 261.945312 C 232.804688 253.132812 239.980469 245.960938 248.796875 245.960938 Z M 248.796875 245.960938 "/><path style=" stroke:none;fill-rule:nonzero;fill:#000000;fill-opacity:1;" d="M 238.460938 161.382812 C 239.375 162.003906 240.40625 162.296875 241.441406 162.296875 C 243.132812 162.296875 244.800781 161.488281 245.820312 159.980469 C 247.460938 157.558594 246.839844 154.261719 244.417969 152.621094 C 241.980469 150.953125 239.601562 149.128906 237.375 147.195312 C 235.164062 145.277344 231.816406 145.515625 229.910156 147.726562 C 227.992188 149.933594 228.230469 153.269531 230.441406 155.1875 C 232.980469 157.398438 235.683594 159.476562 238.476562 161.367188 Z M 238.460938 161.382812 "/><path style=" stroke:none;fill-rule:nonzero;fill:#000000;fill-opacity:1;" d="M 214.050781 136.054688 C 215.054688 137.671875 216.777344 138.542969 218.550781 138.542969 C 219.503906 138.542969 220.484375 138.277344 221.34375 137.734375 C 223.832031 136.1875 224.574219 132.917969 223.039062 130.445312 C 221.675781 128.261719 220.417969 126 219.304688 123.695312 C 214.722656 114.273438 212.15625 103.6875 211.890625 93.101562 C 211.8125 90.175781 209.5625 87.726562 206.464844 87.9375 C 203.539062 88.019531 201.234375 90.441406 201.300781 93.363281 C 201.59375 105.460938 204.53125 117.554688 209.773438 128.328125 C 211.042969 130.945312 212.488281 133.539062 214.050781 136.042969 Z M 214.050781 136.054688 "/><path style=" stroke:none;fill-rule:nonzero;fill:#000000;fill-opacity:1;" d="M 155.09375 193.753906 L 145.867188 193.753906 C 142.941406 193.753906 140.574219 196.121094 140.574219 199.046875 C 140.574219 201.96875 142.941406 204.339844 145.867188 204.339844 L 155.09375 204.339844 C 158.019531 204.339844 160.390625 201.96875 160.390625 199.046875 C 160.390625 196.121094 158.019531 193.753906 155.09375 193.753906 Z M 155.09375 193.753906 "/><path style=" stroke:none;fill-rule:nonzero;fill:#000000;fill-opacity:1;" d="M 154.816406 179.304688 C 154.816406 176.378906 152.445312 174.011719 149.519531 174.011719 L 140.296875 174.011719 C 137.371094 174.011719 135 176.378906 135 179.304688 C 135 182.226562 137.371094 184.597656 140.296875 184.597656 L 149.519531 184.597656 C 152.445312 184.597656 154.816406 182.226562 154.816406 179.304688 Z M 154.816406 179.304688 "/><path style=" stroke:none;fill-rule:nonzero;fill:#000000;fill-opacity:1;" d="M 149.242188 159.554688 C 149.242188 156.632812 146.871094 154.261719 143.945312 154.261719 L 134.722656 154.261719 C 131.796875 154.261719 129.425781 156.632812 129.425781 159.554688 C 129.425781 162.480469 131.796875 164.851562 134.722656 164.851562 L 143.945312 164.851562 C 146.871094 164.851562 149.242188 162.480469 149.242188 159.554688 Z M 149.242188 159.554688 "/></g></svg>