<svg xmlns="http://www.w3.org/2000/svg" xmlns:xlink="http://www.w3.org/1999/xlink" width="512" zoomAndPan="magnify" viewBox="0 0 384 383.999986" height="512" preserveAspectRatio="xMidYMid meet" version="1.2"><g id="5617de86b5"><path style=" stroke:none;fill-rule:nonzero;fill:#000000;fill-opacity:1;" d="M 155.179688 39.257812 C 161.90625 38.109375 168.507812 40.535156 173.78125 45.40625 C 178.699219 49.964844 182.457031 56.722656 183.84375 64.574219 C 185.226562 72.425781 184.027344 80.050781 180.953125 86.003906 L 180.796875 86.28125 C 177.488281 92.527344 172.121094 96.980469 165.464844 98.152344 C 158.714844 99.335938 152.054688 96.914062 146.769531 92.011719 C 141.851562 87.453125 138.09375 80.695312 136.710938 72.847656 C 135.324219 64.980469 136.527344 57.355469 139.597656 51.402344 C 142.878906 45 148.3125 40.453125 155.089844 39.253906 L 155.195312 39.242188 Z M 218.621094 326.855469 C 215.824219 326.855469 213.558594 324.589844 213.558594 321.796875 C 213.558594 319.003906 215.824219 316.738281 218.621094 316.738281 L 218.660156 316.738281 C 221.457031 316.738281 223.722656 319.003906 223.722656 321.796875 C 223.722656 324.589844 221.457031 326.855469 218.660156 326.855469 Z M 165.542969 326.855469 C 162.746094 326.855469 160.480469 324.589844 160.480469 321.796875 C 160.480469 319.003906 162.746094 316.738281 165.542969 316.738281 L 165.582031 316.738281 C 168.375 316.738281 170.644531 319.003906 170.644531 321.796875 C 170.644531 324.589844 168.375 326.855469 165.582031 326.855469 Z M 179.34375 160.535156 C 176.550781 160.535156 174.28125 158.269531 174.28125 155.480469 C 174.28125 152.6875 176.550781 150.421875 179.34375 150.421875 L 187.042969 150.421875 L 187.042969 142.742188 C 187.042969 139.949219 189.3125 137.683594 192.105469 137.683594 C 194.902344 137.683594 197.167969 139.949219 197.167969 142.742188 L 197.167969 150.421875 L 204.855469 150.421875 C 207.648438 150.421875 209.917969 152.6875 209.917969 155.480469 C 209.917969 158.269531 207.648438 160.535156 204.855469 160.535156 L 197.167969 160.535156 L 197.167969 168.230469 C 197.167969 171.023438 194.902344 173.289062 192.105469 173.289062 C 189.3125 173.289062 187.042969 171.023438 187.042969 168.230469 L 187.042969 160.535156 Z M 181.347656 336.246094 L 179.148438 308.03125 C 179.121094 307.6875 179.054688 307.382812 178.949219 307.160156 L 117.671875 307.160156 L 117.566406 308.03125 C 117.238281 312.269531 114.96875 334.046875 115.378906 336.390625 L 181.351562 336.390625 Z M 189.234375 307.292969 C 189.984375 316.933594 190.894531 326.695312 191.472656 336.335938 C 191.472656 338.972656 190.457031 341.382812 188.863281 343.1875 C 187.203125 345.070312 184.882812 346.296875 182.402344 346.492188 C 164.039062 344.453125 134.296875 346.929688 114.335938 346.492188 C 111.84375 346.296875 109.523438 345.058594 107.875 343.1875 C 106.28125 341.382812 105.265625 338.972656 105.265625 336.335938 C 106.308594 326.933594 106.757812 316.800781 107.496094 307.292969 C 107.730469 304.316406 108.667969 301.996094 110.105469 300.308594 C 111.832031 298.308594 114.019531 297.265625 116.472656 297.097656 L 116.472656 293.75 C 116.472656 291.855469 116.050781 290.128906 115.246094 288.652344 C 114.414062 287.164062 113.191406 285.859375 111.621094 284.859375 L 64.738281 254.96875 C 61.839844 253.125 59.4375 250.898438 57.539062 248.316406 C 55.628906 245.722656 54.230469 242.757812 53.347656 239.453125 L 32.214844 160.585938 C 31.382812 157.1875 31.964844 153.738281 33.613281 150.90625 C 35.285156 148.007812 38.09375 145.726562 41.574219 144.792969 C 42.011719 144.675781 42.445312 144.621094 42.878906 144.621094 C 46.03125 144.609375 49.078125 145.253906 51.6875 146.769531 L 52.015625 146.980469 C 54.390625 148.441406 56.289062 150.574219 57.476562 153.539062 C 61.273438 163.117188 65.703125 172.691406 70.605469 181.902344 C 72.238281 184.96875 73.914062 187.988281 75.640625 190.9375 L 76.0625 190.566406 C 78.632812 188.394531 82.074219 187.421875 85.53125 187.722656 C 88.800781 188 92.160156 189.433594 94.785156 192.070312 L 95.679688 193.070312 C 110.761719 211.023438 120.503906 213.660156 130.667969 216.386719 C 141.269531 219.230469 152.277344 222.195312 168.464844 238.371094 L 168.691406 238.609375 C 174.78125 244.722656 177.773438 255.085938 179.15625 266.902344 C 180.265625 276.425781 180.371094 287.085938 180.253906 297.09375 C 182.796875 297.292969 184.957031 298.53125 186.566406 300.414062 C 188.097656 302.234375 189.085938 304.683594 189.28125 307.292969 Z M 126.585938 297.054688 L 170.117188 297.054688 C 170.222656 287.441406 170.117188 277.191406 169.0625 268.039062 C 167.929688 258.289062 165.726562 250.003906 161.546875 245.761719 L 161.257812 245.5 C 146.964844 231.21875 137.300781 228.613281 128.019531 226.109375 C 116.273438 222.945312 105.015625 219.917969 87.902344 199.511719 L 87.585938 199.183594 C 86.714844 198.3125 85.648438 197.851562 84.621094 197.761719 C 83.761719 197.695312 82.984375 197.867188 82.511719 198.261719 L 82.429688 198.328125 C 82.21875 198.539062 82.429688 199.539062 82.789062 200.710938 C 83.472656 202.9375 84.871094 205.363281 85.953125 207.035156 C 89.761719 212.9375 93.820312 217.796875 98.34375 222.117188 C 102.957031 226.515625 108.113281 230.429688 114.046875 234.394531 C 116.367188 235.933594 116.984375 239.070312 115.429688 241.390625 C 113.886719 243.707031 110.75 244.328125 108.429688 242.773438 C 102.007812 238.492188 96.417969 234.234375 91.382812 229.429688 C 86.269531 224.554688 81.734375 219.128906 77.488281 212.554688 C 71.84375 204.546875 66.503906 195.785156 61.628906 186.617188 C 56.644531 177.25 52.070312 167.332031 48.0625 157.230469 C 47.773438 156.476562 47.308594 155.9375 46.78125 155.582031 L 46.597656 155.476562 C 45.832031 155.03125 44.804688 154.804688 43.617188 154.726562 C 43.066406 155.003906 42.617188 155.4375 42.3125 155.953125 C 41.945312 156.570312 41.8125 157.359375 41.984375 158.125 L 63.089844 236.832031 C 63.644531 238.914062 64.515625 240.757812 65.675781 242.339844 C 66.847656 243.933594 68.339844 245.316406 70.15625 246.460938 L 117.039062 276.351562 C 120.085938 278.300781 122.472656 280.828125 124.09375 283.792969 C 125.726562 286.796875 126.597656 290.167969 126.597656 293.738281 L 126.597656 297.058594 Z M 192.765625 335.535156 L 194.96875 307.277344 C 195.164062 304.667969 196.15625 302.21875 197.683594 300.402344 C 199.292969 298.503906 201.453125 297.265625 204 297.082031 C 203.894531 287.070312 203.984375 276.414062 205.09375 266.890625 C 206.492188 254.878906 209.574219 244.367188 215.863281 238.292969 L 220.570312 233.8125 C 222.640625 231.945312 225.84375 232.113281 227.714844 234.195312 C 229.589844 236.265625 229.417969 239.464844 227.332031 241.335938 L 225.171875 243.324219 L 222.851562 245.578125 C 218.539062 249.753906 216.285156 258.144531 215.125 268.050781 C 214.058594 277.203125 213.964844 287.453125 214.070312 297.070312 L 257.601562 297.070312 L 257.601562 293.75 C 257.601562 290.167969 258.472656 286.808594 260.105469 283.816406 C 261.726562 280.839844 264.113281 278.296875 267.160156 276.363281 L 314.042969 246.472656 C 315.847656 245.328125 317.351562 243.945312 318.523438 242.351562 C 319.683594 240.78125 320.542969 238.9375 321.109375 236.84375 L 342.214844 158.136719 C 342.386719 157.375 342.242188 156.582031 341.886719 155.964844 C 341.59375 155.449219 341.132812 155.015625 340.582031 154.738281 C 339.40625 154.804688 338.367188 155.042969 337.601562 155.488281 L 337.417969 155.59375 C 336.875 155.949219 336.425781 156.492188 336.136719 157.242188 C 332.128906 167.34375 327.554688 177.277344 322.570312 186.628906 C 317.695312 195.796875 312.355469 204.558594 306.710938 212.566406 C 302.464844 219.125 297.917969 224.566406 292.816406 229.441406 C 287.78125 234.25 282.191406 238.503906 275.769531 242.785156 C 273.449219 244.324219 270.3125 243.707031 268.769531 241.402344 C 267.226562 239.082031 267.847656 235.949219 270.152344 234.40625 C 276.085938 230.441406 281.242188 226.53125 285.855469 222.128906 C 290.390625 217.808594 294.4375 212.960938 298.246094 207.046875 C 299.328125 205.375 300.738281 202.949219 301.410156 200.722656 C 301.769531 199.550781 301.980469 198.5625 301.769531 198.339844 L 301.6875 198.261719 C 301.199219 197.867188 300.421875 197.695312 299.566406 197.773438 C 298.539062 197.867188 297.46875 198.328125 296.601562 199.195312 L 296.285156 199.511719 C 288.453125 208.878906 281.769531 214.59375 275.675781 218.363281 C 269.480469 222.195312 264.011719 223.960938 258.578125 225.460938 C 255.902344 226.199219 253.105469 224.632812 252.367188 221.945312 C 251.628906 219.269531 253.199219 216.476562 255.890625 215.742188 C 260.570312 214.449219 265.25 212.949219 270.363281 209.773438 C 275.585938 206.546875 281.4375 201.488281 288.53125 193.03125 L 289.441406 192.03125 C 292.078125 189.394531 295.425781 187.972656 298.695312 187.683594 C 302.148438 187.378906 305.578125 188.355469 308.164062 190.515625 L 308.570312 190.898438 C 310.296875 187.945312 311.972656 184.929688 313.605469 181.859375 C 318.511719 172.652344 322.941406 163.0625 326.738281 153.5 C 327.910156 150.550781 329.808594 148.402344 332.195312 146.941406 L 332.527344 146.730469 C 335.136719 145.214844 338.179688 144.570312 341.332031 144.570312 C 341.765625 144.582031 342.203125 144.636719 342.636719 144.753906 C 346.132812 145.6875 348.925781 147.96875 350.601562 150.867188 C 352.25 153.699219 352.828125 157.148438 351.996094 160.546875 L 330.863281 239.414062 C 329.980469 242.71875 328.570312 245.683594 326.671875 248.277344 C 324.773438 250.859375 322.359375 253.085938 319.472656 254.929688 L 272.59375 284.820312 C 271.023438 285.820312 269.796875 287.125 268.964844 288.613281 C 268.164062 290.074219 267.726562 291.800781 267.726562 293.699219 L 267.726562 297.042969 C 270.179688 297.214844 272.367188 298.253906 274.082031 300.257812 C 275.53125 301.957031 276.480469 304.273438 276.71875 307.238281 C 277.445312 316.578125 278.734375 327.050781 278.933594 336.285156 C 278.945312 338.917969 277.929688 341.328125 276.335938 343.132812 C 274.675781 345.003906 272.355469 346.242188 269.875 346.441406 C 248.925781 346.886719 222.402344 347.574219 201.808594 346.425781 C 199.332031 346.242188 196.996094 345.019531 195.347656 343.132812 C 193.753906 341.328125 192.738281 338.933594 192.738281 336.285156 L 192.777344 335.496094 Z M 205.054688 308.027344 C 204.488281 315.300781 202.484375 329.933594 202.863281 336.390625 L 268.835938 336.390625 C 269.21875 329.933594 267.214844 315.300781 266.648438 308.027344 L 266.542969 307.160156 L 205.265625 307.160156 C 205.160156 307.382812 205.09375 307.671875 205.066406 308.027344 Z M 237.339844 222.105469 C 239.832031 220.839844 242.878906 221.828125 244.144531 224.320312 C 245.410156 226.808594 244.417969 229.851562 241.929688 231.117188 L 241.253906 231.457031 C 238.765625 232.722656 235.71875 231.734375 234.453125 229.246094 C 233.1875 226.753906 234.175781 223.710938 236.667969 222.449219 Z M 163.089844 203.808594 C 155.339844 202.242188 148.546875 198.011719 143.722656 192.136719 C 138.976562 186.355469 136.128906 178.953125 136.128906 170.941406 C 136.128906 164.660156 137.910156 158.71875 140.996094 153.648438 C 144.171875 148.417969 148.734375 144.109375 154.152344 141.265625 C 154.875 140.882812 155.445312 140.394531 155.839844 139.828125 C 156.234375 139.261719 156.5 138.550781 156.617188 137.746094 C 157.828125 128.855469 162.140625 121.058594 168.496094 115.511719 C 174.730469 110.070312 182.929688 106.804688 192.105469 106.804688 C 201.214844 106.804688 209.363281 110.097656 215.585938 115.539062 C 221.953125 121.097656 226.292969 128.921875 227.570312 137.761719 C 227.675781 138.550781 227.953125 139.25 228.363281 139.828125 C 228.769531 140.394531 229.335938 140.882812 230.035156 141.25 L 230.324219 141.410156 C 235.625 144.253906 240.09375 148.507812 243.21875 153.632812 C 246.304688 158.71875 248.097656 164.644531 248.097656 170.941406 C 248.097656 178.964844 245.238281 186.355469 240.492188 192.136719 C 235.679688 198 228.875 202.226562 221.125 203.796875 C 218.789062 204.257812 216.507812 204.203125 214.359375 203.625 C 212.199219 203.042969 210.179688 201.949219 208.402344 200.371094 C 206.171875 198.394531 203.601562 196.851562 200.835938 195.800781 C 198.09375 194.757812 195.140625 194.207031 192.121094 194.207031 C 189.085938 194.207031 186.136719 194.757812 183.394531 195.800781 C 180.625 196.851562 178.054688 198.394531 175.824219 200.371094 C 174.046875 201.949219 172.027344 203.042969 169.867188 203.625 C 167.730469 204.203125 165.4375 204.257812 163.101562 203.796875 Z M 151.554688 185.734375 C 154.941406 189.871094 159.6875 192.847656 165.066406 193.929688 C 165.820312 194.074219 166.570312 194.0625 167.242188 193.875 C 167.902344 193.691406 168.546875 193.335938 169.128906 192.824219 C 172.292969 190.015625 175.917969 187.828125 179.820312 186.355469 C 183.710938 184.878906 187.863281 184.101562 192.09375 184.101562 C 196.324219 184.101562 200.480469 184.890625 204.367188 186.355469 C 208.269531 187.828125 211.894531 190.015625 215.058594 192.824219 C 215.640625 193.335938 216.285156 193.691406 216.945312 193.875 C 217.628906 194.0625 218.367188 194.074219 219.121094 193.929688 C 224.484375 192.847656 229.246094 189.871094 232.632812 185.734375 C 235.941406 181.691406 237.933594 176.542969 237.933594 170.941406 C 237.933594 166.503906 236.695312 162.367188 234.570312 158.851562 C 232.394531 155.265625 229.273438 152.289062 225.566406 150.300781 L 225.316406 150.183594 C 223.167969 149.050781 221.402344 147.507812 220.070312 145.636719 C 218.75 143.765625 217.878906 141.582031 217.539062 139.183594 C 216.613281 132.78125 213.503906 127.117188 208.929688 123.125 C 204.5 119.265625 198.660156 116.921875 192.09375 116.921875 C 185.460938 116.921875 179.570312 119.253906 175.125 123.125 C 170.566406 127.089844 167.480469 132.703125 166.609375 139.105469 C 166.28125 141.515625 165.421875 143.714844 164.105469 145.597656 C 162.773438 147.496094 160.992188 149.0625 158.84375 150.195312 C 155.035156 152.199219 151.816406 155.226562 149.601562 158.875 C 147.480469 162.378906 146.242188 166.515625 146.242188 170.957031 C 146.242188 176.554688 148.230469 181.71875 151.539062 185.75 Z M 281.609375 96.992188 C 278.539062 95.226562 274.664062 95.320312 270.878906 96.914062 C 266.648438 98.691406 262.585938 102.289062 259.710938 107.253906 C 256.851562 112.21875 255.769531 117.515625 256.335938 122.058594 C 256.839844 125.984375 258.589844 129.304688 261.492188 131.125 L 262.03125 131.425781 C 265.050781 133.046875 268.820312 132.914062 272.488281 131.375 C 276.71875 129.59375 280.777344 126.011719 283.652344 121.046875 L 283.796875 120.808594 C 286.566406 115.921875 287.59375 110.707031 287.027344 106.226562 L 287.015625 106.09375 C 286.488281 102.105469 284.640625 98.746094 281.609375 96.992188 Z M 266.964844 87.628906 C 273.59375 84.847656 280.675781 84.847656 286.632812 88.273438 C 292.539062 91.671875 296.074219 97.742188 297.007812 104.792969 L 297.035156 104.976562 C 297.867188 111.507812 296.429688 118.964844 292.566406 125.816406 L 292.394531 126.132812 C 288.398438 133.035156 282.585938 138.089844 276.414062 140.6875 C 269.863281 143.441406 262.863281 143.480469 256.957031 140.160156 L 256.734375 140.042969 C 250.785156 136.601562 247.253906 130.464844 246.34375 123.339844 C 245.511719 116.699219 246.976562 109.164062 250.945312 102.261719 L 250.984375 102.195312 C 254.980469 95.292969 260.792969 90.222656 266.964844 87.628906 Z M 97.570312 88.273438 C 103.515625 84.847656 110.605469 84.847656 117.238281 87.628906 C 123.40625 90.222656 129.234375 95.292969 133.21875 102.195312 L 133.375 102.5 C 137.25 109.335938 138.675781 116.792969 137.84375 123.339844 L 137.816406 123.523438 C 136.882812 130.570312 133.347656 136.628906 127.457031 140.027344 C 121.511719 143.464844 114.417969 143.464844 107.785156 140.6875 C 101.617188 138.089844 95.789062 133.035156 91.808594 126.132812 L 91.636719 125.816406 C 87.761719 118.976562 86.335938 111.523438 87.167969 104.976562 L 87.191406 104.792969 C 88.128906 97.742188 91.664062 91.683594 97.570312 88.273438 Z M 113.324219 96.914062 C 109.539062 95.332031 105.664062 95.226562 102.589844 96.992188 C 99.558594 98.730469 97.714844 102.089844 97.1875 106.09375 L 97.171875 106.226562 C 96.605469 110.707031 97.632812 115.921875 100.402344 120.808594 L 100.546875 121.046875 C 103.421875 126.011719 107.484375 129.59375 111.714844 131.375 C 115.378906 132.914062 119.148438 133.046875 122.167969 131.425781 L 122.789062 131.082031 C 125.609375 129.292969 127.335938 126.039062 127.851562 122.191406 L 127.863281 122.0625 C 128.429688 117.582031 127.402344 112.378906 124.648438 107.492188 L 124.503906 107.253906 C 121.628906 102.289062 117.566406 98.707031 113.335938 96.914062 Z M 227.203125 49.191406 C 223.75 48.652344 220.214844 50.074219 217.273438 52.785156 C 213.925781 55.894531 211.34375 60.636719 210.339844 66.289062 C 209.339844 71.941406 210.144531 77.300781 212.226562 81.371094 C 214.097656 85.007812 217.011719 87.5625 220.492188 88.183594 C 223.984375 88.800781 227.597656 87.390625 230.589844 84.613281 L 230.839844 84.386719 C 234.042969 81.320312 236.511719 76.734375 237.511719 71.320312 L 237.589844 70.886719 C 238.527344 65.3125 237.722656 60.03125 235.652344 56.015625 C 233.820312 52.429688 230.972656 49.902344 227.570312 49.242188 L 227.203125 49.175781 Z M 210.433594 45.398438 C 215.691406 40.535156 222.3125 38.097656 229.035156 39.246094 L 229.140625 39.257812 C 235.917969 40.445312 241.347656 45 244.628906 51.402344 C 247.675781 57.320312 248.875 64.894531 247.542969 72.691406 L 247.519531 72.835938 C 246.160156 80.515625 242.535156 87.15625 237.761719 91.710938 L 237.484375 92.003906 C 232.199219 96.902344 225.539062 99.328125 218.777344 98.140625 C 212.015625 96.957031 206.570312 92.382812 203.285156 85.996094 C 200.226562 80.015625 199.015625 72.402344 200.398438 64.5625 C 201.785156 56.710938 205.527344 49.953125 210.457031 45.398438 Z M 166.9375 52.785156 C 164 50.058594 160.453125 48.652344 157.011719 49.191406 L 156.644531 49.257812 C 153.242188 49.929688 150.40625 52.457031 148.5625 56.027344 C 146.492188 60.03125 145.6875 65.300781 146.625 70.859375 L 146.703125 71.308594 C 147.71875 76.867188 150.289062 81.542969 153.597656 84.613281 C 156.589844 87.390625 160.214844 88.789062 163.710938 88.179688 C 167.125 87.574219 169.984375 85.125 171.84375 81.621094 L 171.960938 81.371094 C 174.058594 77.300781 174.863281 71.953125 173.859375 66.289062 C 172.859375 60.636719 170.273438 55.882812 166.925781 52.785156 Z M 166.9375 52.785156 "/></g></svg>