<svg xmlns="http://www.w3.org/2000/svg" xmlns:xlink="http://www.w3.org/1999/xlink" width="512" zoomAndPan="magnify" viewBox="0 0 384 383.999986" height="512" preserveAspectRatio="xMidYMid meet" version="1.2"><g id="b534c8638c"><path style=" stroke:none;fill-rule:nonzero;fill:#000000;fill-opacity:1;" d="M 235.222656 277.015625 C 245.285156 298.757812 261.074219 315.621094 282.550781 327.585938 C 304.039062 315.605469 319.816406 298.742188 329.875 277.015625 C 339.9375 255.273438 344.347656 228.570312 343.125 196.917969 C 332.121094 196.320312 321.355469 194.019531 311.230469 190.164062 C 300.941406 186.242188 291.253906 180.710938 282.5625 173.699219 C 273.859375 180.710938 264.167969 186.253906 253.894531 190.164062 C 243.753906 194.035156 232.992188 196.335938 221.988281 196.917969 C 220.9375 223.902344 223.792969 252.296875 235.238281 277.015625 Z M 258.894531 253.664062 C 256.902344 251.667969 256.902344 248.4375 258.894531 246.441406 C 260.886719 244.445312 264.117188 244.445312 266.109375 246.441406 L 280.597656 260.9375 L 298.179688 230.46875 C 299.574219 228.035156 302.683594 227.199219 305.117188 228.59375 C 307.550781 229.992188 308.386719 233.101562 306.992188 235.535156 L 286.324219 271.359375 C 286.085938 271.90625 285.742188 272.410156 285.289062 272.851562 C 283.296875 274.84375 280.066406 274.84375 278.070312 272.851562 Z M 323.894531 213.914062 C 316.730469 212.449219 309.742188 210.375 302.976562 207.714844 C 295.878906 204.921875 289.035156 201.464844 282.535156 197.398438 C 276.035156 201.464844 269.191406 204.910156 262.09375 207.714844 C 255.34375 210.375 248.339844 212.464844 241.175781 213.914062 C 241.722656 232.066406 244.59375 249.457031 251.039062 264.953125 C 257.484375 280.429688 267.558594 294.074219 282.523438 304.726562 C 297.488281 294.0625 307.5625 280.433594 314.007812 264.953125 C 320.453125 249.457031 323.335938 232.078125 323.867188 213.914062 Z M 306.683594 198.222656 C 314.167969 201.171875 321.953125 203.339844 329.886719 204.671875 C 332.308594 205.082031 334.15625 207.195312 334.140625 209.738281 C 333.941406 230.695312 330.910156 250.894531 323.441406 268.859375 C 315.855469 287.09375 303.734375 303.011719 285.378906 315.140625 C 283.71875 316.242188 281.496094 316.308594 279.742188 315.152344 C 261.375 303.023438 249.242188 287.09375 241.65625 268.859375 C 234.210938 250.972656 231.195312 230.894531 230.957031 210.042969 C 230.785156 207.449219 232.589844 205.097656 235.195312 204.671875 C 243.128906 203.339844 250.917969 201.171875 258.402344 198.222656 C 265.855469 195.28125 273.019531 191.558594 279.730469 187.089844 C 281.378906 186 283.597656 185.933594 285.351562 187.089844 C 292.0625 191.546875 299.226562 195.28125 306.683594 198.222656 Z M 213.148438 234.140625 L 194.476562 215.457031 L 111.226562 286.738281 L 119.613281 304.316406 C 121.5 308.292969 122.058594 312.574219 121.367188 316.644531 C 120.660156 320.726562 118.707031 324.582031 115.597656 327.695312 L 109.457031 333.839844 C 107.464844 335.835938 104.234375 335.835938 102.242188 333.839844 C 101.910156 333.507812 101.628906 333.148438 101.417969 332.75 L 74.144531 291.429688 L 32.601562 263.996094 C 30.261719 262.441406 29.609375 259.273438 31.164062 256.933594 C 31.390625 256.589844 31.65625 256.28125 31.949219 256.015625 L 37.96875 250.007812 C 41.066406 246.894531 44.921875 244.941406 49 244.234375 C 53.066406 243.53125 57.347656 244.089844 61.320312 245.988281 L 78.863281 254.410156 L 88.234375 243.449219 C 90.066406 241.308594 93.269531 241.070312 95.410156 242.890625 C 97.550781 244.726562 97.789062 247.933594 95.96875 250.074219 L 84.058594 263.984375 C 82.597656 265.683594 80.125 266.269531 78 265.257812 L 56.921875 255.207031 C 54.886719 254.234375 52.722656 253.941406 50.703125 254.289062 C 48.695312 254.632812 46.753906 255.632812 45.160156 257.214844 L 43.417969 258.929688 L 80.632812 283.503906 C 81.191406 283.878906 81.683594 284.355469 82.070312 284.941406 L 106.65625 322.1875 L 108.382812 320.460938 C 109.976562 318.863281 110.976562 316.933594 111.320312 314.914062 C 111.664062 312.894531 111.375 310.726562 110.402344 308.691406 L 100.34375 287.601562 C 99.386719 285.566406 99.851562 283.066406 101.632812 281.535156 L 191.179688 204.871094 C 193.171875 202.902344 196.390625 202.914062 198.371094 204.894531 L 211.859375 218.394531 C 211.460938 209.871094 211.527344 200.972656 212.03125 191.691406 C 212.179688 188.898438 214.558594 186.769531 217.335938 186.875 C 224.21875 186.808594 231.050781 185.984375 237.695312 184.441406 L 232.21875 175.480469 C 230.890625 173.378906 231.261719 170.546875 233.203125 168.882812 L 272.96875 134.839844 C 274.871094 133.203125 276.359375 131.371094 277.382812 129.359375 L 277.488281 129.121094 C 278.523438 127.007812 279.121094 124.640625 279.253906 122.058594 L 280.597656 95.769531 C 280.675781 94.238281 280.453125 92.804688 279.960938 91.488281 C 279.507812 90.304688 278.789062 89.171875 277.820312 88.148438 L 277.582031 87.921875 C 276.542969 86.886719 275.425781 86.113281 274.257812 85.621094 L 274.019531 85.542969 C 272.703125 85.039062 271.269531 84.824219 269.738281 84.90625 L 243.464844 86.246094 C 240.953125 86.367188 238.679688 86.925781 236.621094 87.898438 L 236.40625 88.003906 C 234.292969 89.039062 232.367188 90.570312 230.679688 92.539062 L 196.695312 132.273438 C 195.113281 134.1875 192.324219 134.679688 190.144531 133.351562 L 91.890625 73.242188 C 88.289062 71.050781 84.234375 70.199219 80.355469 70.664062 C 76.566406 71.117188 72.914062 72.804688 69.976562 75.648438 L 69.601562 76.035156 L 160.691406 167.179688 C 162.550781 169.054688 162.699219 172.074219 160.945312 174.109375 L 120.542969 221.359375 C 118.707031 223.5 115.503906 223.738281 113.367188 221.917969 C 111.226562 220.082031 110.988281 216.878906 112.808594 214.734375 L 150.140625 171.078125 L 58.773438 79.652344 C 56.777344 77.660156 56.777344 74.429688 58.773438 72.433594 L 62.839844 68.390625 C 67.449219 63.910156 73.191406 61.25 79.160156 60.542969 C 85.246094 59.828125 91.585938 61.128906 97.207031 64.558594 L 191.765625 122.40625 L 222.972656 85.917969 C 225.5625 82.882812 228.566406 80.53125 231.917969 78.882812 L 232.222656 78.734375 C 235.503906 77.164062 239.105469 76.273438 242.960938 76.074219 L 269.234375 74.730469 C 272.226562 74.585938 275.042969 75.011719 277.648438 76.007812 L 278.035156 76.183594 C 280.53125 77.207031 282.804688 78.722656 284.796875 80.714844 L 285.089844 81.035156 C 287.042969 83.070312 288.519531 85.355469 289.476562 87.859375 C 290.488281 90.476562 290.925781 93.308594 290.765625 96.300781 L 289.421875 122.59375 C 289.222656 126.582031 288.28125 130.292969 286.617188 133.65625 L 286.472656 133.9375 C 284.824219 137.195312 282.511719 140.09375 279.601562 142.605469 L 243.132812 173.832031 L 247.835938 181.53125 C 248.648438 181.253906 249.460938 180.945312 250.269531 180.640625 C 260.808594 176.625 270.628906 170.746094 279.214844 163.234375 C 281.167969 161.515625 284.054688 161.582031 285.941406 163.257812 C 294.527344 170.773438 304.332031 176.636719 314.859375 180.640625 C 325.398438 184.65625 336.640625 186.824219 348.046875 186.917969 C 350.742188 186.945312 352.9375 189.058594 353.082031 191.730469 C 355.050781 227.121094 350.398438 256.988281 339.140625 281.320312 C 327.75 305.921875 309.675781 324.804688 284.929688 337.933594 C 283.386719 338.742188 281.621094 338.691406 280.183594 337.933594 L 280.117188 337.890625 C 255.410156 324.765625 237.351562 305.898438 225.988281 281.308594 C 219.554688 267.410156 215.277344 251.679688 213.164062 234.164062 Z M 107.984375 235.988281 C 106.148438 238.128906 102.945312 238.371094 100.808594 236.546875 C 98.667969 234.710938 98.429688 231.507812 100.25 229.367188 L 100.742188 228.78125 C 102.574219 226.640625 105.777344 226.402344 107.917969 228.222656 C 110.058594 230.058594 110.296875 233.261719 108.476562 235.402344 Z M 107.984375 235.988281 "/></g></svg>