<svg xmlns="http://www.w3.org/2000/svg" xmlns:xlink="http://www.w3.org/1999/xlink" width="512" zoomAndPan="magnify" viewBox="0 0 384 383.999986" height="512" preserveAspectRatio="xMidYMid meet" version="1.2"><g id="5c18448440"><path style=" stroke:none;fill-rule:nonzero;fill:#000000;fill-opacity:1;" d="M 279.453125 216.097656 C 276.625 215.574219 273.898438 217.460938 273.375 220.34375 C 264.574219 269.449219 240.164062 319.074219 220.15625 328.664062 C 214.550781 331.339844 209.992188 331.808594 206.167969 330.132812 C 196.6875 325.941406 191.34375 308.542969 186.683594 293.136719 C 180.917969 274.269531 175.417969 256.347656 161.121094 257.710938 C 146.820312 256.347656 141.320312 274.269531 135.554688 293.136719 C 130.84375 308.542969 125.5 325.941406 116.070312 330.132812 C 112.296875 331.808594 107.6875 331.339844 102.082031 328.664062 C 82.019531 319.128906 57.664062 269.554688 48.863281 220.449219 C 40.691406 175.015625 46.664062 138.015625 65.207031 118.886719 C 76.941406 106.78125 88.726562 104.160156 101.191406 110.765625 C 124.085938 122.921875 149.699219 127.796875 175.210938 124.914062 C 178.089844 124.601562 180.132812 121.980469 179.820312 119.097656 C 179.503906 116.214844 176.886719 114.171875 174.003906 114.484375 C 150.644531 117.105469 127.121094 112.652344 106.066406 101.488281 C 94.4375 95.359375 76.574219 92.109375 57.664062 111.605469 C 29.007812 141.109375 33.359375 193.617188 38.542969 222.285156 C 48.183594 276.050781 74.113281 326.9375 97.578125 338.097656 C 102.449219 340.40625 107.007812 341.558594 111.304688 341.558594 C 114.445312 341.558594 117.433594 340.929688 120.261719 339.722656 C 134.089844 333.59375 139.957031 314.570312 145.5625 296.175781 C 149.699219 282.652344 154.363281 267.300781 160.4375 268.136719 C 160.855469 268.191406 161.328125 268.191406 161.800781 268.136719 C 167.875 267.300781 172.539062 282.652344 176.675781 296.175781 C 182.28125 314.570312 188.097656 333.59375 201.976562 339.722656 C 208.628906 342.65625 216.277344 342.132812 224.660156 338.097656 C 248.128906 326.882812 274.054688 275.945312 283.695312 222.179688 C 284.21875 219.347656 282.332031 216.625 279.453125 216.097656 Z M 279.453125 216.097656 "/><path style=" stroke:none;fill-rule:nonzero;fill:#000000;fill-opacity:1;" d="M 71.753906 153.945312 C 72.332031 154.15625 72.957031 154.261719 73.585938 154.261719 C 75.734375 154.261719 77.726562 152.953125 78.511719 150.855469 C 80.398438 145.667969 82.859375 141.527344 85.742188 138.59375 C 87.730469 136.496094 87.730469 133.195312 85.636719 131.203125 C 83.539062 129.210938 80.238281 129.210938 78.25 131.308594 C 74.320312 135.34375 71.125 140.6875 68.714844 147.238281 C 67.617188 149.910156 69.03125 152.953125 71.753906 153.945312 Z M 71.753906 153.945312 "/><path style=" stroke:none;fill-rule:nonzero;fill:#000000;fill-opacity:1;" d="M 63.949219 168.566406 C 62.640625 181.355469 63.164062 195.871094 65.625 211.644531 C 68.453125 229.933594 73.585938 248.800781 80.503906 266.144531 C 81.339844 268.191406 83.277344 269.449219 85.375 269.449219 C 86.003906 269.449219 86.683594 269.34375 87.3125 269.082031 C 89.984375 268.03125 91.292969 264.941406 90.246094 262.269531 C 83.59375 245.605469 78.667969 227.523438 75.996094 210.019531 C 73.746094 195.347656 73.167969 181.355469 74.425781 169.617188 C 74.738281 166.734375 72.644531 164.164062 69.761719 163.851562 C 66.777344 163.535156 64.261719 165.6875 63.949219 168.566406 Z M 63.949219 168.566406 "/><path style=" stroke:none;fill-rule:nonzero;fill:#000000;fill-opacity:1;" d="M 343.832031 96.039062 L 300.039062 96.039062 L 300.039062 52.332031 C 300.039062 49.449219 297.679688 47.09375 294.800781 47.09375 L 244.617188 47.09375 C 241.734375 47.09375 239.378906 49.449219 239.378906 52.332031 L 239.378906 96.039062 L 195.585938 96.039062 C 192.707031 96.039062 190.347656 98.398438 190.347656 101.28125 L 190.347656 151.378906 C 190.347656 154.261719 192.707031 156.621094 195.585938 156.621094 L 239.378906 156.621094 L 239.378906 200.324219 C 239.378906 203.207031 241.738281 205.566406 244.617188 205.566406 L 294.800781 205.566406 C 297.679688 205.566406 300.039062 203.207031 300.039062 200.324219 L 300.039062 156.621094 L 343.832031 156.621094 C 346.710938 156.621094 349.070312 154.261719 349.070312 151.378906 L 349.070312 101.28125 C 349.070312 98.398438 346.710938 96.039062 343.832031 96.039062 Z M 338.59375 146.136719 L 294.800781 146.136719 C 291.917969 146.136719 289.5625 148.496094 289.5625 151.378906 L 289.5625 195.085938 L 249.855469 195.085938 L 249.855469 151.378906 C 249.855469 148.496094 247.5 146.136719 244.617188 146.136719 L 200.824219 146.136719 L 200.824219 106.519531 L 244.617188 106.519531 C 247.5 106.519531 249.855469 104.160156 249.855469 101.28125 L 249.855469 57.574219 L 289.5625 57.574219 L 289.5625 101.28125 C 289.5625 104.160156 291.917969 106.519531 294.800781 106.519531 L 338.59375 106.519531 Z M 338.59375 146.136719 "/></g></svg>