<svg xmlns="http://www.w3.org/2000/svg" xmlns:xlink="http://www.w3.org/1999/xlink" width="512" zoomAndPan="magnify" viewBox="0 0 384 383.999986" height="512" preserveAspectRatio="xMidYMid meet" version="1.2"><g id="8771cfe045"><path style=" stroke:none;fill-rule:nonzero;fill:#000000;fill-opacity:1;" d="M 293.457031 152.757812 C 265.007812 152.757812 242.734375 164.914062 242.734375 180.421875 C 242.734375 185.472656 245.128906 190.15625 249.304688 194.191406 C 245.035156 198.3125 242.734375 203.117188 242.734375 208.085938 C 242.734375 213.136719 245.128906 217.820312 249.304688 221.859375 C 245.035156 225.976562 242.734375 230.785156 242.734375 235.753906 C 242.734375 240.804688 245.128906 245.484375 249.304688 249.523438 C 245.035156 253.644531 242.734375 258.449219 242.734375 263.417969 C 242.734375 268.46875 245.128906 273.148438 249.304688 277.1875 C 245.035156 281.308594 242.734375 286.113281 242.734375 291.082031 C 242.734375 306.59375 265.023438 318.746094 293.457031 318.746094 C 321.902344 318.746094 344.175781 306.589844 344.175781 291.082031 C 344.175781 286.113281 341.878906 281.320312 337.605469 277.1875 C 341.78125 273.148438 344.175781 268.46875 344.175781 263.417969 C 344.175781 258.449219 341.878906 253.65625 337.605469 249.523438 C 341.78125 245.484375 344.175781 240.804688 344.175781 235.753906 C 344.175781 230.78125 341.878906 225.992188 337.605469 221.859375 C 341.78125 217.820312 344.175781 213.136719 344.175781 208.085938 C 344.175781 203.117188 341.878906 198.328125 337.605469 194.191406 C 341.78125 190.15625 344.175781 185.472656 344.175781 180.421875 C 344.175781 164.914062 321.890625 152.757812 293.457031 152.757812 Z M 293.457031 309.535156 C 268.992188 309.535156 251.949219 299.816406 251.949219 291.09375 C 251.949219 287.671875 254.496094 284.757812 256.902344 282.757812 C 266.0625 287.921875 278.945312 291.09375 293.457031 291.09375 C 307.96875 291.09375 320.847656 287.917969 330.007812 282.757812 C 332.417969 284.742188 334.964844 287.660156 334.964844 291.09375 C 334.964844 299.816406 317.921875 309.535156 293.457031 309.535156 Z M 327.777344 273.40625 C 327.75 273.421875 327.734375 273.433594 327.707031 273.449219 C 320.492188 278.253906 308.363281 281.867188 293.441406 281.867188 C 278.535156 281.867188 266.40625 278.253906 259.191406 273.449219 C 259.164062 273.433594 259.148438 273.421875 259.121094 273.40625 C 254.550781 270.339844 251.949219 266.808594 251.949219 263.429688 C 251.949219 260.007812 254.496094 257.089844 256.90625 255.09375 C 266.0625 260.253906 278.945312 263.429688 293.457031 263.429688 C 307.96875 263.429688 320.851562 260.253906 330.011719 255.09375 C 332.417969 257.078125 334.964844 259.992188 334.964844 263.429688 C 334.964844 266.808594 332.363281 270.339844 327.792969 273.40625 Z M 327.777344 245.742188 C 327.75 245.757812 327.734375 245.769531 327.707031 245.785156 C 320.492188 250.589844 308.363281 254.203125 293.441406 254.203125 C 278.535156 254.203125 266.40625 250.574219 259.175781 245.785156 C 259.148438 245.769531 259.136719 245.757812 259.109375 245.742188 C 254.535156 242.675781 251.9375 239.144531 251.9375 235.761719 C 251.9375 232.339844 254.480469 229.425781 256.890625 227.425781 C 266.050781 232.589844 278.933594 235.761719 293.445312 235.761719 C 307.953125 235.761719 320.835938 232.585938 329.996094 227.425781 C 332.40625 229.410156 334.953125 232.328125 334.953125 235.761719 C 334.953125 239.160156 332.351562 242.691406 327.777344 245.742188 Z M 327.777344 218.0625 C 327.75 218.078125 327.734375 218.089844 327.707031 218.105469 C 320.492188 222.910156 308.363281 226.523438 293.441406 226.523438 C 278.535156 226.523438 266.40625 222.910156 259.191406 218.105469 C 259.164062 218.089844 259.136719 218.078125 259.109375 218.050781 C 254.535156 214.984375 251.9375 211.464844 251.9375 208.070312 C 251.9375 204.648438 254.480469 201.734375 256.890625 199.734375 C 266.050781 204.894531 278.933594 208.070312 293.445312 208.070312 C 307.953125 208.070312 320.835938 204.894531 329.996094 199.734375 C 332.40625 201.71875 334.953125 204.636719 334.953125 208.070312 C 334.953125 211.453125 332.351562 214.984375 327.777344 218.050781 Z M 327.777344 190.398438 C 327.75 190.414062 327.722656 190.425781 327.707031 190.441406 C 320.492188 195.246094 308.363281 198.859375 293.457031 198.859375 C 278.546875 198.859375 266.417969 195.246094 259.203125 190.441406 C 259.175781 190.425781 259.148438 190.414062 259.121094 190.386719 C 254.550781 187.320312 251.949219 183.800781 251.949219 180.40625 C 251.949219 171.6875 268.992188 161.96875 293.457031 161.96875 C 317.921875 161.96875 334.964844 171.6875 334.964844 180.40625 C 334.964844 183.789062 332.363281 187.320312 327.792969 190.386719 Z M 327.777344 190.398438 "/><path style=" stroke:none;fill-rule:nonzero;fill:#000000;fill-opacity:1;" d="M 235.386719 194.355469 C 237.933594 194.289062 239.945312 192.167969 239.863281 189.621094 C 239.792969 187.074219 237.617188 184.980469 235.125 185.144531 C 207.910156 185.925781 187.390625 197.777344 187.390625 212.714844 C 187.390625 217.667969 189.664062 222.445312 193.894531 226.554688 C 189.664062 230.660156 187.390625 235.4375 187.390625 240.378906 C 187.390625 245.335938 189.664062 250.113281 193.894531 254.21875 C 189.664062 258.324219 187.390625 263.101562 187.390625 268.042969 C 187.390625 282.675781 206.691406 294.246094 233.277344 295.574219 L 233.511719 295.574219 C 235.949219 295.574219 237.988281 293.65625 238.109375 291.191406 C 238.234375 288.644531 236.277344 286.484375 233.730469 286.359375 C 211.527344 285.265625 196.601562 275.996094 196.601562 268.042969 C 196.601562 264.636719 199.121094 261.734375 201.515625 259.75 C 209.8125 264.417969 220.914062 267.304688 233.265625 267.90625 L 233.496094 267.90625 C 235.933594 267.90625 237.972656 265.992188 238.097656 263.527344 C 238.21875 260.980469 236.261719 258.816406 233.714844 258.695312 C 221.765625 258.105469 210.882812 255.082031 203.832031 250.386719 C 203.832031 250.386719 203.816406 250.386719 203.816406 250.371094 C 203.816406 250.371094 203.804688 250.371094 203.804688 250.359375 C 201.121094 248.59375 196.617188 244.9375 196.617188 240.378906 C 196.617188 236.96875 199.136719 234.066406 201.53125 232.082031 C 209.828125 236.75 220.929688 239.640625 233.277344 240.242188 L 233.511719 240.242188 C 235.945312 240.242188 237.988281 238.324219 238.109375 235.859375 C 238.234375 233.316406 236.277344 231.152344 233.730469 231.027344 C 221.777344 230.441406 210.894531 227.429688 203.832031 222.71875 C 203.832031 222.71875 203.816406 222.71875 203.816406 222.707031 C 203.816406 222.707031 203.804688 222.691406 203.804688 222.691406 C 201.121094 220.925781 196.617188 217.269531 196.617188 212.714844 C 196.617188 204.390625 212.195312 195.027344 235.382812 194.355469 Z M 235.386719 194.355469 "/><path style=" stroke:none;fill-rule:nonzero;fill:#000000;fill-opacity:1;" d="M 53.667969 254.203125 L 179.875 254.203125 C 182.421875 254.203125 184.488281 252.136719 184.488281 249.589844 C 184.488281 247.046875 182.421875 244.976562 179.875 244.976562 L 53.667969 244.976562 C 51.121094 244.976562 49.054688 242.910156 49.054688 240.363281 L 49.054688 129.703125 C 49.054688 127.160156 51.121094 125.089844 53.667969 125.089844 L 265.789062 125.089844 C 268.332031 125.089844 270.402344 127.160156 270.402344 129.703125 L 270.402344 145.105469 C 270.402344 147.652344 272.46875 149.71875 275.015625 149.71875 C 277.5625 149.71875 279.628906 147.652344 279.628906 145.105469 L 279.628906 129.703125 C 279.628906 122.078125 273.425781 115.863281 265.789062 115.863281 L 72.105469 115.878906 L 72.105469 106.652344 C 72.105469 104.105469 74.171875 102.039062 76.71875 102.039062 L 288.839844 102.039062 C 291.382812 102.039062 293.453125 104.105469 293.453125 106.652344 L 293.453125 143.625 C 293.453125 146.171875 295.519531 148.238281 298.066406 148.238281 C 300.613281 148.238281 302.679688 146.171875 302.679688 143.625 L 302.679688 106.652344 C 302.679688 99.027344 296.476562 92.8125 288.839844 92.8125 L 95.15625 92.8125 L 95.15625 83.585938 C 95.15625 81.039062 97.222656 78.972656 99.769531 78.972656 L 311.890625 78.972656 C 314.433594 78.972656 316.503906 81.039062 316.503906 83.585938 L 316.503906 147.269531 C 316.503906 149.8125 318.570312 151.882812 321.117188 151.882812 C 323.664062 151.882812 325.730469 149.8125 325.730469 147.269531 L 325.730469 83.585938 C 325.730469 75.960938 319.527344 69.746094 311.890625 69.746094 L 99.769531 69.761719 C 92.144531 69.761719 85.929688 75.960938 85.929688 83.601562 L 85.929688 92.828125 L 76.703125 92.828125 C 69.078125 92.828125 62.863281 99.027344 62.863281 106.667969 L 62.863281 115.890625 L 53.636719 115.890625 C 46.011719 115.890625 39.796875 122.09375 39.796875 129.730469 L 39.796875 240.390625 C 39.796875 248.015625 45.996094 254.230469 53.636719 254.230469 Z M 53.667969 254.203125 "/><path style=" stroke:none;fill-rule:nonzero;fill:#000000;fill-opacity:1;" d="M 253.304688 155.945312 C 255.714844 156.808594 258.34375 155.546875 259.191406 153.152344 C 260.054688 150.757812 258.792969 148.117188 256.398438 147.253906 C 250.976562 145.324219 247.335938 140.109375 247.335938 134.304688 C 247.335938 131.757812 245.269531 129.691406 242.722656 129.691406 L 76.722656 129.703125 C 74.175781 129.703125 72.109375 131.769531 72.109375 134.316406 C 72.109375 141.941406 65.90625 148.15625 58.269531 148.15625 C 55.722656 148.15625 53.65625 150.222656 53.65625 152.769531 L 53.65625 217.328125 C 53.65625 219.875 55.722656 221.941406 58.269531 221.941406 C 65.894531 221.941406 72.109375 228.140625 72.109375 235.78125 C 72.109375 238.324219 74.175781 240.394531 76.722656 240.394531 L 178.585938 240.394531 C 181.132812 240.394531 183.199219 238.324219 183.199219 235.78125 C 183.199219 233.234375 181.132812 231.167969 178.585938 231.167969 L 80.867188 231.152344 C 79.035156 222.132812 71.902344 215.011719 62.894531 213.179688 L 62.894531 156.917969 C 71.914062 155.082031 79.035156 147.949219 80.867188 138.945312 L 238.585938 138.945312 C 240.175781 146.703125 245.691406 153.25 253.304688 155.972656 Z M 253.304688 155.945312 "/><path style=" stroke:none;fill-rule:nonzero;fill:#000000;fill-opacity:1;" d="M 159.722656 157.371094 C 144.472656 157.371094 132.054688 169.789062 132.054688 185.035156 C 132.054688 200.285156 144.472656 212.703125 159.722656 212.703125 C 174.972656 212.703125 187.390625 200.285156 187.390625 185.035156 C 187.390625 169.789062 174.972656 157.371094 159.722656 157.371094 Z M 159.722656 203.488281 C 149.550781 203.488281 141.28125 195.222656 141.28125 185.050781 C 141.28125 174.878906 149.550781 166.613281 159.722656 166.613281 C 169.894531 166.613281 178.164062 174.878906 178.164062 185.050781 C 178.164062 195.222656 169.894531 203.488281 159.722656 203.488281 Z M 159.722656 203.488281 "/></g></svg>