<svg xmlns="http://www.w3.org/2000/svg" xmlns:xlink="http://www.w3.org/1999/xlink" width="512" zoomAndPan="magnify" viewBox="0 0 384 383.999986" height="512" preserveAspectRatio="xMidYMid meet" version="1.2"><g id="8f9f8ac2bb"><path style=" stroke:none;fill-rule:nonzero;fill:#000000;fill-opacity:1;" d="M 110.851562 137 L 127.082031 137 L 127.082031 191.070312 C 127.082031 194.054688 129.503906 196.476562 132.492188 196.476562 C 135.476562 196.476562 137.902344 194.054688 137.902344 191.070312 L 137.902344 131.59375 C 137.902344 128.609375 135.476562 126.1875 132.492188 126.1875 L 122.402344 126.1875 L 192.003906 42.722656 L 261.605469 126.1875 L 251.515625 126.1875 C 248.53125 126.1875 246.105469 128.609375 246.105469 131.59375 L 246.105469 191.070312 C 246.105469 194.054688 248.53125 196.476562 251.515625 196.476562 C 254.503906 196.476562 256.925781 194.054688 256.925781 191.070312 L 256.925781 137 L 273.15625 137 C 275.257812 137 277.160156 135.789062 278.0625 133.890625 C 278.949219 131.988281 278.667969 129.75 277.3125 128.128906 L 224.46875 64.753906 L 224.46875 39.679688 L 235.289062 39.679688 L 235.289062 66.710938 C 235.289062 69.699219 237.710938 72.121094 240.699219 72.121094 C 243.683594 72.121094 246.109375 69.699219 246.109375 66.710938 L 246.109375 34.273438 C 246.109375 31.285156 243.683594 28.863281 240.699219 28.863281 L 219.058594 28.863281 C 216.070312 28.863281 213.648438 31.285156 213.648438 34.273438 L 213.648438 51.773438 L 196.160156 30.808594 C 194.105469 28.34375 189.90625 28.34375 187.847656 30.808594 L 106.695312 128.132812 C 105.359375 129.734375 105.0625 131.988281 105.949219 133.890625 C 106.835938 135.789062 108.753906 137 110.851562 137 Z M 110.851562 137 "/><path style=" stroke:none;fill-rule:nonzero;fill:#000000;fill-opacity:1;" d="M 202.824219 218.105469 C 202.824219 221.089844 205.246094 223.511719 208.234375 223.511719 C 211.222656 223.511719 213.644531 221.089844 213.644531 218.105469 L 213.644531 153.222656 C 213.644531 150.238281 211.222656 147.816406 208.234375 147.816406 L 175.773438 147.816406 C 172.785156 147.816406 170.363281 150.238281 170.363281 153.222656 L 170.363281 218.105469 C 170.363281 221.089844 172.785156 223.511719 175.773438 223.511719 C 178.761719 223.511719 181.183594 221.089844 181.183594 218.105469 L 181.183594 158.628906 L 202.824219 158.628906 Z M 202.824219 218.105469 "/><path style=" stroke:none;fill-rule:nonzero;fill:#000000;fill-opacity:1;" d="M 135.71875 208.515625 L 112.699219 185.566406 C 95.609375 168.484375 77.277344 167.21875 62.386719 182.101562 C 61.371094 183.113281 60.808594 184.496094 60.808594 185.929688 C 60.808594 187.367188 61.386719 188.746094 62.402344 189.761719 L 109.867188 237.128906 C 110.921875 238.183594 112.304688 238.703125 113.683594 238.703125 C 115.066406 238.703125 116.460938 238.167969 117.515625 237.113281 C 119.628906 235 119.628906 231.582031 117.515625 229.46875 L 74.207031 186.242188 C 83.601562 179.78125 93.960938 182.117188 105.0625 193.210938 L 129.464844 217.542969 C 130.546875 218.628906 131.984375 219.132812 133.410156 219.09375 C 155.21875 225.203125 170.363281 244.691406 170.363281 267.019531 L 170.363281 288.394531 L 116.261719 288.394531 L 116.261719 282.425781 C 116.261719 280.765625 115.5 279.199219 114.191406 278.171875 L 75.667969 248.011719 C 72.332031 245.351562 67.425781 239.609375 65.847656 235.832031 L 40.515625 176.980469 L 40.515625 126.574219 C 41.417969 125.488281 44.816406 123.628906 48.605469 124.136719 C 54.847656 124.96875 57.777344 131.640625 59.128906 137.078125 C 61.128906 145.101562 61.59375 152.171875 62.003906 158.394531 L 62.03125 158.84375 C 62.230469 161.816406 64.765625 164.109375 67.78125 163.886719 C 70.765625 163.6875 73.019531 161.113281 72.824219 158.140625 L 72.796875 157.691406 C 72.359375 151 71.851562 143.425781 69.625 134.457031 C 65.316406 117.195312 53.902344 112.253906 44.703125 113.394531 C 37.320312 114.292969 29.695312 119.25 29.695312 125.980469 L 29.695312 178.09375 C 29.695312 178.824219 29.851562 179.554688 30.132812 180.230469 L 55.886719 240.074219 C 58.269531 245.734375 64.382812 252.859375 68.964844 256.507812 L 105.4375 285.0625 L 105.4375 288.398438 L 89.207031 288.398438 C 86.222656 288.398438 83.796875 290.820312 83.796875 293.804688 L 83.796875 347.875 C 83.796875 350.859375 86.222656 353.28125 89.207031 353.28125 C 92.195312 353.28125 94.617188 350.859375 94.617188 347.875 L 94.617188 299.210938 L 170.363281 299.210938 L 170.363281 347.875 C 170.363281 350.859375 172.785156 353.28125 175.773438 353.28125 C 178.757812 353.28125 181.183594 350.859375 181.183594 347.875 L 181.183594 267.023438 C 181.183594 239.625 162.527344 215.742188 135.71875 208.523438 Z M 135.71875 208.515625 "/><path style=" stroke:none;fill-rule:nonzero;fill:#000000;fill-opacity:1;" d="M 339.320312 113.386719 C 330.078125 112.246094 318.707031 117.191406 314.382812 134.453125 C 312.15625 143.421875 311.648438 150.996094 311.210938 157.683594 L 311.183594 158.136719 C 310.988281 161.121094 313.242188 163.683594 316.226562 163.878906 C 319.214844 164.105469 321.78125 161.824219 321.976562 158.839844 L 322.003906 158.390625 C 322.414062 152.152344 322.878906 145.097656 324.878906 137.070312 C 326.246094 131.636719 329.175781 124.976562 335.402344 124.132812 C 339.207031 123.625 342.574219 125.496094 343.492188 126.566406 L 343.492188 176.972656 L 318.144531 235.871094 C 316.582031 239.589844 311.679688 245.347656 308.367188 247.980469 L 269.816406 278.167969 C 268.507812 279.195312 267.746094 280.761719 267.746094 282.421875 L 267.746094 288.390625 L 213.644531 288.390625 L 213.644531 267.015625 C 213.644531 244.6875 228.789062 225.199219 250.613281 219.085938 C 252.039062 219.117188 253.472656 218.609375 254.558594 217.539062 L 278.960938 193.207031 C 290.0625 182.113281 300.417969 179.789062 309.816406 186.253906 L 266.507812 229.449219 C 264.394531 231.5625 264.394531 234.984375 266.507812 237.09375 C 267.5625 238.152344 268.945312 238.6875 270.339844 238.6875 C 271.71875 238.6875 273.101562 238.164062 274.15625 237.109375 L 321.621094 189.742188 C 322.636719 188.726562 323.214844 187.347656 323.214844 185.910156 C 323.214844 184.476562 322.652344 183.097656 321.636719 182.082031 C 306.757812 167.214844 288.414062 168.464844 271.339844 185.546875 L 248.316406 208.511719 C 221.476562 215.734375 202.824219 239.613281 202.824219 267.011719 L 202.824219 347.863281 C 202.824219 350.847656 205.25 353.269531 208.234375 353.269531 C 211.222656 353.269531 213.644531 350.847656 213.644531 347.863281 L 213.644531 299.199219 L 289.386719 299.199219 L 289.386719 347.863281 C 289.386719 350.847656 291.8125 353.269531 294.800781 353.269531 C 297.785156 353.269531 300.210938 350.847656 300.210938 347.863281 L 300.210938 293.792969 C 300.210938 290.808594 297.785156 288.386719 294.800781 288.386719 L 278.566406 288.386719 L 278.566406 285.050781 L 315.074219 256.453125 C 319.609375 252.847656 325.722656 245.722656 328.089844 240.09375 L 353.859375 180.222656 C 354.15625 179.546875 354.3125 178.816406 354.3125 178.082031 L 354.3125 125.972656 C 354.3125 119.242188 346.6875 114.285156 339.320312 113.386719 Z M 339.320312 113.386719 "/></g></svg>