<svg xmlns="http://www.w3.org/2000/svg" xmlns:xlink="http://www.w3.org/1999/xlink" width="512" zoomAndPan="magnify" viewBox="0 0 384 383.999986" height="512" preserveAspectRatio="xMidYMid meet" version="1.2"><g id="2756a5a5c7"><path style=" stroke:none;fill-rule:nonzero;fill:#000000;fill-opacity:1;" d="M 344.371094 108.125 L 306.273438 108.125 C 302.761719 108.125 299.921875 110.964844 299.921875 114.480469 L 299.921875 146.253906 L 268.171875 146.253906 C 264.660156 146.253906 261.820312 149.09375 261.820312 152.609375 L 261.820312 184.382812 L 230.070312 184.382812 C 226.5625 184.382812 223.722656 187.222656 223.722656 190.738281 L 223.722656 222.511719 L 191.972656 222.511719 C 188.460938 222.511719 185.621094 225.355469 185.621094 228.867188 L 185.621094 260.640625 L 153.871094 260.640625 C 150.363281 260.640625 147.519531 263.484375 147.519531 266.996094 L 147.519531 298.769531 L 115.769531 298.769531 C 112.261719 298.769531 109.421875 301.613281 109.421875 305.125 L 109.421875 343.253906 C 109.421875 346.765625 112.261719 349.605469 115.769531 349.605469 L 214.855469 349.605469 C 216.542969 349.605469 218.164062 348.9375 219.34375 347.742188 L 348.898438 218.085938 C 350.09375 216.894531 350.761719 215.285156 350.761719 213.597656 L 350.761719 114.4375 C 350.761719 110.925781 347.921875 108.082031 344.410156 108.082031 Z M 338.019531 211.007812 L 212.1875 336.9375 L 122.09375 336.9375 L 122.09375 311.519531 L 153.84375 311.519531 C 157.351562 311.519531 160.191406 308.675781 160.191406 305.164062 L 160.191406 273.390625 L 191.945312 273.390625 C 195.453125 273.390625 198.292969 270.546875 198.292969 267.035156 L 198.292969 235.261719 L 230.042969 235.261719 C 233.554688 235.261719 236.394531 232.417969 236.394531 228.90625 L 236.394531 197.132812 L 268.144531 197.132812 C 271.652344 197.132812 274.492188 194.289062 274.492188 190.777344 L 274.492188 159.003906 L 306.242188 159.003906 C 309.753906 159.003906 312.59375 156.160156 312.59375 152.648438 L 312.59375 120.875 L 337.992188 120.875 L 337.992188 211.046875 Z M 56.8125 121.4375 C 75.769531 125.40625 91.5625 126.304688 98.261719 123.769531 C 104.851562 121.304688 116 110.5625 128.054688 95.050781 C 133.121094 88.886719 141.707031 87.0625 148.644531 90.425781 C 149.140625 90.574219 149.625 90.789062 150.066406 91.058594 C 154.367188 93.644531 157.328125 97.976562 158.183594 102.921875 C 159.042969 107.867188 157.714844 112.9375 154.527344 116.824219 L 130.613281 146.09375 L 134.03125 154.617188 L 153.5625 142.40625 C 157.515625 139.925781 162.082031 138.609375 166.757812 138.609375 L 195.734375 138.609375 C 205.542969 138.609375 213.511719 146.589844 213.511719 156.402344 C 213.511719 161.09375 211.609375 165.679688 208.300781 168.992188 C 204.953125 172.34375 200.492188 174.191406 195.734375 174.191406 L 169.0625 174.191406 C 165.554688 174.191406 162.710938 171.351562 162.710938 167.835938 C 162.710938 164.324219 165.550781 161.484375 169.0625 161.484375 L 195.734375 161.484375 C 197.074219 161.484375 198.386719 160.945312 199.324219 159.996094 C 200.277344 159.042969 200.8125 157.742188 200.8125 156.402344 C 200.8125 153.597656 198.535156 151.320312 195.734375 151.320312 L 166.757812 151.320312 C 164.46875 151.320312 162.230469 151.964844 160.300781 153.171875 L 134.324219 169.417969 C 132.730469 170.410156 130.773438 170.652344 128.980469 170.078125 C 127.183594 169.488281 125.75 168.144531 125.054688 166.402344 L 117.433594 147.339844 C 116.574219 145.191406 116.949219 142.738281 118.410156 140.957031 L 144.695312 108.792969 C 145.539062 107.761719 145.886719 106.421875 145.660156 105.105469 C 145.472656 104.0625 144.933594 103.121094 144.144531 102.425781 C 143.902344 102.304688 143.664062 102.199219 143.433594 102.050781 C 141.625 100.976562 139.28125 101.394531 137.941406 102.988281 C 128.257812 115.445312 114.164062 131.355469 102.683594 135.660156 C 90.222656 140.328125 67.058594 136.558594 54.375 133.90625 C 52.632812 133.625 50.785156 134.710938 50.140625 136.558594 C 49.753906 137.699219 49.832031 138.945312 50.367188 139.992188 C 50.90625 141.050781 51.855469 141.867188 52.996094 142.21875 L 90.933594 154.148438 C 93.261719 154.886719 94.964844 156.882812 95.3125 159.296875 C 95.339844 159.457031 98.125 177.289062 110.050781 185.480469 C 122.011719 193.699219 144.332031 201.90625 144.558594 202 C 146.339844 202.65625 147.730469 204.0625 148.363281 205.847656 L 156.75 229.550781 C 157.429688 231.480469 159.453125 232.605469 161.4375 232.296875 C 161.464844 232.285156 161.503906 232.285156 161.542969 232.269531 C 163.808594 231.816406 165.296875 229.683594 164.90625 227.390625 L 160.3125 199.8125 C 159.84375 197.023438 157.925781 194.636719 155.300781 193.589844 L 143.820312 188.992188 L 148.535156 177.195312 L 160.015625 181.792969 C 166.742188 184.488281 171.660156 190.601562 172.839844 197.734375 L 177.433594 225.3125 C 178.933594 234.335938 173.144531 242.820312 164.210938 244.699219 C 164.144531 244.710938 164.078125 244.726562 163.996094 244.738281 C 162.898438 244.953125 161.8125 245.058594 160.726562 245.058594 C 153.695312 245.058594 147.15625 240.621094 144.746094 233.785156 L 137.351562 212.855469 C 130.625 210.257812 113.558594 203.3125 102.84375 195.949219 C 90.304688 187.34375 85.292969 172.339844 83.539062 165.15625 L 49.164062 154.347656 C 44.769531 152.96875 41.085938 149.816406 39.007812 145.714844 C 36.933594 141.613281 36.609375 136.773438 38.109375 132.414062 C 40.804688 124.601562 48.628906 120.015625 56.746094 121.410156 Z M 82.386719 115.109375 C 96.921875 115.109375 108.738281 103.269531 108.738281 88.738281 C 108.738281 74.191406 96.90625 62.367188 82.386719 62.367188 C 67.851562 62.367188 56.035156 74.191406 56.035156 88.738281 C 56.035156 103.285156 67.863281 115.109375 82.386719 115.109375 Z M 82.386719 75.0625 C 89.914062 75.0625 96.039062 81.191406 96.039062 88.722656 C 96.039062 96.257812 89.914062 102.386719 82.386719 102.386719 C 74.855469 102.386719 68.734375 96.257812 68.734375 88.722656 C 68.734375 81.191406 74.855469 75.0625 82.386719 75.0625 Z M 37.507812 199.984375 L 60.375 192.359375 C 63.722656 191.246094 67.300781 193.042969 68.414062 196.378906 C 69.523438 199.703125 67.730469 203.3125 64.394531 204.425781 L 41.527344 212.050781 C 40.855469 212.28125 40.171875 212.386719 39.515625 212.386719 C 36.851562 212.386719 34.371094 210.699219 33.488281 208.042969 C 32.375 204.71875 34.171875 201.113281 37.507812 200 Z M 207.214844 77.195312 L 193.9375 97.316406 C 192.71875 99.167969 190.695312 100.171875 188.632812 100.171875 C 187.425781 100.171875 186.222656 99.824219 185.136719 99.113281 C 182.214844 97.183594 181.414062 93.242188 183.339844 90.304688 L 196.617188 70.183594 C 198.558594 67.257812 202.484375 66.441406 205.417969 68.386719 C 208.339844 70.316406 209.144531 74.257812 207.214844 77.195312 Z M 62.394531 247.660156 C 59.355469 245.90625 58.324219 242.019531 60.0625 238.976562 L 72.109375 218.085938 C 73.863281 215.042969 77.734375 213.996094 80.789062 215.753906 C 83.828125 217.511719 84.859375 221.398438 83.121094 224.441406 L 71.074219 245.328125 C 69.898438 247.367188 67.765625 248.507812 65.570312 248.507812 C 64.496094 248.507812 63.398438 248.238281 62.394531 247.648438 Z M 205.121094 108.335938 L 228.40625 102.101562 C 231.808594 101.179688 235.277344 103.214844 236.1875 106.59375 C 237.101562 109.988281 235.089844 113.472656 231.703125 114.382812 L 208.417969 120.617188 C 207.867188 120.765625 207.320312 120.832031 206.769531 120.832031 C 203.957031 120.832031 201.398438 118.957031 200.648438 116.125 C 199.738281 112.734375 201.746094 109.25 205.136719 108.335938 Z M 205.121094 108.335938 "/></g></svg>