<svg xmlns="http://www.w3.org/2000/svg" xmlns:xlink="http://www.w3.org/1999/xlink" width="512" zoomAndPan="magnify" viewBox="0 0 384 383.999986" height="512" preserveAspectRatio="xMidYMid meet" version="1.2"><g id="62efbc283c"><path style=" stroke:none;fill-rule:nonzero;fill:#000000;fill-opacity:1;" d="M 332.566406 289.664062 C 330.957031 292.070312 327.691406 292.699219 325.296875 291.085938 C 322.894531 289.472656 322.265625 286.207031 323.878906 283.8125 C 328.550781 276.894531 332.292969 269.347656 334.835938 261.023438 C 337.390625 252.683594 338.796875 243.425781 338.796875 233.0625 L 338.796875 201.46875 C 326.527344 197.734375 314.820312 193.429688 303.914062 187.90625 C 293.203125 182.464844 283.242188 175.847656 274.226562 167.425781 C 265.222656 175.859375 255.25 182.476562 244.535156 187.90625 C 233.632812 193.441406 221.925781 197.75 209.65625 201.46875 L 209.65625 233.0625 C 209.65625 256.714844 217.074219 274.804688 229.015625 289.882812 C 240.601562 304.511719 256.574219 316.527344 274.226562 328.066406 C 278.039062 325.578125 281.78125 323.0625 285.375 320.519531 C 289.910156 317.320312 294.242188 314.09375 298.289062 310.800781 C 300.527344 308.980469 303.820312 309.308594 305.652344 311.550781 C 307.46875 313.792969 307.140625 317.089844 304.898438 318.921875 C 300.542969 322.460938 296.03125 325.839844 291.402344 329.09375 C 286.769531 332.359375 281.988281 335.546875 277.125 338.675781 C 275.441406 339.796875 273.1875 339.878906 271.386719 338.71875 C 251.792969 326.085938 233.90625 312.933594 220.804688 296.402344 C 214.328125 288.242188 209.039062 279.285156 205.3125 269.238281 C 201.691406 271.21875 197.988281 273.160156 194.203125 275.089844 C 188.613281 277.933594 182.683594 280.789062 176.441406 283.632812 C 175.007812 284.289062 173.433594 284.234375 172.097656 283.632812 C 145.519531 271.492188 123.507812 258.65625 105.488281 245.570312 C 85.554688 231.09375 70.417969 216.230469 59.351562 201.605469 C 57.613281 199.292969 58.066406 196 60.375 194.261719 C 62.683594 192.527344 65.976562 192.976562 67.710938 195.289062 C 78.164062 209.125 92.578125 223.234375 111.640625 237.082031 C 128.679688 249.453125 149.40625 261.609375 174.269531 273.121094 C 179.460938 270.726562 184.542969 268.253906 189.492188 265.738281 C 193.890625 263.507812 198.113281 261.265625 202.171875 259.023438 C 200.203125 251.066406 199.136719 242.453125 199.136719 233.0625 L 199.136719 197.570312 C 199.164062 195.300781 200.640625 193.207031 202.933594 192.550781 C 215.957031 188.738281 228.363281 184.347656 239.8125 178.550781 C 251.054688 172.851562 261.386719 165.753906 270.472656 156.445312 L 270.582031 156.335938 C 272.644531 154.324219 275.964844 154.367188 277.984375 156.445312 C 283.398438 161.996094 289.257812 166.753906 295.488281 170.910156 C 307.429688 144.316406 305.285156 120.144531 294.886719 102.78125 C 289.953125 94.535156 283.164062 87.8125 275.15625 83.09375 C 267.152344 78.375 257.914062 75.65625 248.089844 75.421875 C 225.65625 74.875 200.066406 87.277344 178.617188 118.269531 C 178.261719 118.789062 177.808594 119.253906 177.261719 119.636719 C 174.886719 121.277344 171.632812 120.675781 169.996094 118.296875 C 152.328125 92.757812 131.863281 79.824219 112.648438 76.367188 C 101.351562 74.34375 90.460938 75.589844 80.84375 79.457031 C 71.265625 83.3125 62.929688 89.792969 56.726562 98.230469 C 47.066406 111.382812 42.515625 129.320312 46.300781 149.648438 C 46.820312 152.492188 44.9375 155.226562 42.09375 155.730469 C 39.253906 156.25 36.519531 154.363281 36.015625 151.519531 C 31.667969 128.15625 36.996094 107.375 48.269531 92.035156 C 55.632812 82.015625 65.539062 74.316406 76.933594 69.722656 C 88.300781 65.144531 101.160156 63.679688 114.464844 66.074219 C 134.632812 69.695312 155.820312 82.246094 174.28125 106.417969 C 197.15625 76.449219 224.183594 64.359375 248.335938 64.949219 C 259.976562 65.234375 270.949219 68.460938 280.445312 74.066406 C 289.953125 79.671875 298.015625 87.644531 303.863281 97.390625 C 316.050781 117.75 318.605469 145.875 304.503906 176.347656 C 305.871094 177.101562 307.238281 177.824219 308.632812 178.535156 C 319.945312 184.265625 332.1875 188.625 345.058594 192.414062 C 347.460938 192.890625 349.292969 195.011719 349.292969 197.566406 L 349.292969 233.0625 C 349.292969 244.421875 347.707031 254.703125 344.839844 264.097656 C 341.957031 273.503906 337.773438 281.964844 332.570312 289.664062 Z M 43.199219 176.886719 C 40.304688 176.886719 37.953125 174.535156 37.953125 171.636719 C 37.953125 168.738281 40.304688 166.386719 43.199219 166.386719 L 100.253906 166.386719 L 110.859375 149.515625 C 112.386719 147.066406 115.625 146.328125 118.070312 147.875 C 118.78125 148.324219 119.355469 148.914062 119.765625 149.597656 L 126.882812 160.902344 L 141.257812 131.496094 C 142.527344 128.898438 145.65625 127.832031 148.253906 129.101562 C 149.429688 129.675781 150.304688 130.648438 150.765625 131.769531 L 178.777344 198.160156 L 197.90625 167.453125 C 198.902344 165.867188 200.609375 164.976562 202.359375 164.976562 L 223.277344 164.964844 C 226.171875 164.964844 228.523438 167.316406 228.523438 170.214844 C 228.523438 173.113281 226.171875 175.464844 223.277344 175.464844 L 205.269531 175.464844 L 182.34375 212.257812 C 181.78125 213.132812 180.964844 213.871094 179.925781 214.308594 C 177.273438 215.429688 174.199219 214.171875 173.078125 211.519531 L 145.617188 146.410156 L 132.296875 173.671875 C 131.898438 174.628906 131.203125 175.476562 130.257812 176.066406 C 127.8125 177.597656 124.574219 176.871094 123.046875 174.425781 L 115.296875 162.132812 L 107.769531 174.109375 C 106.882812 175.765625 105.148438 176.886719 103.140625 176.886719 Z M 260.484375 230.273438 L 260.484375 212.664062 C 260.484375 209.765625 262.832031 207.414062 265.730469 207.414062 L 282.738281 207.414062 C 285.636719 207.414062 287.988281 209.765625 287.988281 212.664062 L 287.988281 230.273438 L 305.585938 230.273438 C 308.480469 230.273438 310.832031 232.625 310.832031 235.523438 L 310.832031 252.53125 C 310.832031 255.429688 308.480469 257.78125 305.585938 257.78125 L 287.988281 257.78125 L 287.988281 275.390625 C 287.988281 278.289062 285.636719 280.640625 282.738281 280.640625 L 265.730469 280.640625 C 262.832031 280.640625 260.484375 278.289062 260.484375 275.390625 L 260.484375 257.78125 L 242.886719 257.78125 C 239.988281 257.78125 237.636719 255.429688 237.636719 252.53125 L 237.636719 235.523438 C 237.636719 232.625 239.988281 230.273438 242.886719 230.273438 Z M 270.976562 217.914062 L 270.976562 235.523438 C 270.976562 238.421875 268.625 240.773438 265.730469 240.773438 L 248.132812 240.773438 L 248.132812 247.28125 L 265.730469 247.28125 C 268.625 247.28125 270.976562 249.632812 270.976562 252.53125 L 270.976562 270.140625 L 277.492188 270.140625 L 277.492188 252.53125 C 277.492188 249.632812 279.84375 247.28125 282.738281 247.28125 L 300.335938 247.28125 L 300.335938 240.773438 L 282.738281 240.773438 C 279.84375 240.773438 277.492188 238.421875 277.492188 235.523438 L 277.492188 217.914062 Z M 319.425781 305.730469 C 317.429688 307.808594 314.113281 307.875 312.019531 305.878906 C 309.945312 303.882812 309.875 300.5625 311.871094 298.46875 L 312.417969 297.910156 C 314.410156 295.832031 317.730469 295.761719 319.824219 297.757812 C 321.898438 299.753906 321.96875 303.078125 319.972656 305.167969 Z M 319.425781 305.730469 "/></g></svg>