<svg xmlns="http://www.w3.org/2000/svg" xmlns:xlink="http://www.w3.org/1999/xlink" width="512" zoomAndPan="magnify" viewBox="0 0 384 383.999986" height="512" preserveAspectRatio="xMidYMid meet" version="1.2"><g id="808d21f80a"><path style=" stroke:none;fill-rule:nonzero;fill:#000000;fill-opacity:1;" d="M 233.125 314.425781 L 233.125 341.074219 C 233.125 343.871094 230.855469 346.140625 228.058594 346.140625 C 225.257812 346.140625 222.988281 343.871094 222.988281 341.074219 L 222.988281 314.425781 C 222.988281 311.628906 225.257812 309.359375 228.058594 309.359375 C 230.855469 309.359375 233.125 311.628906 233.125 314.425781 Z M 156.695312 309.359375 C 153.898438 309.359375 151.628906 311.628906 151.628906 314.425781 L 151.628906 341.074219 C 151.628906 343.871094 153.898438 346.140625 156.695312 346.140625 C 159.496094 346.140625 161.765625 343.871094 161.765625 341.074219 L 161.765625 314.425781 C 161.765625 311.628906 159.496094 309.359375 156.695312 309.359375 Z M 315.558594 131.941406 L 315.558594 324.617188 C 315.558594 327.414062 313.289062 329.683594 310.492188 329.683594 C 307.695312 329.683594 305.425781 327.414062 305.425781 324.617188 L 305.425781 291.347656 C 305.425781 280.710938 295.925781 272.058594 284.246094 272.058594 L 246.207031 272.058594 C 244.566406 272.058594 242.945312 272.230469 241.375 272.570312 C 254.546875 279.546875 263.460938 292.785156 263.460938 307.945312 L 263.460938 341.070312 C 263.460938 343.867188 261.191406 346.136719 258.394531 346.136719 C 255.597656 346.136719 253.328125 343.867188 253.328125 341.070312 L 253.328125 307.945312 C 253.328125 291.132812 238.429688 277.460938 220.121094 277.460938 L 206.628906 277.460938 C 206.710938 279.675781 206.292969 281.855469 205.460938 283.289062 C 204.835938 284.378906 204.03125 285.371094 203.09375 286.234375 L 210.746094 329.257812 C 211.070312 331.0625 210.386719 332.90625 208.960938 334.066406 L 195.570312 344.996094 C 194.636719 345.757812 193.5 346.140625 192.363281 346.140625 C 191.226562 346.140625 190.09375 345.757812 189.160156 344.996094 L 175.765625 334.066406 C 174.339844 332.90625 173.660156 331.0625 173.980469 329.257812 L 181.648438 286.242188 C 180.699219 285.375 179.890625 284.375 179.257812 283.277344 C 178.4375 281.828125 178.03125 279.65625 178.113281 277.460938 L 164.625 277.460938 C 146.304688 277.460938 131.398438 291.136719 131.398438 307.945312 L 131.398438 341.070312 C 131.398438 343.867188 129.128906 346.136719 126.332031 346.136719 C 123.535156 346.136719 121.265625 343.867188 121.265625 341.070312 L 121.265625 307.945312 C 121.265625 292.789062 130.183594 279.550781 143.359375 272.574219 C 141.785156 272.234375 140.164062 272.058594 138.523438 272.058594 L 100.5 272.058594 C 88.824219 272.058594 79.320312 280.710938 79.320312 291.347656 L 79.320312 324.617188 C 79.320312 327.414062 77.050781 329.683594 74.253906 329.683594 C 71.457031 329.683594 69.1875 327.414062 69.1875 324.617188 L 69.1875 131.941406 C 69.1875 129.648438 70.726562 127.640625 72.941406 127.046875 L 128.484375 112.171875 L 128.484375 68.882812 C 128.484375 66.085938 130.753906 63.816406 133.550781 63.816406 L 146.902344 63.816406 L 146.902344 43.523438 C 146.902344 40.730469 149.171875 38.460938 151.96875 38.460938 L 232.753906 38.460938 C 235.550781 38.460938 237.820312 40.730469 237.820312 43.523438 L 237.820312 63.816406 L 251.171875 63.816406 C 253.96875 63.816406 256.238281 66.085938 256.238281 68.882812 L 256.238281 112.171875 L 311.796875 127.046875 C 314.015625 127.640625 315.550781 129.648438 315.550781 131.941406 Z M 284.636719 234.480469 C 284.636719 223.777344 275.925781 215.066406 265.21875 215.066406 C 254.511719 215.066406 245.816406 223.777344 245.816406 234.480469 C 245.816406 245.878906 251.839844 261.933594 265.21875 261.933594 C 278.601562 261.933594 284.636719 245.878906 284.636719 234.480469 Z M 157.039062 63.816406 L 227.691406 63.816406 L 227.691406 48.589844 L 157.039062 48.589844 Z M 138.9375 234.480469 C 138.9375 223.777344 130.226562 215.066406 119.519531 215.066406 C 108.8125 215.066406 100.097656 223.777344 100.097656 234.480469 C 100.097656 245.878906 106.121094 261.933594 119.519531 261.933594 C 132.914062 261.933594 138.9375 245.878906 138.9375 234.480469 Z M 98.960938 261.964844 C 93.050781 254.679688 89.960938 244.410156 89.960938 234.480469 C 89.960938 218.191406 103.222656 204.9375 119.515625 204.9375 C 122.644531 204.9375 125.65625 205.429688 128.488281 206.335938 L 128.488281 122.660156 L 79.324219 135.828125 L 79.324219 269.707031 C 84.546875 265.191406 91.40625 262.320312 98.957031 261.96875 Z M 223.007812 224.96875 C 223.007812 208.082031 209.261719 194.339844 192.367188 194.339844 C 175.472656 194.339844 161.726562 208.082031 161.726562 224.96875 C 161.726562 234.976562 164.601562 245.609375 169.414062 253.421875 C 175.105469 262.652344 182.824219 267.332031 192.363281 267.332031 C 214.6875 267.332031 223.003906 241.34375 223.003906 224.96875 Z M 196.050781 277.460938 L 188.707031 277.460938 C 188.515625 277.460938 188.367188 277.480469 188.25 277.507812 C 188.214844 277.835938 188.210938 278.222656 188.238281 278.503906 C 188.492188 278.8125 188.882812 279.113281 189.308594 279.304688 C 191.421875 280.257812 192.613281 282.527344 192.210938 284.808594 L 184.492188 328.105469 L 192.375 334.535156 L 200.257812 328.101562 L 192.554688 284.804688 C 192.152344 282.523438 193.34375 280.257812 195.457031 279.304688 C 195.875 279.117188 196.257812 278.820312 196.515625 278.492188 C 196.542969 278.214844 196.539062 277.832031 196.503906 277.507812 C 196.390625 277.484375 196.242188 277.464844 196.054688 277.464844 Z M 227.347656 267.910156 C 232.359375 264.332031 238.386719 262.257812 244.679688 261.96875 C 238.769531 254.683594 235.6875 244.414062 235.6875 234.484375 C 235.6875 225.476562 239.742188 217.402344 246.117188 211.980469 L 246.117188 73.945312 L 138.625 73.945312 L 138.625 211.96875 C 145.011719 217.390625 149.074219 225.46875 149.074219 234.484375 C 149.074219 242.851562 146.628906 251.816406 142.527344 258.464844 C 141.753906 259.71875 140.917969 260.882812 140.039062 261.96875 C 146.332031 262.253906 152.371094 264.332031 157.40625 267.914062 C 159.757812 267.539062 162.171875 267.335938 164.632812 267.335938 L 167.578125 267.335938 C 165.089844 264.894531 162.820312 262.023438 160.789062 258.738281 C 155.035156 249.398438 151.59375 236.773438 151.59375 224.972656 C 151.59375 202.5 169.886719 184.214844 192.367188 184.214844 C 214.847656 184.214844 233.144531 202.5 233.144531 224.972656 C 233.144531 237.257812 229.675781 249.746094 223.632812 259.242188 C 221.671875 262.320312 219.5 265.019531 217.132812 267.335938 L 220.125 267.335938 C 222.585938 267.335938 224.996094 267.539062 227.347656 267.910156 Z M 305.429688 269.703125 L 305.429688 135.824219 L 256.25 122.65625 L 256.25 206.335938 C 259.082031 205.429688 262.09375 204.9375 265.222656 204.9375 C 281.519531 204.9375 294.777344 218.191406 294.777344 234.480469 C 294.777344 244.414062 291.691406 254.679688 285.78125 261.964844 C 293.339844 262.308594 300.203125 265.1875 305.433594 269.703125 Z M 196.636719 124.582031 L 196.636719 94.992188 C 196.636719 92.195312 198.90625 89.925781 201.707031 89.925781 L 232.761719 89.925781 C 235.558594 89.925781 237.828125 92.195312 237.828125 94.992188 L 237.828125 124.582031 C 237.828125 127.378906 235.558594 129.648438 232.761719 129.648438 L 201.707031 129.648438 C 198.90625 129.648438 196.636719 127.378906 196.636719 124.582031 Z M 206.773438 119.519531 L 227.695312 119.519531 L 227.695312 100.058594 L 206.773438 100.058594 Z M 188.101562 94.992188 L 188.101562 124.582031 C 188.101562 127.378906 185.832031 129.648438 183.035156 129.648438 L 151.976562 129.648438 C 149.179688 129.648438 146.910156 127.378906 146.910156 124.582031 L 146.910156 94.992188 C 146.910156 92.195312 149.179688 89.925781 151.976562 89.925781 L 183.035156 89.925781 C 185.832031 89.925781 188.101562 92.195312 188.101562 94.992188 Z M 177.964844 100.058594 L 157.042969 100.058594 L 157.042969 119.519531 L 177.964844 119.519531 Z M 232.761719 176.449219 L 201.707031 176.449219 C 198.90625 176.449219 196.636719 174.179688 196.636719 171.386719 L 196.636719 141.792969 C 196.636719 139 198.90625 136.730469 201.707031 136.730469 L 232.761719 136.730469 C 235.558594 136.730469 237.828125 139 237.828125 141.792969 L 237.828125 171.386719 C 237.828125 174.179688 235.558594 176.449219 232.761719 176.449219 Z M 227.695312 146.859375 L 206.773438 146.859375 L 206.773438 166.320312 L 227.695312 166.320312 Z M 188.101562 141.792969 L 188.101562 171.386719 C 188.101562 174.179688 185.832031 176.449219 183.035156 176.449219 L 151.976562 176.449219 C 149.179688 176.449219 146.910156 174.179688 146.910156 171.386719 L 146.910156 141.792969 C 146.910156 139 149.179688 136.730469 151.976562 136.730469 L 183.035156 136.730469 C 185.832031 136.730469 188.101562 139 188.101562 141.792969 Z M 177.964844 146.859375 L 157.042969 146.859375 L 157.042969 166.320312 L 177.964844 166.320312 Z M 299.6875 151.234375 L 299.6875 180.808594 C 299.6875 183.605469 297.417969 185.875 294.621094 185.875 L 267.046875 185.875 C 264.25 185.875 261.980469 183.605469 261.980469 180.808594 L 261.980469 151.234375 C 261.980469 148.4375 264.25 146.167969 267.046875 146.167969 L 294.621094 146.167969 C 297.417969 146.167969 299.6875 148.4375 299.6875 151.234375 Z M 289.554688 156.296875 L 272.113281 156.296875 L 272.113281 175.742188 L 289.554688 175.742188 Z M 90.128906 185.875 C 87.332031 185.875 85.058594 183.605469 85.058594 180.808594 L 85.058594 151.234375 C 85.058594 148.4375 87.332031 146.167969 90.128906 146.167969 L 117.683594 146.167969 C 120.480469 146.167969 122.75 148.4375 122.75 151.234375 L 122.75 180.808594 C 122.75 183.605469 120.480469 185.875 117.683594 185.875 Z M 95.195312 175.742188 L 112.621094 175.742188 L 112.621094 156.296875 L 95.195312 156.296875 Z M 95.195312 175.742188 "/></g></svg>