<svg xmlns="http://www.w3.org/2000/svg" xmlns:xlink="http://www.w3.org/1999/xlink" width="512" zoomAndPan="magnify" viewBox="0 0 384 383.999986" height="512" preserveAspectRatio="xMidYMid meet" version="1.2"><g id="989747aacf"><path style=" stroke:none;fill-rule:nonzero;fill:#000000;fill-opacity:1;" d="M 111.6875 209.738281 C 111.6875 192.710938 97.878906 178.894531 80.867188 178.894531 C 63.855469 178.894531 50.046875 192.710938 50.046875 209.738281 C 50.046875 226.761719 63.855469 240.582031 80.867188 240.582031 C 97.878906 240.582031 111.6875 226.761719 111.6875 209.738281 Z M 80.867188 228.242188 C 70.695312 228.242188 62.375 219.917969 62.375 209.738281 C 62.375 199.558594 70.695312 191.230469 80.867188 191.230469 C 91.039062 191.230469 99.359375 199.558594 99.359375 209.738281 C 99.359375 219.917969 91.039062 228.242188 80.867188 228.242188 Z M 80.867188 228.242188 "/><path style=" stroke:none;fill-rule:nonzero;fill:#000000;fill-opacity:1;" d="M 154.835938 117.207031 C 154.835938 137.625 171.417969 154.21875 191.820312 154.21875 C 212.222656 154.21875 228.804688 137.625 228.804688 117.207031 C 228.804688 96.789062 212.222656 80.195312 191.820312 80.195312 C 171.417969 80.195312 154.835938 96.789062 154.835938 117.207031 Z M 191.820312 92.535156 C 205.441406 92.535156 216.476562 103.574219 216.476562 117.207031 C 216.476562 130.839844 205.441406 141.882812 191.820312 141.882812 C 178.199219 141.882812 167.164062 130.839844 167.164062 117.207031 C 167.164062 103.574219 178.199219 92.535156 191.820312 92.535156 Z M 191.820312 92.535156 "/><path style=" stroke:none;fill-rule:nonzero;fill:#000000;fill-opacity:1;" d="M 265.789062 209.738281 C 265.789062 201.535156 263.386719 193.699219 259.070312 186.667969 C 262.398438 183.152344 265.542969 179.449219 268.253906 175.441406 L 258.085938 168.46875 C 256.050781 171.429688 253.769531 174.207031 251.367188 176.859375 C 241.441406 166.679688 226.894531 159.09375 209.636719 155.886719 C 206.859375 155.390625 204.085938 156.8125 202.914062 159.339844 C 200.882812 163.71875 196.503906 166.558594 191.757812 166.558594 C 187.011719 166.558594 182.636719 163.71875 180.601562 159.339844 C 179.429688 156.8125 176.65625 155.390625 173.882812 155.886719 C 156.625 159.09375 142.136719 166.679688 132.152344 176.859375 C 129.75 174.207031 127.46875 171.429688 125.433594 168.46875 L 115.261719 175.441406 C 117.976562 179.449219 121.117188 183.152344 124.449219 186.667969 C 120.132812 193.761719 117.730469 201.59375 117.730469 209.738281 C 117.730469 229.109375 131.042969 246.195312 151.136719 256.125 C 149.410156 264.886719 148.550781 274.140625 148.550781 283.761719 C 148.550781 328.730469 167.472656 363.953125 191.699219 363.953125 C 215.921875 363.953125 234.847656 328.730469 234.847656 283.761719 C 234.847656 274.140625 233.921875 264.886719 232.257812 256.125 C 252.351562 246.195312 265.667969 229.109375 265.667969 209.738281 Z M 130.179688 209.738281 C 130.179688 191.230469 147.191406 174.824219 172.09375 168.902344 C 176.347656 174.636719 182.945312 178.277344 190.15625 178.773438 C 188.308594 185.308594 185.71875 195.179688 185.71875 197.402344 C 185.71875 200.792969 191.882812 209.738281 191.882812 209.738281 C 191.882812 209.738281 198.046875 200.792969 198.046875 197.402344 C 198.046875 195.179688 195.394531 185.371094 193.609375 178.773438 C 200.757812 178.277344 207.414062 174.636719 211.667969 168.902344 C 236.511719 174.824219 253.585938 191.230469 253.585938 209.738281 C 253.585938 233.550781 225.90625 252.917969 191.945312 252.917969 C 157.980469 252.917969 130.304688 233.550781 130.304688 209.738281 Z M 197.984375 349.953125 L 197.984375 283.761719 L 185.65625 283.761719 L 185.65625 349.953125 C 173.019531 343.535156 161 318.121094 161 283.761719 C 161 275.804688 161.679688 268.15625 162.910156 260.816406 C 171.789062 263.652344 181.589844 265.257812 191.820312 265.257812 C 202.054688 265.257812 211.855469 263.652344 220.730469 260.816406 C 222.023438 268.09375 222.640625 275.804688 222.640625 283.761719 C 222.640625 318.183594 210.621094 343.535156 197.984375 349.953125 Z M 197.984375 349.953125 "/><path style=" stroke:none;fill-rule:nonzero;fill:#000000;fill-opacity:1;" d="M 241.132812 209.738281 L 228.804688 209.738281 C 228.804688 218.496094 213.640625 228.242188 191.820312 228.242188 C 170 228.242188 154.835938 218.496094 154.835938 209.738281 L 142.507812 209.738281 C 142.507812 227.011719 164.144531 240.582031 191.820312 240.582031 C 219.496094 240.582031 241.132812 227.011719 241.132812 209.738281 Z M 241.132812 209.738281 "/><path style=" stroke:none;fill-rule:nonzero;fill:#000000;fill-opacity:1;" d="M 80.867188 240.582031 C 49.246094 240.582031 25.390625 253.84375 25.390625 271.425781 C 25.390625 282.714844 35.253906 292.210938 50.726562 297.578125 C 50.355469 301.15625 50.046875 304.734375 50.046875 308.4375 C 50.046875 340.082031 63.300781 363.953125 80.867188 363.953125 C 98.433594 363.953125 111.6875 340.082031 111.6875 308.4375 C 111.6875 304.734375 111.441406 301.15625 111.011719 297.578125 C 126.421875 292.210938 136.34375 282.714844 136.34375 271.425781 C 136.34375 253.84375 112.488281 240.582031 80.867188 240.582031 Z M 80.867188 351.617188 C 72.113281 351.617188 62.375 333.171875 62.375 308.4375 C 62.375 305.785156 62.5 303.191406 62.746094 300.664062 C 68.417969 301.710938 74.457031 302.269531 80.867188 302.269531 C 87.277344 302.269531 93.378906 301.710938 98.988281 300.664062 C 99.238281 303.191406 99.359375 305.785156 99.359375 308.4375 C 99.359375 333.171875 89.621094 351.617188 80.867188 351.617188 Z M 80.867188 289.929688 C 56.148438 289.929688 37.71875 280.183594 37.71875 271.425781 C 37.71875 262.664062 56.148438 252.917969 80.867188 252.917969 C 105.585938 252.917969 124.015625 262.664062 124.015625 271.425781 C 124.015625 280.183594 105.585938 289.929688 80.867188 289.929688 Z M 80.867188 289.929688 "/><path style=" stroke:none;fill-rule:nonzero;fill:#000000;fill-opacity:1;" d="M 333.59375 209.738281 C 333.59375 192.710938 319.785156 178.894531 302.773438 178.894531 C 285.761719 178.894531 271.953125 192.710938 271.953125 209.738281 C 271.953125 226.761719 285.761719 240.582031 302.773438 240.582031 C 319.785156 240.582031 333.59375 226.761719 333.59375 209.738281 Z M 302.773438 228.242188 C 292.601562 228.242188 284.28125 219.917969 284.28125 209.738281 C 284.28125 199.558594 292.601562 191.230469 302.773438 191.230469 C 312.945312 191.230469 321.265625 199.558594 321.265625 209.738281 C 321.265625 219.917969 312.945312 228.242188 302.773438 228.242188 Z M 302.773438 228.242188 "/><path style=" stroke:none;fill-rule:nonzero;fill:#000000;fill-opacity:1;" d="M 302.773438 240.582031 C 271.152344 240.582031 247.296875 253.84375 247.296875 271.425781 C 247.296875 282.714844 257.160156 292.210938 272.632812 297.578125 C 272.261719 301.15625 271.953125 304.734375 271.953125 308.4375 C 271.953125 340.082031 285.207031 363.953125 302.773438 363.953125 C 320.339844 363.953125 333.59375 340.082031 333.59375 308.4375 C 333.59375 304.734375 333.347656 301.15625 332.917969 297.578125 C 348.328125 292.210938 358.25 282.714844 358.25 271.425781 C 358.25 253.84375 334.394531 240.582031 302.773438 240.582031 Z M 302.773438 351.617188 C 294.019531 351.617188 284.28125 333.171875 284.28125 308.4375 C 284.28125 305.785156 284.40625 303.191406 284.652344 300.664062 C 290.324219 301.710938 296.363281 302.269531 302.773438 302.269531 C 309.183594 302.269531 315.285156 301.710938 320.894531 300.664062 C 321.144531 303.191406 321.265625 305.785156 321.265625 308.4375 C 321.265625 333.171875 311.527344 351.617188 302.773438 351.617188 Z M 302.773438 289.929688 C 278.054688 289.929688 259.625 280.183594 259.625 271.425781 C 259.625 262.664062 278.054688 252.917969 302.773438 252.917969 C 327.492188 252.917969 345.921875 262.664062 345.921875 271.425781 C 345.921875 280.183594 327.492188 289.929688 302.773438 289.929688 Z M 302.773438 289.929688 "/><path style=" stroke:none;fill-rule:nonzero;fill:#000000;fill-opacity:1;" d="M 101.085938 105.613281 C 99.976562 111.410156 99.359375 117.394531 99.359375 123.378906 C 99.359375 129.359375 99.976562 135.777344 101.207031 141.820312 L 113.289062 139.355469 C 112.242188 134.109375 111.6875 128.742188 111.6875 123.378906 C 111.6875 118.011719 112.179688 113.015625 113.167969 107.957031 Z M 101.085938 105.613281 "/><path style=" stroke:none;fill-rule:nonzero;fill:#000000;fill-opacity:1;" d="M 282.433594 142.007812 C 283.664062 135.898438 284.28125 129.667969 284.28125 123.378906 C 284.28125 117.457031 283.726562 111.535156 282.617188 105.796875 L 270.535156 108.140625 C 271.523438 113.136719 271.953125 118.257812 271.953125 123.378906 C 271.953125 128.804688 271.398438 134.234375 270.351562 139.539062 Z M 282.433594 142.007812 "/><path style=" stroke:none;fill-rule:nonzero;fill:#000000;fill-opacity:1;" d="M 147.253906 56.695312 L 140.414062 46.453125 C 130.242188 53.300781 121.671875 61.875 114.894531 72.117188 L 125.125 78.964844 C 131.042969 70.140625 138.441406 62.679688 147.253906 56.757812 Z M 147.253906 56.695312 "/><path style=" stroke:none;fill-rule:nonzero;fill:#000000;fill-opacity:1;" d="M 207.601562 44.726562 L 210.003906 32.636719 C 198.167969 30.292969 185.65625 30.292969 173.820312 32.636719 L 176.226562 44.726562 C 186.457031 42.691406 197.367188 42.691406 207.601562 44.726562 Z M 207.601562 44.726562 "/><path style=" stroke:none;fill-rule:nonzero;fill:#000000;fill-opacity:1;" d="M 268.871094 72.238281 C 262.089844 62.0625 253.523438 53.425781 243.351562 46.578125 L 236.449219 56.816406 C 245.261719 62.738281 252.660156 70.265625 258.578125 79.085938 Z M 268.871094 72.238281 "/></g></svg>