<svg xmlns="http://www.w3.org/2000/svg" xmlns:xlink="http://www.w3.org/1999/xlink" width="512" zoomAndPan="magnify" viewBox="0 0 384 383.999986" height="512" preserveAspectRatio="xMidYMid meet" version="1.2"><g id="96e41d463c"><path style=" stroke:none;fill-rule:nonzero;fill:#000000;fill-opacity:1;" d="M 120.855469 137.089844 C 123.871094 137.089844 126.316406 134.640625 126.316406 131.625 L 126.316406 66.035156 L 268.300781 66.035156 L 268.300781 93.363281 C 268.300781 96.382812 270.742188 98.832031 273.761719 98.832031 C 276.78125 98.832031 279.222656 96.382812 279.222656 93.363281 L 279.222656 38.707031 C 279.222656 35.691406 276.78125 33.242188 273.761719 33.242188 L 197.308594 33.242188 C 194.292969 33.242188 191.847656 35.691406 191.847656 38.707031 L 191.847656 55.105469 L 120.855469 55.105469 C 117.839844 55.105469 115.394531 57.554688 115.394531 60.570312 L 115.394531 131.625 C 115.394531 134.640625 117.839844 137.089844 120.855469 137.089844 Z M 202.769531 44.175781 L 268.300781 44.175781 L 268.300781 55.105469 L 202.769531 55.105469 Z M 202.769531 44.175781 "/><path style=" stroke:none;fill-rule:nonzero;fill:#000000;fill-opacity:1;" d="M 164.542969 208.144531 L 142.699219 208.144531 C 139.683594 208.144531 137.238281 210.589844 137.238281 213.609375 L 137.238281 235.472656 C 137.238281 238.488281 139.683594 240.9375 142.699219 240.9375 L 164.542969 240.9375 C 167.558594 240.9375 170.003906 238.488281 170.003906 235.472656 L 170.003906 213.609375 C 170.003906 210.589844 167.558594 208.144531 164.542969 208.144531 Z M 159.082031 230.003906 L 148.160156 230.003906 L 148.160156 219.074219 L 159.082031 219.074219 Z M 159.082031 230.003906 "/><path style=" stroke:none;fill-rule:nonzero;fill:#000000;fill-opacity:1;" d="M 170.003906 169.882812 C 170.003906 166.867188 167.558594 164.417969 164.542969 164.417969 L 142.699219 164.417969 C 139.683594 164.417969 137.238281 166.867188 137.238281 169.882812 L 137.238281 191.746094 C 137.238281 194.761719 139.683594 197.210938 142.699219 197.210938 L 164.542969 197.210938 C 167.558594 197.210938 170.003906 194.761719 170.003906 191.746094 Z M 159.082031 186.28125 L 148.160156 186.28125 L 148.160156 175.347656 L 159.082031 175.347656 Z M 159.082031 186.28125 "/><path style=" stroke:none;fill-rule:nonzero;fill:#000000;fill-opacity:1;" d="M 208.230469 164.417969 L 186.386719 164.417969 C 183.371094 164.417969 180.925781 166.867188 180.925781 169.882812 L 180.925781 191.746094 C 180.925781 194.761719 183.371094 197.210938 186.386719 197.210938 L 208.230469 197.210938 C 211.25 197.210938 213.691406 194.761719 213.691406 191.746094 L 213.691406 169.882812 C 213.691406 166.867188 211.25 164.417969 208.230469 164.417969 Z M 202.769531 186.28125 L 191.847656 186.28125 L 191.847656 175.347656 L 202.769531 175.347656 Z M 202.769531 186.28125 "/><path style=" stroke:none;fill-rule:nonzero;fill:#000000;fill-opacity:1;" d="M 170.003906 126.160156 C 170.003906 123.140625 167.558594 120.691406 164.542969 120.691406 L 142.699219 120.691406 C 139.683594 120.691406 137.238281 123.140625 137.238281 126.160156 L 137.238281 148.019531 C 137.238281 151.039062 139.683594 153.488281 142.699219 153.488281 L 164.542969 153.488281 C 167.558594 153.488281 170.003906 151.039062 170.003906 148.019531 Z M 159.082031 142.554688 L 148.160156 142.554688 L 148.160156 131.625 L 159.082031 131.625 Z M 159.082031 142.554688 "/><path style=" stroke:none;fill-rule:nonzero;fill:#000000;fill-opacity:1;" d="M 213.691406 126.160156 C 213.691406 123.140625 211.25 120.691406 208.230469 120.691406 L 186.386719 120.691406 C 183.371094 120.691406 180.925781 123.140625 180.925781 126.160156 L 180.925781 148.019531 C 180.925781 151.039062 183.371094 153.488281 186.386719 153.488281 L 208.230469 153.488281 C 211.25 153.488281 213.691406 151.039062 213.691406 148.019531 Z M 202.769531 142.554688 L 191.847656 142.554688 L 191.847656 131.625 L 202.769531 131.625 Z M 202.769531 142.554688 "/><path style=" stroke:none;fill-rule:nonzero;fill:#000000;fill-opacity:1;" d="M 251.917969 120.691406 L 230.074219 120.691406 C 227.054688 120.691406 224.613281 123.140625 224.613281 126.160156 L 224.613281 148.019531 C 224.613281 151.039062 227.054688 153.488281 230.074219 153.488281 L 251.917969 153.488281 C 254.9375 153.488281 257.378906 151.039062 257.378906 148.019531 L 257.378906 126.160156 C 257.378906 123.140625 254.9375 120.691406 251.917969 120.691406 Z M 246.457031 142.554688 L 235.535156 142.554688 L 235.535156 131.625 L 246.457031 131.625 Z M 246.457031 142.554688 "/><path style=" stroke:none;fill-rule:nonzero;fill:#000000;fill-opacity:1;" d="M 170.003906 82.433594 C 170.003906 79.417969 167.558594 76.96875 164.542969 76.96875 L 142.699219 76.96875 C 139.683594 76.96875 137.238281 79.417969 137.238281 82.433594 L 137.238281 104.296875 C 137.238281 107.3125 139.683594 109.761719 142.699219 109.761719 L 164.542969 109.761719 C 167.558594 109.761719 170.003906 107.3125 170.003906 104.296875 Z M 159.082031 98.832031 L 148.160156 98.832031 L 148.160156 87.898438 L 159.082031 87.898438 Z M 159.082031 98.832031 "/><path style=" stroke:none;fill-rule:nonzero;fill:#000000;fill-opacity:1;" d="M 213.691406 82.433594 C 213.691406 79.417969 211.25 76.96875 208.230469 76.96875 L 186.386719 76.96875 C 183.371094 76.96875 180.925781 79.417969 180.925781 82.433594 L 180.925781 104.296875 C 180.925781 107.3125 183.371094 109.761719 186.386719 109.761719 L 208.230469 109.761719 C 211.25 109.761719 213.691406 107.3125 213.691406 104.296875 Z M 202.769531 98.832031 L 191.847656 98.832031 L 191.847656 87.898438 L 202.769531 87.898438 Z M 202.769531 98.832031 "/><path style=" stroke:none;fill-rule:nonzero;fill:#000000;fill-opacity:1;" d="M 257.378906 82.433594 C 257.378906 79.417969 254.9375 76.96875 251.917969 76.96875 L 230.074219 76.96875 C 227.054688 76.96875 224.613281 79.417969 224.613281 82.433594 L 224.613281 104.296875 C 224.613281 107.3125 227.054688 109.761719 230.074219 109.761719 L 251.917969 109.761719 C 254.9375 109.761719 257.378906 107.3125 257.378906 104.296875 Z M 246.457031 98.832031 L 235.535156 98.832031 L 235.535156 87.898438 L 246.457031 87.898438 Z M 246.457031 98.832031 "/><path style=" stroke:none;fill-rule:nonzero;fill:#000000;fill-opacity:1;" d="M 55.324219 230.003906 L 77.167969 230.003906 C 80.183594 230.003906 82.628906 227.558594 82.628906 224.539062 L 82.628906 202.675781 C 82.628906 199.660156 80.183594 197.210938 77.167969 197.210938 L 55.324219 197.210938 C 52.3125 197.210938 49.863281 199.660156 49.863281 202.675781 L 49.863281 224.539062 C 49.863281 227.558594 52.3125 230.003906 55.324219 230.003906 Z M 60.785156 208.144531 L 71.707031 208.144531 L 71.707031 219.074219 L 60.785156 219.074219 Z M 60.785156 208.144531 "/><path style=" stroke:none;fill-rule:nonzero;fill:#000000;fill-opacity:1;" d="M 49.863281 268.265625 C 49.863281 271.28125 52.3125 273.730469 55.324219 273.730469 L 77.167969 273.730469 C 80.183594 273.730469 82.628906 271.28125 82.628906 268.265625 L 82.628906 246.402344 C 82.628906 243.386719 80.183594 240.9375 77.167969 240.9375 L 55.324219 240.9375 C 52.3125 240.9375 49.863281 243.386719 49.863281 246.402344 Z M 60.785156 251.867188 L 71.707031 251.867188 L 71.707031 262.800781 L 60.785156 262.800781 Z M 60.785156 251.867188 "/><path style=" stroke:none;fill-rule:nonzero;fill:#000000;fill-opacity:1;" d="M 350.210938 235.472656 C 347.191406 235.472656 344.75 237.917969 344.75 240.9375 L 344.75 267.582031 C 344.75 293.011719 331.042969 316.652344 308.984375 329.273438 L 273.761719 349.417969 L 238.539062 329.273438 C 216.476562 316.65625 202.769531 293.011719 202.769531 267.582031 L 202.769531 224.390625 C 230.089844 222.910156 255.65625 210.355469 273.570312 189.433594 L 273.761719 189.210938 L 273.953125 189.433594 C 293.058594 211.746094 320.855469 224.539062 350.210938 224.539062 C 353.230469 224.539062 355.671875 222.089844 355.671875 219.074219 C 355.671875 216.058594 353.230469 213.609375 350.210938 213.609375 C 340.824219 213.609375 331.640625 212.082031 322.90625 209.285156 L 322.90625 115.226562 C 322.90625 112.210938 320.46875 109.761719 317.445312 109.761719 L 273.761719 109.761719 C 270.742188 109.761719 268.300781 112.210938 268.300781 115.226562 L 268.300781 178.792969 L 265.28125 182.316406 C 262.816406 185.191406 260.144531 187.839844 257.378906 190.351562 L 257.378906 169.882812 C 257.378906 166.867188 254.9375 164.417969 251.917969 164.417969 L 230.074219 164.417969 C 227.054688 164.417969 224.613281 166.867188 224.613281 169.882812 L 224.613281 191.746094 C 224.613281 194.761719 227.054688 197.210938 230.074219 197.210938 L 248.753906 197.210938 C 233.824219 207.726562 215.953125 213.609375 197.308594 213.609375 C 194.292969 213.609375 191.847656 216.058594 191.847656 219.074219 L 191.847656 251.867188 L 164.542969 251.867188 C 161.527344 251.867188 159.082031 254.316406 159.082031 257.332031 L 159.082031 317.457031 L 126.316406 317.457031 L 126.316406 153.488281 C 126.316406 150.46875 123.871094 148.019531 120.855469 148.019531 C 117.839844 148.019531 115.394531 150.46875 115.394531 153.488281 L 115.394531 175.347656 L 33.480469 175.347656 C 30.46875 175.347656 28.019531 177.796875 28.019531 180.816406 L 28.019531 322.921875 C 28.019531 325.9375 30.46875 328.386719 33.480469 328.386719 L 55.324219 328.386719 C 58.339844 328.386719 60.785156 325.9375 60.785156 322.921875 C 60.785156 319.902344 58.339844 317.457031 55.324219 317.457031 L 38.941406 317.457031 L 38.941406 186.28125 L 115.394531 186.28125 L 115.394531 197.210938 L 99.011719 197.210938 C 96 197.210938 93.550781 199.660156 93.550781 202.675781 L 93.550781 224.539062 C 93.550781 227.558594 96 230.003906 99.011719 230.003906 L 115.394531 230.003906 L 115.394531 240.9375 L 99.011719 240.9375 C 96 240.9375 93.550781 243.386719 93.550781 246.402344 L 93.550781 268.265625 C 93.550781 271.28125 96 273.730469 99.011719 273.730469 L 115.394531 273.730469 L 115.394531 284.660156 L 77.167969 284.660156 C 74.15625 284.660156 71.707031 287.109375 71.707031 290.128906 L 71.707031 322.921875 C 71.707031 325.9375 74.15625 328.386719 77.167969 328.386719 L 194.578125 328.386719 C 197.597656 328.386719 200.039062 325.9375 200.039062 322.921875 C 200.039062 319.902344 197.597656 317.457031 194.578125 317.457031 L 170.003906 317.457031 L 170.003906 262.800781 L 191.847656 262.800781 L 191.847656 267.582031 C 191.847656 296.925781 207.660156 324.199219 233.121094 338.761719 L 271.050781 360.453125 C 271.886719 360.941406 272.828125 361.179688 273.761719 361.179688 C 274.695312 361.179688 275.632812 360.941406 276.46875 360.457031 L 314.398438 338.765625 C 339.859375 324.207031 355.671875 296.925781 355.671875 267.582031 L 355.671875 240.9375 C 355.671875 237.917969 353.230469 235.472656 350.210938 235.472656 Z M 279.222656 175.347656 L 279.222656 164.417969 L 311.984375 164.417969 L 311.984375 175.347656 Z M 311.984375 153.488281 L 279.222656 153.488281 L 279.222656 142.554688 L 311.984375 142.554688 Z M 286.023438 186.28125 L 311.984375 186.28125 L 311.984375 204.988281 C 302.347656 200.429688 293.582031 194.085938 286.023438 186.28125 Z M 279.222656 120.691406 L 311.984375 120.691406 L 311.984375 131.625 L 279.222656 131.625 Z M 246.457031 186.28125 L 235.535156 186.28125 L 235.535156 175.347656 L 246.457031 175.347656 Z M 104.472656 219.074219 L 104.472656 208.144531 L 115.394531 208.144531 L 115.394531 219.074219 Z M 104.472656 262.800781 L 104.472656 251.867188 L 115.394531 251.867188 L 115.394531 262.800781 Z M 82.628906 295.59375 L 115.394531 295.59375 L 115.394531 317.457031 L 82.628906 317.457031 Z M 82.628906 295.59375 "/><path style=" stroke:none;fill-rule:nonzero;fill:#000000;fill-opacity:1;" d="M 219.152344 251.867188 C 216.132812 251.867188 213.691406 254.316406 213.691406 257.332031 L 213.691406 267.582031 C 213.691406 289.105469 225.289062 309.105469 243.960938 319.777344 L 271.050781 335.273438 C 271.886719 335.753906 272.828125 335.996094 273.761719 335.996094 C 274.695312 335.996094 275.632812 335.753906 276.46875 335.273438 L 303.558594 319.777344 C 322.230469 309.109375 333.828125 289.105469 333.828125 267.582031 L 333.828125 238.882812 C 333.828125 236.257812 331.960938 234 329.390625 233.515625 C 310.152344 229.859375 292.152344 221.140625 277.335938 208.300781 C 275.289062 206.523438 272.238281 206.523438 270.1875 208.300781 C 255.378906 221.132812 237.378906 229.851562 218.136719 233.515625 C 215.171875 234.078125 213.226562 236.9375 213.789062 239.902344 C 214.351562 242.867188 217.222656 244.839844 220.171875 244.253906 C 239.789062 240.527344 258.21875 232.015625 273.761719 219.542969 C 288.132812 231.066406 304.964844 239.210938 322.90625 243.320312 L 322.90625 267.582031 C 322.90625 285.191406 313.421875 301.554688 298.144531 310.289062 L 273.761719 324.238281 L 249.378906 310.289062 C 234.097656 301.554688 224.613281 285.191406 224.613281 267.582031 L 224.613281 257.332031 C 224.613281 254.316406 222.171875 251.867188 219.152344 251.867188 Z M 219.152344 251.867188 "/><path style=" stroke:none;fill-rule:nonzero;fill:#000000;fill-opacity:1;" d="M 268.300781 295.59375 C 269.695312 295.59375 271.09375 295.058594 272.160156 293.992188 L 304.925781 261.199219 C 307.058594 259.0625 307.058594 255.605469 304.925781 253.46875 C 302.789062 251.332031 299.339844 251.332031 297.203125 253.46875 L 268.300781 282.398438 L 255.777344 269.867188 C 253.640625 267.730469 250.191406 267.730469 248.054688 269.867188 C 245.921875 272.003906 245.921875 275.457031 248.054688 277.59375 L 264.4375 293.992188 C 265.503906 295.058594 266.902344 295.59375 268.300781 295.59375 Z M 268.300781 295.59375 "/></g></svg>