<svg xmlns="http://www.w3.org/2000/svg" xmlns:xlink="http://www.w3.org/1999/xlink" width="512" zoomAndPan="magnify" viewBox="0 0 384 383.999986" height="512" preserveAspectRatio="xMidYMid meet" version="1.2"><g id="6ce93bebce"><path style=" stroke:none;fill-rule:nonzero;fill:#000000;fill-opacity:1;" d="M 276.414062 245.371094 C 274.070312 246.929688 270.902344 246.300781 269.34375 243.96875 C 267.785156 241.625 268.410156 238.457031 270.742188 236.898438 C 276.734375 232.886719 281.941406 228.933594 286.601562 224.484375 C 291.183594 220.113281 295.269531 215.210938 299.121094 209.230469 C 300.210938 207.539062 301.636719 205.089844 302.316406 202.835938 C 302.675781 201.652344 302.886719 200.652344 302.675781 200.425781 L 302.59375 200.347656 C 302.101562 199.945312 301.316406 199.773438 300.449219 199.855469 C 299.414062 199.945312 298.332031 200.414062 297.453125 201.292969 L 297.136719 201.613281 C 279.851562 222.273438 268.476562 225.335938 256.609375 228.53125 C 247.222656 231.0625 237.476562 233.6875 223.039062 248.140625 L 222.746094 248.40625 C 218.523438 252.695312 216.300781 261.074219 215.15625 270.929688 C 214.078125 280.1875 213.984375 290.550781 214.089844 300.277344 L 258.0625 300.277344 L 258.0625 296.917969 C 258.0625 293.296875 258.941406 289.898438 260.589844 286.875 C 262.230469 283.867188 264.640625 281.292969 267.714844 279.335938 L 315.070312 249.113281 C 316.894531 247.953125 318.414062 246.554688 319.597656 244.941406 C 320.769531 243.359375 321.636719 241.492188 322.207031 239.375 L 343.527344 159.785156 C 343.703125 159.011719 343.554688 158.214844 343.195312 157.585938 C 342.902344 157.066406 342.4375 156.628906 341.878906 156.347656 C 340.691406 156.414062 339.640625 156.65625 338.867188 157.109375 L 338.679688 157.214844 C 338.136719 157.574219 337.683594 158.121094 337.390625 158.878906 C 333.339844 169.097656 328.71875 179.140625 323.6875 188.597656 C 318.761719 197.867188 313.367188 206.726562 307.667969 214.824219 C 303.378906 221.457031 298.785156 226.960938 293.632812 231.886719 C 288.542969 236.75 282.898438 241.054688 276.414062 245.382812 Z M 173.625 132.839844 C 170.800781 132.839844 168.507812 130.546875 168.507812 127.722656 C 168.507812 124.898438 170.800781 122.609375 173.625 122.609375 L 186.78125 122.609375 L 186.78125 109.449219 C 186.78125 106.625 189.070312 104.332031 191.894531 104.332031 C 194.71875 104.332031 197.007812 106.625 197.007812 109.449219 L 197.007812 122.609375 L 210.179688 122.609375 C 213 122.609375 215.292969 124.898438 215.292969 127.722656 C 215.292969 130.546875 213 132.839844 210.179688 132.839844 L 197.007812 132.839844 L 197.007812 146.011719 C 197.007812 148.835938 194.71875 151.128906 191.894531 151.128906 C 189.070312 151.128906 186.78125 148.835938 186.78125 146.011719 L 186.78125 132.839844 Z M 295.457031 83.339844 C 297.28125 85.484375 297.015625 88.695312 294.882812 90.519531 C 292.742188 92.34375 289.53125 92.078125 287.707031 89.945312 L 287.546875 89.757812 C 285.722656 87.613281 285.988281 84.40625 288.121094 82.578125 C 290.265625 80.753906 293.472656 81.019531 295.296875 83.152344 Z M 287.988281 67.273438 C 289.730469 69.472656 289.359375 72.683594 287.148438 74.429688 C 284.949219 76.171875 281.742188 75.800781 279.996094 73.589844 C 275.054688 67.355469 267.890625 63.105469 259.648438 61.585938 C 251.699219 60.121094 242.695312 61.1875 233.640625 65.398438 C 231.082031 66.582031 228.046875 65.464844 226.863281 62.90625 C 225.675781 60.347656 226.796875 57.3125 229.351562 56.125 C 240.40625 50.996094 251.523438 49.730469 261.472656 51.558594 C 272.164062 53.527344 281.5 59.082031 287.972656 67.273438 Z M 108.039062 47.160156 C 105.496094 48.347656 102.457031 47.253906 101.257812 44.710938 C 100.074219 42.167969 101.167969 39.128906 103.710938 37.929688 C 117.917969 31.285156 134.9375 29.671875 152.15625 34.917969 C 165.738281 39.050781 179.429688 47.46875 191.894531 61.027344 C 202.453125 49.53125 213.890625 41.738281 225.371094 37.117188 C 237.996094 32.027344 250.6875 30.75 262.390625 32.546875 C 274.164062 34.359375 284.988281 39.300781 293.792969 46.628906 C 301.609375 53.128906 307.839844 61.507812 311.753906 71.257812 C 320.742188 93.609375 317.667969 123.101562 293.683594 153.378906 C 274.882812 177.128906 243.078125 201.488281 193.941406 223.257812 C 192.570312 223.855469 191.089844 223.816406 189.828125 223.257812 C 183.15625 220.296875 176.722656 217.25 170.542969 214.144531 C 122.9375 190.15625 94.503906 163.660156 79.9375 138.59375 C 64.902344 112.738281 64.421875 88.265625 72.824219 69.289062 L 74.171875 66.464844 C 75.4375 63.945312 78.511719 62.933594 81.027344 64.210938 C 83.546875 65.476562 84.558594 68.554688 83.28125 71.070312 L 82.175781 73.402344 C 74.996094 89.613281 75.554688 110.78125 88.753906 133.476562 C 102.414062 156.972656 129.460938 182.015625 175.125 205.03125 C 180.386719 207.683594 185.980469 210.347656 191.863281 212.984375 C 238.207031 192.179688 268.101562 169.269531 285.683594 147.0625 C 307.054688 120.074219 310.011719 94.300781 302.261719 75.054688 C 298.988281 66.902344 293.78125 59.894531 287.253906 54.460938 C 279.878906 48.320312 270.78125 44.175781 260.835938 42.660156 C 250.832031 41.113281 239.96875 42.21875 229.128906 46.585938 C 217.6875 51.195312 206.25 59.429688 195.796875 71.988281 L 195.117188 72.667969 C 192.957031 74.46875 189.734375 74.175781 187.9375 72.015625 C 175.820312 57.429688 162.371094 48.679688 149.160156 44.65625 C 134.472656 40.179688 120.007812 41.527344 107.984375 47.148438 Z M 93.335938 57.351562 C 91.3125 59.296875 88.074219 59.242188 86.117188 57.203125 C 84.175781 55.179688 84.226562 51.941406 86.265625 49.984375 L 86.8125 49.453125 C 88.835938 47.507812 92.070312 47.5625 94.027344 49.597656 C 95.972656 51.625 95.917969 54.859375 93.882812 56.820312 Z M 165.101562 323.402344 C 164.566406 323.402344 164.101562 323.601562 163.78125 323.933594 C 163.4375 324.28125 163.238281 324.746094 163.238281 325.277344 C 163.238281 325.8125 163.4375 326.277344 163.769531 326.597656 C 164.117188 326.945312 164.582031 327.144531 165.113281 327.144531 C 165.648438 327.144531 166.125 326.929688 166.445312 326.597656 C 166.765625 326.25 166.992188 325.785156 166.992188 325.265625 C 166.992188 324.734375 166.777344 324.253906 166.445312 323.933594 C 166.113281 323.601562 165.632812 323.386719 165.113281 323.386719 Z M 156.539062 316.742188 C 158.761719 314.515625 161.785156 313.171875 165.101562 313.171875 C 168.417969 313.171875 171.453125 314.53125 173.636719 316.714844 C 175.847656 318.925781 177.207031 321.949219 177.207031 325.277344 C 177.207031 328.621094 175.847656 331.660156 173.664062 333.84375 C 171.453125 336.027344 168.429688 337.386719 165.101562 337.386719 C 161.785156 337.386719 158.761719 336.042969 156.578125 333.84375 C 154.355469 331.621094 153.007812 328.59375 153.007812 325.277344 C 153.007812 321.960938 154.355469 318.9375 156.550781 316.742188 Z M 181.042969 339.90625 L 178.816406 311.371094 C 178.789062 311.027344 178.722656 310.71875 178.617188 310.492188 L 116.722656 310.492188 L 116.617188 311.371094 C 116.28125 315.660156 113.992188 337.679688 114.40625 340.050781 L 181.042969 340.050781 Z M 189.003906 310.625 C 189.761719 320.378906 190.683594 330.246094 191.269531 340 C 191.269531 342.664062 190.242188 345.101562 188.632812 346.925781 C 186.953125 348.828125 184.609375 350.066406 182.105469 350.269531 L 113.351562 350.269531 C 110.835938 350.066406 108.492188 348.816406 106.828125 346.925781 C 105.214844 345.101562 104.191406 342.664062 104.191406 340 C 105.242188 330.488281 105.695312 320.242188 106.441406 310.625 C 106.679688 307.617188 107.625 305.273438 109.078125 303.566406 C 110.820312 301.542969 113.03125 300.488281 115.507812 300.316406 L 115.507812 296.933594 C 115.507812 295.015625 115.082031 293.269531 114.269531 291.777344 C 113.429688 290.273438 112.191406 288.953125 110.609375 287.941406 L 63.253906 257.71875 C 60.324219 255.851562 57.898438 253.601562 55.980469 250.992188 C 54.050781 248.367188 52.640625 245.371094 51.746094 242.027344 L 30.398438 162.277344 C 29.5625 158.839844 30.148438 155.351562 31.8125 152.484375 C 33.503906 149.554688 36.339844 147.25 39.855469 146.304688 C 40.292969 146.1875 40.734375 146.132812 41.171875 146.132812 C 44.355469 146.121094 47.433594 146.773438 50.070312 148.304688 L 50.402344 148.515625 C 52.800781 149.996094 54.714844 152.152344 55.914062 155.148438 C 59.75 164.835938 64.226562 174.519531 69.179688 183.828125 C 70.828125 186.933594 72.519531 189.984375 74.265625 192.96875 L 74.691406 192.59375 C 77.289062 190.394531 80.765625 189.410156 84.253906 189.71875 C 87.554688 189.996094 90.953125 191.449219 93.601562 194.113281 L 94.507812 195.125 C 109.742188 213.28125 119.582031 215.945312 129.847656 218.703125 C 140.554688 221.578125 151.675781 224.578125 168.027344 240.933594 L 168.253906 241.171875 C 174.40625 247.355469 177.429688 257.835938 178.828125 269.785156 C 179.945312 279.417969 180.054688 290.191406 179.933594 300.316406 C 182.503906 300.515625 184.6875 301.769531 186.3125 303.671875 C 187.855469 305.511719 188.855469 307.988281 189.054688 310.625 Z M 125.726562 300.277344 L 169.695312 300.277344 C 169.800781 290.550781 169.695312 280.191406 168.628906 270.933594 C 167.484375 261.074219 165.261719 252.695312 161.039062 248.40625 L 160.746094 248.140625 C 146.3125 233.703125 136.550781 231.0625 127.175781 228.53125 C 115.308594 225.335938 103.9375 222.273438 86.652344 201.640625 L 86.332031 201.304688 C 85.453125 200.425781 84.375 199.960938 83.335938 199.867188 C 82.46875 199.800781 81.683594 199.972656 81.203125 200.375 L 81.125 200.441406 C 80.910156 200.652344 81.125 201.664062 81.484375 202.851562 C 82.175781 205.101562 83.585938 207.554688 84.679688 209.246094 C 88.527344 215.210938 92.628906 220.128906 97.199219 224.496094 C 101.859375 228.945312 107.066406 232.902344 113.058594 236.910156 C 115.402344 238.46875 116.027344 241.640625 114.457031 243.984375 C 112.898438 246.328125 109.730469 246.957031 107.386719 245.382812 C 100.898438 241.054688 95.253906 236.75 90.167969 231.890625 C 85 226.960938 80.417969 221.472656 76.128906 214.828125 C 70.429688 206.726562 65.039062 197.871094 60.109375 188.597656 C 55.078125 179.128906 50.457031 169.097656 46.40625 158.882812 C 46.113281 158.121094 45.648438 157.574219 45.117188 157.214844 L 44.929688 157.109375 C 44.15625 156.65625 43.117188 156.429688 41.917969 156.351562 C 41.359375 156.628906 40.90625 157.070312 40.601562 157.589844 C 40.230469 158.214844 40.09375 159.015625 40.269531 159.785156 L 61.589844 239.375 C 62.148438 241.480469 63.027344 243.347656 64.199219 244.945312 C 65.382812 246.554688 66.886719 247.953125 68.726562 249.113281 L 116.082031 279.339844 C 119.15625 281.308594 121.570312 283.867188 123.207031 286.863281 C 124.859375 289.902344 125.738281 293.3125 125.738281 296.921875 L 125.738281 300.277344 Z M 218.714844 313.171875 C 222.03125 313.171875 225.054688 314.527344 227.25 316.714844 C 229.472656 318.9375 230.820312 321.960938 230.820312 325.277344 C 230.820312 328.59375 229.460938 331.621094 227.277344 333.816406 C 225.054688 336.042969 222.03125 337.386719 218.714844 337.386719 C 215.398438 337.386719 212.363281 336.027344 210.179688 333.84375 C 207.96875 331.660156 206.609375 328.621094 206.609375 325.277344 C 206.609375 321.960938 207.96875 318.925781 210.152344 316.742188 C 212.363281 314.53125 215.386719 313.171875 218.714844 313.171875 Z M 220.046875 323.945312 C 219.714844 323.613281 219.246094 323.402344 218.714844 323.402344 C 218.183594 323.402344 217.703125 323.613281 217.382812 323.945312 C 217.050781 324.28125 216.835938 324.757812 216.835938 325.277344 C 216.835938 325.796875 217.050781 326.277344 217.382812 326.609375 C 217.703125 326.945312 218.183594 327.15625 218.714844 327.15625 C 219.246094 327.15625 219.714844 326.957031 220.03125 326.625 C 220.378906 326.277344 220.578125 325.8125 220.578125 325.277344 C 220.578125 324.746094 220.378906 324.28125 220.03125 323.945312 Z M 203.917969 300.304688 C 203.8125 290.179688 203.90625 279.402344 205.023438 269.773438 C 206.421875 257.824219 209.445312 247.339844 215.597656 241.160156 L 215.824219 240.921875 C 232.179688 224.5625 243.296875 221.566406 254.003906 218.691406 C 264.269531 215.933594 274.113281 213.269531 289.332031 195.097656 L 290.25 194.085938 C 292.914062 191.421875 296.296875 189.984375 299.597656 189.691406 C 303.085938 189.382812 306.5625 190.371094 309.160156 192.554688 L 309.574219 192.941406 C 311.316406 189.957031 313.007812 186.90625 314.660156 183.804688 C 319.613281 174.492188 324.089844 164.796875 327.921875 155.125 C 329.109375 152.140625 331.027344 149.96875 333.4375 148.492188 L 333.769531 148.277344 C 336.40625 146.746094 339.484375 146.09375 342.664062 146.09375 C 343.105469 146.105469 343.542969 146.160156 343.984375 146.28125 C 347.511719 147.226562 350.335938 149.53125 352.027344 152.460938 C 353.691406 155.324219 354.277344 158.8125 353.4375 162.25 L 332.09375 242 C 331.199219 245.34375 329.773438 248.339844 327.855469 250.964844 C 325.941406 253.578125 323.503906 255.828125 320.585938 257.691406 L 273.230469 287.917969 C 271.644531 288.929688 270.40625 290.246094 269.570312 291.753906 C 268.757812 293.230469 268.316406 294.976562 268.316406 296.894531 L 268.316406 300.277344 C 270.792969 300.449219 273.003906 301.503906 274.734375 303.527344 C 276.199219 305.246094 277.160156 307.589844 277.398438 310.585938 C 278.132812 320.03125 279.4375 330.621094 279.636719 339.960938 C 279.648438 342.625 278.625 345.0625 277.011719 346.886719 C 275.335938 348.777344 272.992188 350.027344 270.488281 350.230469 L 201.734375 350.214844 C 199.230469 350.027344 196.871094 348.789062 195.207031 346.886719 C 193.597656 345.058594 192.570312 342.636719 192.570312 339.960938 L 192.609375 339.160156 L 194.835938 310.585938 C 195.035156 307.949219 196.03125 305.472656 197.578125 303.632812 C 199.203125 301.714844 201.386719 300.464844 203.957031 300.277344 Z M 263.328125 310.507812 L 205.183594 310.507812 C 205.078125 310.734375 205.011719 311.027344 204.984375 311.386719 C 204.410156 318.738281 202.386719 333.539062 202.773438 340.066406 L 269.410156 340.066406 C 269.796875 333.539062 267.773438 318.738281 267.199219 311.386719 L 267.09375 310.507812 Z M 263.328125 310.507812 "/></g></svg>