<svg xmlns="http://www.w3.org/2000/svg" xmlns:xlink="http://www.w3.org/1999/xlink" width="512" zoomAndPan="magnify" viewBox="0 0 384 383.999986" height="512" preserveAspectRatio="xMidYMid meet" version="1.2"><g id="d51b14f60c"><path style=" stroke:none;fill-rule:nonzero;fill:#000000;fill-opacity:1;" d="M 63.339844 322.933594 L 63.339844 327.953125 C 63.339844 331.484375 64.78125 334.699219 67.113281 337.03125 C 69.445312 339.359375 72.664062 340.804688 76.195312 340.804688 L 128.46875 340.804688 L 128.46875 332.625 C 128.46875 320.316406 132.03125 308.78125 138.136719 299 L 137.351562 297.941406 C 137.136719 297.714844 136.949219 297.457031 136.765625 297.199219 C 133.488281 293.109375 129.441406 289.652344 124.863281 287.046875 C 118.6875 283.53125 111.691406 281.703125 104.585938 281.703125 C 93.242188 281.703125 82.929688 286.347656 75.449219 293.824219 C 67.742188 301.53125 63.324219 312.023438 63.324219 322.949219 Z M 57.847656 299.6875 L 40.054688 299.6875 C 37.023438 299.6875 34.5625 297.226562 34.5625 294.195312 L 34.5625 165.65625 C 34.5625 153.488281 39.554688 142.410156 47.578125 134.359375 L 47.605469 134.332031 C 55.644531 126.3125 66.726562 121.324219 78.898438 121.324219 L 94.746094 121.324219 C 97.777344 121.324219 100.238281 123.78125 100.238281 126.8125 C 100.238281 129.84375 97.777344 132.300781 94.746094 132.300781 L 78.898438 132.300781 C 69.71875 132.300781 61.378906 136.046875 55.34375 142.082031 C 49.292969 148.128906 45.546875 156.476562 45.546875 165.640625 L 45.546875 288.691406 L 65.210938 288.691406 C 66.011719 287.777344 66.828125 286.890625 67.6875 286.035156 C 77.152344 276.570312 90.210938 270.707031 104.585938 270.707031 C 107.1875 270.707031 109.75 270.90625 112.25 271.28125 L 112.25 258.769531 C 109.792969 259.355469 107.21875 259.65625 104.585938 259.65625 C 95.417969 259.65625 87.078125 255.925781 81.042969 249.90625 L 81.015625 249.878906 C 74.992188 243.84375 71.261719 235.523438 71.261719 226.359375 C 71.261719 217.167969 74.992188 208.832031 81.015625 202.8125 C 87.035156 196.792969 95.375 193.0625 104.570312 193.0625 C 107.203125 193.0625 109.777344 193.363281 112.238281 193.949219 L 112.238281 61.058594 L 103.683594 61.058594 C 100.652344 61.058594 98.191406 58.601562 98.191406 55.570312 L 98.191406 32.296875 C 98.191406 29.265625 100.652344 26.804688 103.683594 26.804688 L 146.832031 26.804688 C 149.867188 26.804688 152.324219 29.265625 152.324219 32.296875 C 152.324219 35.324219 149.867188 37.785156 146.832031 37.785156 L 109.175781 37.785156 L 109.175781 50.082031 L 275.054688 50.082031 L 275.054688 37.785156 L 194.277344 37.785156 C 191.246094 37.785156 188.785156 35.324219 188.785156 32.296875 C 188.785156 29.265625 191.246094 26.804688 194.277344 26.804688 L 280.546875 26.804688 C 283.578125 26.804688 286.039062 29.265625 286.039062 32.296875 L 286.039062 55.570312 C 286.039062 58.601562 283.578125 61.058594 280.546875 61.058594 L 123.222656 61.058594 L 123.222656 198.78125 C 124.980469 199.964844 126.609375 201.324219 128.113281 202.8125 C 134.164062 208.859375 137.894531 217.179688 137.894531 226.359375 C 137.894531 235.550781 134.164062 243.886719 128.140625 249.90625 C 126.640625 251.40625 124.996094 252.765625 123.234375 253.964844 L 123.234375 274.195312 C 125.667969 275.136719 128.027344 276.253906 130.273438 277.527344 C 135.4375 280.457031 140.054688 284.246094 143.929688 288.707031 L 146.148438 288.707031 L 147.164062 287.660156 C 158.691406 276.140625 174.625 268.976562 192.128906 268.976562 C 209.621094 268.976562 225.539062 276.136719 237.078125 287.691406 L 238.082031 288.71875 L 240.324219 288.71875 C 244.203125 284.273438 248.820312 280.484375 253.984375 277.554688 C 256.230469 276.28125 258.589844 275.152344 261.019531 274.207031 L 261.019531 253.964844 C 259.261719 252.777344 257.617188 251.421875 256.117188 249.917969 C 250.09375 243.898438 246.363281 235.566406 246.363281 226.371094 C 246.363281 217.195312 250.09375 208.875 256.117188 202.839844 C 257.617188 201.339844 259.261719 199.980469 261.019531 198.792969 L 261.019531 77.027344 C 261.019531 73.996094 263.480469 71.539062 266.511719 71.539062 C 269.546875 71.539062 272.003906 73.996094 272.003906 77.027344 L 272.003906 121.332031 L 305.359375 121.332031 C 317.53125 121.332031 328.597656 126.308594 336.652344 134.339844 L 336.679688 134.371094 C 344.71875 142.40625 349.695312 153.484375 349.695312 165.664062 L 349.695312 294.207031 C 349.695312 297.238281 347.234375 299.695312 344.203125 299.695312 L 326.410156 299.695312 C 329.929688 306.703125 331.902344 314.605469 331.902344 322.941406 L 331.902344 327.960938 C 331.902344 334.507812 329.230469 340.46875 324.910156 344.789062 C 320.574219 349.121094 314.613281 351.792969 308.0625 351.792969 L 275.308594 351.792969 C 272.277344 351.792969 269.816406 349.335938 269.816406 346.304688 C 269.816406 343.273438 272.277344 340.8125 275.308594 340.8125 L 308.0625 340.8125 C 311.609375 340.8125 314.828125 339.371094 317.15625 337.054688 C 319.472656 334.722656 320.917969 331.507812 320.917969 327.960938 L 320.917969 322.941406 C 320.917969 311.921875 316.484375 301.511719 308.789062 293.820312 C 301.324219 286.359375 291 281.695312 279.671875 281.695312 C 272.535156 281.695312 265.570312 283.527344 259.375 287.058594 C 254.800781 289.660156 250.753906 293.121094 247.476562 297.207031 C 247.320312 297.453125 247.132812 297.695312 246.933594 297.910156 L 246.117188 299.011719 C 252.238281 308.773438 255.800781 320.3125 255.800781 332.621094 L 255.800781 347.019531 C 255.800781 352.566406 253.527344 357.613281 249.878906 361.273438 C 246.234375 364.917969 241.183594 367.191406 235.621094 367.191406 L 148.632812 367.191406 C 143.085938 367.191406 138.035156 364.917969 134.375 361.273438 C 131.800781 358.699219 129.910156 355.4375 129.027344 351.792969 L 76.175781 351.792969 C 69.613281 351.792969 63.648438 349.121094 59.328125 344.800781 C 55.011719 340.484375 52.335938 334.523438 52.335938 327.960938 L 52.335938 322.941406 C 52.335938 314.605469 54.308594 306.703125 57.828125 299.695312 Z M 120.390625 210.558594 C 116.355469 206.527344 110.765625 204.027344 104.585938 204.027344 C 98.421875 204.027344 92.828125 206.527344 88.796875 210.558594 C 84.761719 214.59375 82.257812 220.183594 82.257812 226.34375 C 82.257812 232.519531 84.75 238.109375 88.78125 242.128906 C 92.828125 246.171875 98.421875 248.660156 104.597656 248.660156 C 110.765625 248.660156 116.355469 246.160156 120.390625 242.128906 C 124.421875 238.09375 126.925781 232.503906 126.925781 226.34375 C 126.925781 220.167969 124.421875 214.578125 120.390625 210.546875 Z M 272.007812 271.292969 C 274.507812 270.921875 277.082031 270.722656 279.6875 270.722656 C 294.046875 270.722656 307.117188 276.597656 316.570312 286.046875 C 317.429688 286.90625 318.257812 287.792969 319.046875 288.707031 L 338.710938 288.707031 L 338.710938 165.65625 C 338.710938 156.476562 334.964844 148.140625 328.929688 142.109375 C 322.878906 136.0625 314.527344 132.316406 305.359375 132.316406 L 272.003906 132.316406 L 272.003906 193.964844 C 274.464844 193.378906 277.039062 193.078125 279.6875 193.078125 C 288.882812 193.078125 297.222656 196.808594 303.242188 202.828125 L 303.542969 203.15625 C 309.390625 209.160156 312.996094 217.351562 312.996094 226.375 C 312.996094 235.566406 309.261719 243.902344 303.242188 249.921875 C 297.21875 255.941406 288.882812 259.671875 279.6875 259.671875 C 277.039062 259.671875 274.480469 259.371094 272.003906 258.785156 Z M 295.476562 210.574219 C 291.441406 206.542969 285.851562 204.042969 279.6875 204.042969 C 273.507812 204.042969 267.917969 206.542969 263.882812 210.574219 C 259.851562 214.605469 257.347656 220.195312 257.347656 226.371094 C 257.347656 232.535156 259.851562 238.125 263.882812 242.15625 C 267.917969 246.1875 273.507812 248.691406 279.671875 248.691406 C 285.835938 248.691406 291.429688 246.1875 295.460938 242.15625 C 299.496094 238.125 302 232.535156 302 226.371094 C 302 220.324219 299.597656 214.847656 295.71875 210.832031 L 295.460938 210.589844 Z M 229.332031 295.425781 C 219.789062 285.890625 206.632812 279.957031 192.132812 279.957031 C 177.65625 279.957031 164.484375 285.890625 154.929688 295.425781 C 145.089844 305.261719 139.457031 318.574219 139.457031 332.625 L 139.457031 347.023438 C 139.457031 349.539062 140.5 351.839844 142.160156 353.511719 C 143.820312 355.171875 146.121094 356.214844 148.652344 356.214844 L 235.640625 356.214844 C 238.15625 356.214844 240.460938 355.171875 242.132812 353.511719 C 243.792969 351.855469 244.835938 349.554688 244.835938 347.023438 L 244.835938 332.625 C 244.835938 319.417969 239.886719 307.292969 231.761719 298.015625 L 231.421875 297.628906 C 230.746094 296.886719 230.0625 296.140625 229.347656 295.425781 Z M 192.132812 179.09375 C 203.328125 179.09375 213.484375 183.640625 220.835938 190.992188 C 228.199219 198.367188 232.75 208.503906 232.75 219.710938 C 232.75 230.90625 228.199219 241.058594 220.851562 248.40625 C 213.46875 255.769531 203.328125 260.316406 192.117188 260.316406 C 180.917969 260.316406 170.761719 255.769531 163.410156 248.417969 C 156.046875 241.042969 151.5 230.90625 151.5 219.699219 C 151.5 208.503906 156.046875 198.351562 163.398438 191.003906 C 170.777344 183.640625 180.917969 179.09375 192.132812 179.09375 Z M 213.097656 198.738281 C 207.734375 193.390625 200.328125 190.074219 192.132812 190.074219 C 183.9375 190.074219 176.511719 193.390625 171.164062 198.738281 C 165.816406 204.101562 162.496094 211.507812 162.496094 219.699219 C 162.496094 227.890625 165.816406 235.308594 171.164062 240.65625 C 176.527344 246.003906 183.9375 249.320312 192.132812 249.320312 C 200.328125 249.320312 207.75 246.003906 213.097656 240.65625 C 218.445312 235.296875 221.765625 227.890625 221.765625 219.699219 C 221.765625 211.507812 218.445312 204.085938 213.097656 198.738281 Z M 96.664062 177.394531 C 99.695312 177.394531 102.15625 179.855469 102.15625 182.882812 C 102.15625 185.914062 99.695312 188.375 96.664062 188.375 L 61.09375 188.375 C 58.0625 188.375 55.601562 185.914062 55.601562 182.882812 C 55.601562 179.855469 58.0625 177.394531 61.09375 177.394531 Z M 96.664062 153.160156 C 99.695312 153.160156 102.15625 155.621094 102.15625 158.652344 C 102.15625 161.683594 99.695312 164.140625 96.664062 164.140625 L 61.09375 164.140625 C 58.0625 164.140625 55.601562 161.683594 55.601562 158.652344 C 55.601562 155.621094 58.0625 153.160156 61.09375 153.160156 Z M 287.570312 188.375 C 284.539062 188.375 282.078125 185.914062 282.078125 182.882812 C 282.078125 179.855469 284.539062 177.394531 287.570312 177.394531 L 323.140625 177.394531 C 326.171875 177.394531 328.632812 179.855469 328.632812 182.882812 C 328.632812 185.914062 326.171875 188.375 323.140625 188.375 Z M 287.570312 164.140625 C 284.539062 164.140625 282.078125 161.683594 282.078125 158.652344 C 282.078125 155.621094 284.539062 153.160156 287.570312 153.160156 L 323.140625 153.160156 C 326.171875 153.160156 328.632812 155.621094 328.632812 158.652344 C 328.632812 161.683594 326.171875 164.140625 323.140625 164.140625 Z M 223.382812 120.394531 L 248.753906 120.394531 C 251.789062 120.394531 254.246094 122.851562 254.246094 125.882812 L 254.246094 151.246094 C 254.246094 154.277344 251.789062 156.738281 248.753906 156.738281 L 223.382812 156.738281 C 220.351562 156.738281 217.890625 154.277344 217.890625 151.246094 L 217.890625 125.882812 C 217.890625 122.851562 220.351562 120.394531 223.382812 120.394531 Z M 243.261719 131.375 L 228.875 131.375 L 228.875 145.757812 L 243.261719 145.757812 Z M 179.429688 120.394531 L 204.804688 120.394531 C 207.835938 120.394531 210.296875 122.851562 210.296875 125.882812 L 210.296875 151.246094 C 210.296875 154.277344 207.835938 156.738281 204.804688 156.738281 L 179.429688 156.738281 C 176.398438 156.738281 173.9375 154.277344 173.9375 151.246094 L 173.9375 125.882812 C 173.9375 122.851562 176.398438 120.394531 179.429688 120.394531 Z M 199.3125 131.375 L 184.921875 131.375 L 184.921875 145.757812 L 199.3125 145.757812 Z M 135.480469 120.394531 L 160.851562 120.394531 C 163.882812 120.394531 166.34375 122.851562 166.34375 125.882812 L 166.34375 151.246094 C 166.34375 154.277344 163.882812 156.738281 160.851562 156.738281 L 135.480469 156.738281 C 132.445312 156.738281 129.988281 154.277344 129.988281 151.246094 L 129.988281 125.882812 C 129.988281 122.851562 132.445312 120.394531 135.480469 120.394531 Z M 155.359375 131.375 L 140.972656 131.375 L 140.972656 145.757812 L 155.359375 145.757812 Z M 223.394531 72.628906 L 248.765625 72.628906 C 251.796875 72.628906 254.257812 75.085938 254.257812 78.117188 L 254.257812 103.480469 C 254.257812 106.511719 251.796875 108.96875 248.765625 108.96875 L 223.394531 108.96875 C 220.363281 108.96875 217.902344 106.511719 217.902344 103.480469 L 217.902344 78.117188 C 217.902344 75.085938 220.363281 72.628906 223.394531 72.628906 Z M 243.273438 83.609375 L 228.886719 83.609375 L 228.886719 97.992188 L 243.273438 97.992188 Z M 179.441406 72.628906 L 204.8125 72.628906 C 207.847656 72.628906 210.304688 75.085938 210.304688 78.117188 L 210.304688 103.480469 C 210.304688 106.511719 207.847656 108.96875 204.8125 108.96875 L 179.441406 108.96875 C 176.410156 108.96875 173.949219 106.511719 173.949219 103.480469 L 173.949219 78.117188 C 173.949219 75.085938 176.410156 72.628906 179.441406 72.628906 Z M 199.320312 83.609375 L 184.933594 83.609375 L 184.933594 97.992188 L 199.320312 97.992188 Z M 135.488281 72.628906 L 160.863281 72.628906 C 163.894531 72.628906 166.355469 75.085938 166.355469 78.117188 L 166.355469 103.480469 C 166.355469 106.511719 163.894531 108.96875 160.863281 108.96875 L 135.488281 108.96875 C 132.457031 108.96875 129.996094 106.511719 129.996094 103.480469 L 129.996094 78.117188 C 129.996094 75.085938 132.457031 72.628906 135.488281 72.628906 Z M 155.371094 83.609375 L 140.980469 83.609375 L 140.980469 97.992188 L 155.371094 97.992188 Z M 170.960938 26.820312 C 173.992188 26.820312 176.453125 29.28125 176.453125 32.3125 C 176.453125 35.339844 173.992188 37.800781 170.960938 37.800781 L 170.203125 37.800781 C 167.167969 37.800781 164.710938 35.339844 164.710938 32.3125 C 164.710938 29.28125 167.167969 26.820312 170.203125 26.820312 Z M 170.960938 26.820312 "/></g></svg>