<svg xmlns="http://www.w3.org/2000/svg" xmlns:xlink="http://www.w3.org/1999/xlink" width="512" zoomAndPan="magnify" viewBox="0 0 384 383.999986" height="512" preserveAspectRatio="xMidYMid meet" version="1.2"><g id="4c763d0b52"><path style=" stroke:none;fill-rule:evenodd;fill:#000000;fill-opacity:1;" d="M 288.992188 274.910156 C 288.992188 281.78125 294.582031 287.390625 301.46875 287.390625 C 308.339844 287.390625 313.941406 281.796875 313.941406 274.910156 C 313.941406 268.035156 308.351562 262.425781 301.46875 262.425781 C 294.582031 262.425781 288.992188 268.019531 288.992188 274.910156 Z M 301.46875 271.105469 C 303.558594 271.105469 305.253906 272.816406 305.253906 274.894531 C 305.253906 276.988281 303.546875 278.683594 301.46875 278.683594 C 299.375 278.683594 297.679688 276.976562 297.679688 274.894531 C 297.667969 272.816406 299.375 271.105469 301.46875 271.105469 Z M 332.3125 207.449219 C 320.800781 201.550781 308.695312 200.546875 293.671875 204.375 L 258.824219 119.832031 C 262.914062 119.503906 267.113281 119.804688 270.746094 120.757812 C 278.664062 122.835938 285.742188 121.210938 290.65625 116.195312 C 295.738281 111.003906 297.613281 102.722656 295.449219 95.089844 C 293.082031 86.757812 286.554688 80.695312 277.550781 78.476562 C 262.101562 74.703125 245.09375 81.027344 233.542969 87.003906 C 226.660156 90.574219 222.554688 98.34375 223.050781 106.402344 L 203.320312 113.25 C 201.0625 114.035156 199.863281 116.511719 200.648438 118.773438 C 201.265625 120.5625 202.949219 121.691406 204.75 121.691406 C 205.21875 121.691406 205.703125 121.609375 206.167969 121.457031 L 225.417969 114.777344 C 226.796875 117.269531 228.710938 119.324219 231.050781 120.8125 C 230.253906 121.691406 229.507812 122.628906 228.835938 123.636719 C 218.136719 139.808594 228.089844 167.6875 234.671875 186.152344 C 235.085938 187.292969 235.472656 188.398438 235.84375 189.445312 C 240.773438 203.441406 241.941406 224.363281 232.828125 237.246094 C 227.964844 244.105469 220.722656 247.59375 211.292969 247.59375 C 211.222656 247.59375 211.140625 247.59375 211.070312 247.605469 C 201.460938 248.101562 194.191406 245.167969 190.046875 239.148438 C 186.039062 233.320312 185.445312 225.027344 188.542969 218.03125 C 190.210938 214.253906 192.675781 211.789062 195.511719 208.953125 C 200.773438 203.6875 206.71875 197.722656 207.4375 183.109375 C 208.414062 174.554688 206.292969 167.570312 201.101562 162.363281 C 190.914062 152.113281 171.9375 151.878906 157.824219 153.488281 C 155.445312 153.765625 153.734375 155.914062 154.011719 158.296875 C 154.289062 160.679688 156.433594 162.390625 158.816406 162.113281 C 175.835938 160.171875 189 162.484375 194.960938 168.476562 C 197.523438 171.054688 198.847656 174.347656 198.984375 178.464844 L 158.292969 178.589844 C 155.898438 178.601562 153.957031 180.546875 153.96875 182.941406 C 153.984375 185.339844 155.925781 187.269531 158.308594 187.269531 L 158.320312 187.269531 L 198.324219 187.144531 C 197.027344 195.160156 193.433594 198.742188 189.375 202.820312 C 186.359375 205.839844 182.929688 209.269531 180.617188 214.53125 C 176.332031 224.214844 177.226562 235.8125 182.902344 244.078125 C 188.738281 252.578125 198.859375 256.917969 211.402344 256.296875 C 223.605469 256.269531 233.449219 251.421875 239.921875 242.289062 C 250.8125 226.886719 249.695312 202.613281 244.039062 186.578125 C 243.667969 185.519531 243.265625 184.402344 242.855469 183.257812 C 237.207031 167.457031 227.777344 140.996094 236.078125 128.460938 C 238.804688 124.339844 243.347656 121.886719 249.945312 121.007812 L 285.441406 207.105469 C 256.414062 220.632812 243.210938 249.382812 240.304688 273.792969 L 161.734375 273.804688 C 161.5 271.464844 161.199219 269.234375 160.828125 267.082031 C 160.8125 266.917969 160.785156 266.765625 160.742188 266.617188 C 156.488281 242.5625 144 230.34375 133.5625 224.214844 C 115.402344 213.566406 89.71875 213.222656 64.976562 222.960938 C 66.753906 216.03125 70.417969 205.8125 77.617188 197.988281 C 79.242188 196.222656 79.132812 193.480469 77.371094 191.855469 C 75.605469 190.230469 72.867188 190.339844 71.242188 192.105469 C 69.960938 193.496094 68.777344 194.957031 67.675781 196.429688 C 60.707031 192.722656 51.8125 195.726562 45.878906 200.519531 C 40.425781 204.929688 38.152344 210.273438 39.792969 214.820312 C 41.554688 219.695312 47.0625 222.246094 56.136719 222.4375 C 55.160156 226.640625 54.84375 229.476562 54.800781 229.808594 C 54.789062 229.878906 54.800781 229.945312 54.789062 230.027344 C 44.089844 239.453125 34.613281 253.476562 33.363281 268.683594 C 33.265625 269.910156 33.679688 271.109375 34.503906 272.003906 C 35.332031 272.886719 36.472656 273.382812 37.671875 273.382812 L 37.726562 273.382812 L 58.90625 273.121094 C 58.410156 283.699219 61.976562 294.113281 68.984375 302.199219 C 76.832031 311.25 88.21875 316.445312 100.214844 316.445312 C 112.359375 316.445312 123.828125 311.140625 131.691406 301.882812 C 138.78125 293.535156 142.238281 282.847656 141.453125 272.085938 L 152.757812 271.949219 C 153.019531 274.027344 153.226562 276.179688 153.363281 278.394531 C 153.5 280.683594 155.402344 282.472656 157.699219 282.472656 L 244.214844 282.460938 C 246.488281 282.460938 248.375 280.710938 248.539062 278.4375 C 249.390625 267.113281 252.699219 254.453125 259.183594 243.035156 C 263.230469 244.316406 267.597656 245.308594 272.152344 246.066406 C 264.582031 254 260.117188 264.484375 260.117188 275.0625 C 260.117188 297.875 278.667969 316.445312 301.46875 316.445312 C 324.269531 316.445312 342.828125 297.875 342.828125 275.0625 C 342.828125 264.34375 338.230469 253.710938 330.464844 245.746094 C 331.277344 245.625 332.0625 245.484375 332.792969 245.347656 C 346.121094 242.867188 349.753906 236.667969 350.445312 231.902344 C 351.863281 222.175781 342.03125 212.410156 332.308594 207.453125 Z M 237.519531 94.734375 C 251.980469 87.253906 265.457031 84.472656 275.46875 86.925781 C 283.539062 88.90625 286.226562 94.390625 287.105469 97.476562 C 288.441406 102.160156 287.410156 107.132812 284.460938 110.121094 C 281.777344 112.863281 277.796875 113.636719 272.949219 112.367188 C 266.480469 110.671875 258.90625 110.578125 252.089844 112.066406 C 247.339844 112.382812 243.152344 113.304688 239.574219 114.832031 C 239.40625 114.792969 239.242188 114.75 239.0625 114.722656 C 233.527344 113.898438 232.152344 109.183594 231.820312 107.203125 C 231.132812 102.988281 232.605469 97.285156 237.523438 94.734375 Z M 57.898438 213.769531 C 50.460938 213.867188 48.132812 212.285156 47.929688 211.871094 C 47.804688 211.304688 48.917969 208.910156 52.265625 206.554688 C 55.5 204.28125 60.019531 202.765625 63.003906 203.851562 C 61.1875 207.253906 59.769531 210.65625 58.65625 213.828125 C 58.394531 213.785156 58.144531 213.769531 57.898438 213.769531 Z M 125.078125 296.277344 C 118.871094 303.578125 109.808594 307.765625 100.226562 307.765625 C 90.738281 307.765625 81.746094 303.660156 75.550781 296.511719 C 69.90625 289.992188 67.082031 281.550781 67.605469 273.007812 L 87.945312 272.761719 C 87.820312 273.464844 87.75 274.179688 87.75 274.910156 C 87.75 281.785156 93.339844 287.390625 100.226562 287.390625 C 107.097656 287.390625 112.703125 281.796875 112.703125 274.910156 C 112.703125 274.082031 112.617188 273.257812 112.453125 272.457031 L 132.777344 272.210938 C 133.519531 280.875 130.792969 289.539062 125.078125 296.277344 Z M 103.1875 272.566406 C 103.710938 273.230469 104.011719 274.070312 104.011719 274.910156 C 104.011719 277.003906 102.304688 278.699219 100.226562 278.699219 C 98.132812 278.699219 96.441406 276.988281 96.441406 274.910156 C 96.441406 274.070312 96.703125 273.285156 97.195312 272.636719 Z M 42.726562 264.632812 C 45.851562 250.621094 57.140625 237.90625 67.347656 231.351562 C 89.871094 222.257812 113.0625 222.273438 129.144531 231.707031 C 140.296875 238.253906 147.675781 248.847656 151.175781 263.296875 Z M 334.160156 275.0625 C 334.160156 293.09375 319.492188 307.765625 301.46875 307.765625 C 283.460938 307.765625 268.796875 293.09375 268.796875 275.0625 C 268.796875 264.660156 274.660156 253.886719 283.761719 247.480469 C 288.882812 247.894531 294.074219 248.089844 299.144531 248.089844 C 306.082031 248.089844 312.773438 247.742188 318.765625 247.191406 C 328.113281 253.558594 334.160156 264.507812 334.160156 275.0625 Z M 341.871094 230.660156 C 341.46875 233.390625 337.585938 235.632812 331.226562 236.820312 C 314.828125 239.851562 284.628906 241.132812 264.128906 235.46875 C 270.597656 226.761719 279.273438 219.253906 290.539062 214.324219 C 305.945312 209.417969 317.636719 209.679688 328.375 215.191406 C 336.304688 219.242188 342.488281 226.320312 341.867188 230.660156 Z M 40.34375 107.394531 L 46.085938 107.394531 L 46.085938 182.265625 C 46.085938 184.179688 47.640625 185.75 49.570312 185.75 L 145.554688 185.75 C 147.457031 185.75 149.011719 184.195312 149.011719 182.265625 L 149.011719 107.394531 L 154.769531 107.394531 C 156.226562 107.394531 157.425781 106.199219 157.425781 104.722656 L 157.425781 89.40625 C 157.425781 87.929688 156.226562 86.730469 154.769531 86.730469 L 40.34375 86.730469 C 38.871094 86.730469 37.671875 87.929688 37.671875 89.40625 L 37.671875 104.722656 C 37.671875 106.199219 38.871094 107.394531 40.34375 107.394531 Z M 59.140625 106.914062 L 135.960938 106.914062 C 142.472656 106.914062 142.472656 116.820312 135.960938 116.820312 L 94.722656 116.832031 L 94.722656 135.511719 C 94.722656 139.921875 89.859375 142.332031 86.554688 139.464844 L 78.859375 132.839844 L 71.449219 139.21875 C 68.378906 142.332031 62.984375 140.183594 62.984375 135.734375 L 62.984375 116.832031 L 59.140625 116.832031 C 52.628906 116.832031 52.628906 106.914062 59.140625 106.914062 Z M 59.140625 106.914062 "/></g></svg>