<svg xmlns="http://www.w3.org/2000/svg" xmlns:xlink="http://www.w3.org/1999/xlink" width="512" zoomAndPan="magnify" viewBox="0 0 384 383.999986" height="512" preserveAspectRatio="xMidYMid meet" version="1.2"><g id="91737e379b"><path style=" stroke:none;fill-rule:nonzero;fill:#000000;fill-opacity:1;" d="M 275.214844 242.746094 C 272.90625 244.28125 269.789062 243.664062 268.253906 241.371094 C 266.722656 239.0625 267.335938 235.945312 269.632812 234.414062 C 275.527344 230.46875 280.652344 226.578125 285.238281 222.199219 C 289.746094 217.902344 293.769531 213.082031 297.554688 207.195312 C 298.628906 205.53125 300.03125 203.121094 300.699219 200.90625 C 301.054688 199.742188 301.261719 198.757812 301.054688 198.535156 L 300.976562 198.457031 C 300.488281 198.0625 299.71875 197.894531 298.863281 197.972656 C 297.84375 198.0625 296.78125 198.523438 295.917969 199.386719 L 295.601562 199.703125 C 287.253906 209.6875 280.246094 215.503906 273.875 219.226562 C 267.402344 223.011719 261.753906 224.570312 256.027344 226.105469 C 253.355469 226.8125 250.589844 225.226562 249.882812 222.542969 C 249.175781 219.867188 250.761719 217.101562 253.449219 216.394531 C 258.492188 215.046875 263.445312 213.671875 268.816406 210.539062 C 274.296875 207.339844 280.429688 202.21875 287.910156 193.269531 L 288.816406 192.273438 C 291.433594 189.652344 294.761719 188.238281 298.011719 187.949219 C 301.445312 187.648438 304.867188 188.617188 307.421875 190.765625 L 307.828125 191.144531 C 309.542969 188.210938 311.207031 185.210938 312.832031 182.15625 C 317.707031 172.996094 322.109375 163.457031 325.886719 153.945312 C 327.050781 151.011719 328.9375 148.875 331.308594 147.421875 L 331.636719 147.210938 C 334.230469 145.703125 337.257812 145.0625 340.390625 145.0625 C 340.824219 145.074219 341.253906 145.128906 341.6875 145.246094 C 345.160156 146.175781 347.9375 148.441406 349.601562 151.324219 C 351.242188 154.140625 351.816406 157.574219 350.992188 160.957031 L 329.988281 239.40625 C 329.109375 242.695312 327.707031 245.644531 325.820312 248.222656 C 323.933594 250.792969 321.535156 253.007812 318.664062 254.839844 L 272.066406 284.574219 C 270.507812 285.570312 269.289062 286.867188 268.464844 288.347656 C 267.664062 289.800781 267.230469 291.519531 267.230469 293.40625 L 267.230469 296.734375 C 269.667969 296.902344 271.84375 297.9375 273.546875 299.929688 C 274.988281 301.621094 275.933594 303.925781 276.167969 306.875 C 276.890625 316.164062 278.171875 326.582031 278.371094 335.765625 C 278.382812 338.386719 277.375 340.785156 275.789062 342.582031 C 274.136719 344.441406 271.832031 345.671875 269.367188 345.871094 C 248.546875 346.316406 222.183594 346.996094 201.714844 345.855469 C 199.25 345.671875 196.929688 344.453125 195.292969 342.582031 C 193.707031 340.785156 192.699219 338.402344 192.699219 335.765625 L 192.738281 334.980469 L 194.925781 306.875 C 195.121094 304.28125 196.105469 301.84375 197.625 300.035156 C 199.222656 298.148438 201.371094 296.917969 203.902344 296.734375 C 203.796875 286.773438 203.886719 276.171875 204.988281 266.699219 C 206.378906 254.75 209.445312 244.292969 215.695312 238.253906 L 218.722656 235.332031 C 220.726562 233.417969 223.910156 233.507812 225.824219 235.515625 C 227.738281 237.519531 227.644531 240.703125 225.640625 242.617188 L 222.652344 245.5 C 218.367188 249.652344 216.128906 258 214.972656 267.851562 C 213.914062 276.960938 213.820312 287.15625 213.925781 296.71875 L 257.191406 296.71875 L 257.191406 293.417969 C 257.191406 289.855469 258.058594 286.511719 259.683594 283.539062 C 261.292969 280.578125 263.664062 278.046875 266.691406 276.121094 L 313.289062 246.390625 C 315.085938 245.25 316.578125 243.875 317.746094 242.289062 C 318.898438 240.730469 319.75 238.894531 320.3125 236.8125 L 341.292969 158.519531 C 341.464844 157.757812 341.320312 156.972656 340.964844 156.355469 C 340.675781 155.847656 340.21875 155.414062 339.667969 155.136719 C 338.5 155.203125 337.464844 155.441406 336.707031 155.886719 L 336.523438 155.992188 C 335.984375 156.34375 335.539062 156.882812 335.253906 157.628906 C 331.269531 167.679688 326.722656 177.558594 321.769531 186.863281 C 316.921875 195.980469 311.613281 204.695312 306.003906 212.660156 C 301.785156 219.1875 297.265625 224.597656 292.195312 229.445312 C 287.1875 234.230469 281.632812 238.460938 275.25 242.71875 Z M 249.097656 85.046875 C 255.097656 85.046875 260.550781 87.496094 264.507812 91.441406 L 264.535156 91.46875 C 268.476562 95.425781 270.914062 100.863281 270.914062 106.863281 C 270.914062 112.867188 268.464844 118.328125 264.507812 122.285156 C 260.574219 126.242188 255.113281 128.695312 249.082031 128.695312 C 243.054688 128.695312 237.59375 126.246094 233.648438 122.300781 C 229.703125 118.355469 227.253906 112.890625 227.253906 106.863281 C 227.253906 100.835938 229.703125 95.371094 233.648438 91.429688 L 233.960938 91.140625 C 237.894531 87.367188 243.226562 85.035156 249.082031 85.035156 Z M 257.417969 98.542969 C 255.296875 96.421875 252.359375 95.109375 249.097656 95.109375 C 245.953125 95.109375 243.09375 96.328125 241 98.335938 L 240.777344 98.570312 C 238.652344 100.691406 237.332031 103.640625 237.332031 106.890625 C 237.332031 110.140625 238.652344 113.089844 240.777344 115.210938 C 242.898438 117.335938 245.847656 118.65625 249.097656 118.65625 C 252.347656 118.65625 255.296875 117.335938 257.417969 115.210938 C 259.554688 113.101562 260.863281 110.152344 260.863281 106.890625 C 260.863281 103.628906 259.554688 100.679688 257.429688 98.558594 Z M 134.992188 85.046875 C 140.992188 85.046875 146.457031 87.496094 150.414062 91.457031 C 154.371094 95.386719 156.820312 100.851562 156.820312 106.878906 C 156.820312 112.90625 154.371094 118.371094 150.425781 122.3125 C 146.484375 126.257812 141.019531 128.707031 134.992188 128.707031 C 128.964844 128.707031 123.5 126.257812 119.554688 122.3125 L 119.265625 122 C 115.492188 118.066406 113.160156 112.734375 113.160156 106.878906 C 113.160156 100.875 115.609375 95.425781 119.554688 91.46875 L 119.582031 91.441406 C 123.539062 87.5 128.976562 85.0625 134.976562 85.0625 Z M 143.3125 98.542969 C 141.203125 96.421875 138.253906 95.109375 134.992188 95.109375 C 131.726562 95.109375 128.78125 96.421875 126.667969 98.542969 C 124.535156 100.679688 123.222656 103.613281 123.222656 106.878906 C 123.222656 110.023438 124.441406 112.878906 126.445312 114.976562 L 126.683594 115.199219 C 128.804688 117.320312 131.753906 118.644531 135.003906 118.644531 C 138.253906 118.644531 141.203125 117.320312 143.324219 115.199219 C 145.449219 113.074219 146.769531 110.128906 146.769531 106.878906 C 146.769531 103.628906 145.449219 100.679688 143.324219 98.542969 Z M 215.015625 179.71875 C 214.859375 179.546875 214.714844 179.378906 214.570312 179.179688 C 213.941406 178.433594 213.285156 177.726562 212.589844 177.042969 C 207.296875 171.867188 200.039062 168.683594 192.042969 168.683594 C 184.050781 168.683594 176.792969 171.867188 171.496094 177.042969 C 170.804688 177.714844 170.148438 178.433594 169.519531 179.167969 C 169.386719 179.363281 169.230469 179.546875 169.074219 179.71875 C 165.40625 184.289062 163.070312 189.992188 162.679688 196.226562 C 171.617188 201.195312 181.390625 206.09375 192.042969 210.878906 C 202.699219 206.09375 212.472656 201.195312 221.410156 196.226562 C 221.015625 189.992188 218.683594 184.289062 215.015625 179.71875 Z M 214.085938 165.371094 C 215.277344 157.796875 218.867188 151.007812 224.058594 145.820312 C 230.476562 139.398438 239.347656 135.414062 249.085938 135.414062 C 256.699219 135.414062 263.773438 137.867188 269.578125 141.992188 C 273.40625 144.71875 276.679688 148.191406 279.171875 152.1875 C 281.003906 150.128906 282.734375 148.074219 284.359375 146.03125 C 305.390625 119.480469 308.300781 94.125 300.675781 75.195312 C 297.449219 67.175781 292.328125 60.28125 285.90625 54.9375 C 278.648438 48.894531 269.699219 44.820312 259.910156 43.328125 C 250.066406 41.808594 239.375 42.894531 228.707031 47.191406 C 217.453125 51.726562 206.195312 59.824219 195.910156 72.179688 L 195.242188 72.847656 C 193.121094 74.617188 189.949219 74.328125 188.179688 72.207031 C 166.703125 46.378906 140.914062 39.160156 119.84375 44.164062 C 106.859375 47.246094 95.628906 54.976562 88.367188 65.785156 C 81.097656 76.621094 77.753906 90.667969 80.546875 106.339844 C 83.089844 120.648438 90.6875 136.292969 104.890625 152.203125 C 107.382812 148.191406 110.660156 144.71875 114.496094 141.980469 C 120.300781 137.839844 127.378906 135.402344 134.992188 135.402344 C 144.742188 135.402344 153.613281 139.386719 160.019531 145.808594 C 165.207031 150.996094 168.8125 157.796875 169.992188 165.359375 C 176.292969 161.113281 183.882812 158.625 192.03125 158.625 C 200.183594 158.625 207.769531 161.113281 214.074219 165.359375 Z M 281.648438 164.203125 C 281.503906 164.375 281.335938 164.542969 281.164062 164.6875 C 262.097656 184.003906 233.859375 203.355469 194.0625 220.980469 C 192.714844 221.570312 191.257812 221.53125 190.015625 220.980469 C 150.398438 203.433594 122.230469 184.15625 103.136719 164.871094 C 102.808594 164.609375 102.507812 164.292969 102.261719 163.964844 C 83.523438 144.757812 73.757812 125.5625 70.652344 108.066406 C 67.390625 89.695312 71.386719 73.121094 80.050781 60.199219 C 88.738281 47.253906 102.101562 38.042969 117.539062 34.371094 C 140.707031 28.871094 168.527344 35.800781 192.046875 61.390625 C 202.4375 50.082031 213.695312 42.417969 224.988281 37.871094 C 237.414062 32.867188 249.898438 31.609375 261.417969 33.378906 C 273 35.160156 283.652344 40.019531 292.316406 47.226562 C 300.007812 53.621094 306.140625 61.863281 309.992188 71.457031 C 318.835938 93.441406 315.808594 122.453125 292.210938 152.238281 C 289.066406 156.207031 285.539062 160.203125 281.636719 164.199219 Z M 271.925781 159.761719 C 270.050781 155.921875 267.234375 152.621094 263.773438 150.171875 C 259.632812 147.222656 254.5625 145.480469 249.097656 145.480469 C 242.128906 145.480469 235.785156 148.335938 231.1875 152.933594 C 226.585938 157.535156 223.730469 163.875 223.730469 170.847656 L 223.730469 174.582031 C 227.230469 179.285156 229.707031 184.789062 230.820312 190.789062 C 247.710938 180.621094 261.257812 170.179688 271.925781 159.761719 Z M 160.386719 174.582031 L 160.386719 170.847656 C 160.386719 163.875 157.53125 157.535156 152.929688 152.933594 C 148.332031 148.335938 141.988281 145.480469 135.019531 145.480469 C 129.554688 145.480469 124.484375 147.222656 120.34375 150.171875 C 116.882812 152.632812 114.066406 155.949219 112.179688 159.789062 C 122.820312 170.179688 136.382812 180.609375 153.285156 190.789062 C 154.414062 184.789062 156.890625 179.273438 160.386719 174.570312 Z M 192.058594 108.265625 C 198.058594 108.265625 203.511719 110.714844 207.46875 114.660156 L 207.496094 114.683594 C 211.4375 118.640625 213.875 124.078125 213.875 130.082031 C 213.875 136.082031 211.425781 141.546875 207.46875 145.503906 C 203.539062 149.460938 198.074219 151.910156 192.046875 151.910156 C 186.019531 151.910156 180.554688 149.460938 176.609375 145.515625 L 176.320312 145.203125 C 172.546875 141.273438 170.214844 135.9375 170.214844 130.082031 C 170.214844 124.082031 172.664062 118.628906 176.609375 114.671875 L 176.636719 114.644531 C 180.59375 110.703125 186.03125 108.265625 192.03125 108.265625 Z M 200.378906 121.761719 C 198.257812 119.636719 195.320312 118.328125 192.058594 118.328125 C 188.796875 118.328125 185.847656 119.636719 183.738281 121.761719 C 181.601562 123.898438 180.292969 126.832031 180.292969 130.09375 C 180.292969 133.238281 181.511719 136.097656 183.515625 138.191406 L 183.75 138.414062 C 185.875 140.539062 188.820312 141.859375 192.070312 141.859375 C 195.320312 141.859375 198.269531 140.539062 200.394531 138.414062 C 202.527344 136.304688 203.839844 133.355469 203.839844 130.09375 C 203.839844 126.832031 202.527344 123.882812 200.40625 121.761719 Z M 218.410156 326.382812 C 215.632812 326.382812 213.378906 324.128906 213.378906 321.347656 C 213.378906 318.570312 215.632812 316.316406 218.410156 316.316406 L 218.449219 316.316406 C 221.226562 316.316406 223.480469 318.570312 223.480469 321.347656 C 223.480469 324.128906 221.226562 326.382812 218.449219 326.382812 Z M 165.652344 326.382812 C 162.875 326.382812 160.621094 324.128906 160.621094 321.347656 C 160.621094 318.570312 162.875 316.316406 165.652344 316.316406 L 165.691406 316.316406 C 168.472656 316.316406 170.722656 318.570312 170.722656 321.347656 C 170.722656 324.128906 168.472656 326.382812 165.691406 326.382812 Z M 181.363281 335.738281 L 179.175781 307.667969 C 179.148438 307.328125 179.085938 307.027344 178.980469 306.804688 L 118.074219 306.804688 L 117.96875 307.667969 C 117.640625 311.890625 115.386719 333.546875 115.792969 335.882812 L 181.367188 335.882812 Z M 189.199219 306.9375 C 189.949219 316.527344 190.851562 326.238281 191.429688 335.828125 C 191.429688 338.449219 190.417969 340.847656 188.832031 342.640625 C 187.183594 344.515625 184.875 345.734375 182.414062 345.929688 C 164.160156 343.898438 134.597656 346.363281 114.757812 345.929688 C 112.28125 345.734375 109.976562 344.503906 108.335938 342.640625 C 106.75 340.847656 105.742188 338.449219 105.742188 335.828125 C 106.777344 326.472656 107.222656 316.398438 107.957031 306.9375 C 108.191406 303.976562 109.125 301.667969 110.550781 299.992188 C 112.269531 298 114.445312 296.964844 116.882812 296.792969 L 116.882812 293.464844 C 116.882812 291.578125 116.460938 289.863281 115.664062 288.394531 C 114.835938 286.914062 113.617188 285.617188 112.058594 284.621094 L 65.460938 254.890625 C 62.578125 253.054688 60.191406 250.839844 58.304688 248.273438 C 56.40625 245.691406 55.015625 242.742188 54.140625 239.453125 L 33.132812 161.003906 C 32.308594 157.625 32.886719 154.191406 34.523438 151.375 C 36.1875 148.492188 38.976562 146.222656 42.4375 145.292969 C 42.871094 145.175781 43.300781 145.121094 43.734375 145.121094 C 46.867188 145.109375 49.894531 145.753906 52.488281 147.257812 L 52.816406 147.46875 C 55.175781 148.921875 57.0625 151.046875 58.242188 153.992188 C 62.015625 163.519531 66.417969 173.046875 71.292969 182.207031 C 72.917969 185.257812 74.582031 188.257812 76.296875 191.195312 L 76.71875 190.828125 C 79.273438 188.664062 82.691406 187.695312 86.125 187.996094 C 89.375 188.273438 92.714844 189.699219 95.324219 192.320312 L 96.214844 193.316406 C 111.207031 211.175781 120.890625 213.796875 130.992188 216.511719 C 141.527344 219.339844 152.46875 222.289062 168.558594 238.378906 L 168.78125 238.613281 C 174.835938 244.695312 177.8125 255.007812 179.1875 266.761719 C 180.289062 276.234375 180.390625 286.835938 180.273438 296.792969 C 182.804688 296.988281 184.953125 298.222656 186.550781 300.09375 C 188.070312 301.902344 189.054688 304.339844 189.25 306.933594 Z M 126.933594 296.753906 L 170.199219 296.753906 C 170.304688 287.1875 170.199219 276.996094 169.152344 267.886719 C 168.023438 258.191406 165.835938 249.949219 161.683594 245.730469 L 161.394531 245.46875 C 147.191406 231.265625 137.585938 228.671875 128.359375 226.179688 C 116.683594 223.035156 105.496094 220.023438 88.484375 199.726562 L 88.171875 199.398438 C 87.304688 198.53125 86.242188 198.074219 85.222656 197.980469 C 84.371094 197.917969 83.597656 198.085938 83.125 198.480469 L 83.046875 198.546875 C 82.835938 198.753906 83.046875 199.75 83.402344 200.917969 C 84.082031 203.132812 85.472656 205.542969 86.546875 207.207031 C 90.332031 213.078125 94.367188 217.914062 98.863281 222.210938 C 103.449219 226.585938 108.574219 230.476562 114.46875 234.421875 C 116.777344 235.957031 117.390625 239.074219 115.84375 241.378906 C 114.3125 243.6875 111.195312 244.300781 108.886719 242.757812 C 102.503906 238.496094 96.949219 234.265625 91.945312 229.484375 C 86.859375 224.632812 82.351562 219.234375 78.132812 212.699219 C 72.523438 204.730469 67.21875 196.015625 62.367188 186.898438 C 57.414062 177.582031 52.867188 167.714844 48.886719 157.664062 C 48.597656 156.917969 48.136719 156.378906 47.613281 156.027344 L 47.429688 155.921875 C 46.671875 155.476562 45.648438 155.253906 44.46875 155.175781 C 43.917969 155.449219 43.472656 155.882812 43.171875 156.394531 C 42.804688 157.007812 42.675781 157.792969 42.84375 158.554688 L 63.824219 236.847656 C 64.375 238.917969 65.238281 240.753906 66.390625 242.324219 C 67.558594 243.910156 69.039062 245.285156 70.847656 246.425781 L 117.445312 276.15625 C 120.472656 278.097656 122.84375 280.613281 124.457031 283.5625 C 126.082031 286.546875 126.945312 289.902344 126.945312 293.453125 L 126.945312 296.753906 Z M 262.332031 306.816406 L 205.121094 306.816406 C 205.015625 307.039062 204.949219 307.328125 204.925781 307.683594 C 204.359375 314.914062 202.371094 329.472656 202.75 335.894531 L 268.320312 335.894531 C 268.699219 329.472656 266.710938 314.917969 266.144531 307.683594 L 266.039062 306.816406 Z M 235.011719 223.257812 C 237.421875 221.910156 240.488281 222.789062 241.824219 225.199219 C 243.175781 227.609375 242.296875 230.675781 239.886719 232.011719 L 239.230469 232.378906 C 236.820312 233.726562 233.753906 232.851562 232.417969 230.441406 C 231.066406 228.027344 231.945312 224.960938 234.355469 223.625 Z M 235.011719 223.257812 "/></g></svg>